<svg width="173" height="47" viewBox="0 0 173 47" fill="none" xmlns="http://www.w3.org/2000/svg">
<path fill-rule="evenodd" clip-rule="evenodd" d="M110.66 32.2815C111.469 33.0888 112.523 33.4919 113.822 33.4919H119.39V29.3643H115.572C114.829 29.3643 114.458 28.9675 114.458 28.1736V17.9341H119.867V13.8065H114.458V7.69434H109.447V13.8065H106.779V13.8064H104.393C103.491 13.8064 102.731 13.9601 102.055 14.3302C101.379 14.7011 100.866 15.2352 100.575 16.0289H99.8587V13.8064H94.9272V33.4918H99.9383V22.2998C99.9383 20.8976 100.349 19.8589 101.171 19.1841C101.993 18.5095 102.864 17.9663 104.313 17.934H104.516V17.9341H109.447V29.0467C109.447 30.3963 109.851 31.4746 110.66 32.2815ZM85.7893 28.1141C84.7814 29.1062 83.5088 29.6023 81.9713 29.6023C80.4333 29.6023 79.1607 29.1062 78.1534 28.1141C77.1454 27.1217 76.6421 25.6998 76.6421 23.8474V23.4505C76.6421 21.5989 77.1454 20.1764 78.1534 19.184C79.1607 18.1919 80.4333 17.6958 81.9713 17.6958C83.5355 17.6958 84.8149 18.1919 85.8093 19.184C86.8035 20.1764 87.3006 21.5989 87.3006 23.4505V23.8474C87.3006 25.6998 86.7966 27.1217 85.7893 28.1141ZM76.6817 32.8569C78.2458 33.6506 80.0087 34.0474 81.9712 34.0474C83.9329 34.0474 85.6959 33.6506 87.2606 32.8569C88.8248 32.0631 90.0577 30.9121 90.9592 29.4039C91.8603 27.8958 92.3114 26.0838 92.3114 23.9666V23.3317C92.3114 21.2151 91.8603 19.4024 90.9592 17.8944C90.0577 16.3862 88.8248 15.2352 87.2606 14.4416C85.6959 13.6477 83.9329 13.2507 81.9712 13.2507C80.0087 13.2507 78.2458 13.6477 76.6817 14.4416C75.117 15.2352 73.8841 16.3862 72.9831 17.8944C72.0813 19.4024 71.6309 21.2151 71.6309 23.3317V23.9666C71.6309 26.0838 72.0813 27.8958 72.9831 29.4039C73.8841 30.9121 75.117 32.0631 76.6817 32.8569ZM49.9248 33.492V13.8066H54.8563V16.3863H55.5723C55.8903 15.6986 56.4869 15.0438 57.3618 14.4217C58.2369 13.8004 59.5622 13.489 61.3389 13.489C62.8763 13.489 64.2224 13.8401 65.3757 14.5408C66.529 15.2423 67.4239 16.2078 68.0601 17.4381C68.6965 18.6684 69.0145 20.1039 69.0145 21.7442V33.492H64.0035V22.141C64.0035 20.6596 63.6388 19.5484 62.9099 18.8073C62.1803 18.0669 61.1402 17.696 59.7878 17.696C58.25 17.696 57.0567 18.2057 56.2085 19.224C55.3598 20.243 54.9358 21.6649 54.9358 23.4906V33.492H49.9248ZM165.021 16.079V13.7969H165.845L166.277 15.6884H166.38L166.813 13.7969H167.637V16.079H167.204V14.1875H167.101L166.669 16.079H165.989L165.556 14.1875H165.453V16.079H165.021ZM163.517 16.079V14.1875H162.754V13.7969H164.712V14.1875H163.949V16.079H163.517ZM131.074 29.6023C132.611 29.6023 133.884 29.1062 134.892 28.1141C135.899 27.1217 136.403 25.6998 136.403 23.8474V23.4505C136.403 21.5989 135.906 20.1764 134.912 19.184C133.917 18.1919 132.638 17.6958 131.074 17.6958C129.536 17.6958 128.263 18.1919 127.256 19.184C126.248 20.1764 125.745 21.5989 125.745 23.4505V23.8474C125.745 25.6998 126.248 27.1217 127.256 28.1141C128.263 29.1062 129.536 29.6023 131.074 29.6023ZM131.074 34.0474C129.111 34.0474 127.348 33.6506 125.784 32.8569C124.22 32.0631 122.987 30.9121 122.086 29.4039C121.184 27.8958 120.733 26.0838 120.733 23.9666V23.3317C120.733 21.2151 121.184 19.4024 122.086 17.8944C122.987 16.3862 124.22 15.2352 125.784 14.4416C127.348 13.6477 129.111 13.2507 131.074 13.2507C133.035 13.2507 134.798 13.6477 136.363 14.4416C137.927 15.2352 139.16 16.3862 140.062 17.8944C140.963 19.4024 141.414 21.2151 141.414 23.3317V23.9666C141.414 26.0838 140.963 27.8958 140.062 29.4039C139.16 30.9121 137.927 32.0631 136.363 32.8569C134.798 33.6506 133.035 34.0474 131.074 34.0474ZM144.03 13.8066V33.492H149.041V23.4906C149.041 21.6649 149.465 20.243 150.314 19.224C151.162 18.2057 152.355 17.696 153.893 17.696C155.245 17.696 156.286 18.0669 157.015 18.8073C157.744 19.5484 158.109 20.6596 158.109 22.141V33.492H163.12V21.7442C163.12 20.1039 162.802 18.6684 162.166 17.4381C161.529 16.2078 160.634 15.2423 159.481 14.5408C158.328 13.8401 156.982 13.489 155.444 13.489C153.668 13.489 152.342 13.8004 151.467 14.4217C150.592 15.0438 149.996 15.6986 149.678 16.3863H148.962V13.8066H144.03Z" fill="white"/>
<path fill-rule="evenodd" clip-rule="evenodd" d="M42.0766 23.5006C42.0766 33.7014 33.7607 42 23.5388 42C13.316 42 5 33.7014 5 23.5006C5 13.2988 13.316 5 23.5388 5C26.3641 5 29.0434 5.63343 31.4421 6.76647L28.3631 10.7249C26.8617 10.1589 25.2365 9.849 23.5388 9.849C16.3306 9.849 10.4075 15.4403 9.89489 22.506C9.8848 22.6485 9.87696 22.792 9.87098 22.9365C9.86314 23.1236 9.85903 23.3116 9.85903 23.5006C9.85903 31.0275 15.9954 37.151 23.5388 37.151C31.0812 37.151 37.2175 31.0275 37.2175 23.5006C37.2175 22.4942 37.1075 21.5125 36.9002 20.5684L40.473 15.9757C41.5034 18.2755 42.0766 20.8228 42.0766 23.5006Z" fill="#FFE01A"/>
<path fill-rule="evenodd" clip-rule="evenodd" d="M38.2975 12.3182L35.1748 16.331L24.2132 30.4218L15.2705 22.4437L18.5082 18.8288L23.5686 23.3433L31.8667 12.6775L34.8446 8.84863C36.1427 9.84825 37.3048 11.016 38.2975 12.3182Z" fill="white"/>
</svg>
