<svg width="98" height="30" viewBox="0 0 98 30" fill="none" xmlns="http://www.w3.org/2000/svg">
<rect width="98" height="30" fill="#2E3842"/>
<path fill-rule="evenodd" clip-rule="evenodd" d="M62.1139 19.7467C62.5508 20.183 63.1206 20.4009 63.8229 20.4009H66.8326V18.1698H64.7688C64.3674 18.1698 64.1668 17.9553 64.1668 17.5262V11.9913H67.0906V9.76015H64.1668V6.4563H61.4581V9.76015H58.7925V9.76025H58.7258C58.2384 9.76025 57.8276 9.84336 57.4622 10.0434C57.0967 10.2439 56.8195 10.5326 56.6621 10.9616H56.275V9.76025H53.6094V20.401H56.318V14.3513C56.318 13.5934 56.5401 13.0319 56.9845 12.6671C57.4285 12.3025 57.8996 12.0088 58.6828 11.9914H60.0156V11.9913H61.4581V17.9981C61.4581 18.7276 61.6765 19.3105 62.1139 19.7467ZM48.6695 17.4941C48.1248 18.0304 47.4368 18.2985 46.6058 18.2985C45.7744 18.2985 45.0865 18.0304 44.542 17.4941C43.9972 16.9577 43.7251 16.1891 43.7251 15.1878V14.9732C43.7251 13.9724 43.9972 13.2035 44.542 12.6671C45.0865 12.1307 45.7744 11.8626 46.6058 11.8626C47.4513 11.8626 48.1428 12.1307 48.6804 12.6671C49.2178 13.2035 49.4865 13.9724 49.4865 14.9732V15.1878C49.4865 16.1891 49.214 16.9577 48.6695 17.4941ZM43.7468 20.0577C44.5923 20.4867 45.5452 20.7012 46.606 20.7012C47.6664 20.7012 48.6194 20.4867 49.4651 20.0577C50.3106 19.6286 50.977 19.0065 51.4644 18.1912C51.9514 17.376 52.1953 16.3966 52.1953 15.2521V14.9089C52.1953 13.7648 51.9514 12.785 51.4644 11.9698C50.977 11.1546 50.3106 10.5325 49.4651 10.1035C48.6194 9.67433 47.6664 9.45976 46.606 9.45976C45.5452 9.45976 44.5923 9.67433 43.7468 10.1035C42.901 10.5325 42.2346 11.1546 41.7475 11.9698C41.2601 12.785 41.0166 13.7648 41.0166 14.9089V15.2521C41.0166 16.3966 41.2601 17.376 41.7475 18.1912C42.2346 19.0065 42.901 19.6286 43.7468 20.0577ZM29.2837 20.401V9.76027H31.9494V11.1547H32.3364C32.5083 10.783 32.8308 10.429 33.3037 10.0928C33.7767 9.75695 34.4931 9.58862 35.4535 9.58862C36.2845 9.58862 37.0121 9.7784 37.6355 10.1572C38.2589 10.5363 38.7426 11.0582 39.0866 11.7233C39.4306 12.3883 39.6025 13.1643 39.6025 14.0509V20.401H36.8938V14.2654C36.8938 13.4646 36.6967 12.864 36.3027 12.4634C35.9083 12.0631 35.3461 11.8627 34.615 11.8627C33.7838 11.8627 33.1388 12.1382 32.6803 12.6886C32.2215 13.2394 31.9924 14.008 31.9924 14.9949V20.401H29.2837ZM91.498 10.9885V9.75488H91.9434L92.1773 10.7773H92.2329L92.4668 9.75488H92.9123V10.9885H92.6784V9.96602H92.6228L92.3889 10.9885H92.0214L91.7875 9.96602H91.7319V10.9885H91.498ZM90.685 10.9885V9.96602H90.2729V9.75488H91.3309V9.96602H90.9189V10.9885H90.685ZM73.1478 18.2985C73.9788 18.2985 74.6667 18.0303 75.2115 17.494C75.756 16.9576 76.0284 16.189 76.0284 15.1878V14.9732C76.0284 13.9723 75.7597 13.2034 75.2223 12.667C74.6848 12.1307 73.9932 11.8625 73.1478 11.8625C72.3164 11.8625 71.6285 12.1307 71.084 12.667C70.5391 13.2034 70.2671 13.9723 70.2671 14.9732V15.1878C70.2671 16.189 70.5391 16.9576 71.084 17.494C71.6285 18.0303 72.3164 18.2985 73.1478 18.2985ZM73.1479 20.7012C72.0871 20.7012 71.1343 20.4867 70.2888 20.0577C69.443 19.6285 68.7766 19.0064 68.2895 18.1912C67.8021 17.3759 67.5586 16.3965 67.5586 15.2521V14.9089C67.5586 13.7648 67.8021 12.7849 68.2895 11.9698C68.7766 11.1546 69.443 10.5324 70.2888 10.1034C71.1343 9.67428 72.0871 9.45972 73.1479 9.45972C74.2083 9.45972 75.1613 9.67428 76.0071 10.1034C76.8526 10.5324 77.519 11.1546 78.0064 11.9698C78.4934 12.7849 78.7373 13.7648 78.7373 14.9089V15.2521C78.7373 16.3965 78.4934 17.3759 78.0064 18.1912C77.519 19.0064 76.8526 19.6285 76.0071 20.0577C75.1613 20.4867 74.2083 20.7012 73.1479 20.7012ZM80.1514 9.76027V20.401H82.86V14.9949C82.86 14.008 83.0892 13.2394 83.548 12.6886C84.0064 12.1382 84.6515 11.8627 85.4827 11.8627C86.2136 11.8627 86.776 12.0631 87.1703 12.4634C87.5643 12.864 87.7615 13.4646 87.7615 14.2654V20.401H90.4702V14.0509C90.4702 13.1643 90.2982 12.3883 89.9542 11.7233C89.6103 11.0582 89.1266 10.5363 88.5032 10.1572C87.8798 9.7784 87.1522 9.58862 86.3211 9.58862C85.3608 9.58862 84.6444 9.75695 84.1714 10.0928C83.6985 10.429 83.376 10.783 83.2041 11.1547H82.817V9.76027H80.1514Z" fill="white"/>
<path fill-rule="evenodd" clip-rule="evenodd" d="M25.0414 15.0003C25.0414 20.5142 20.5463 25 15.021 25C9.49514 25 5 20.5142 5 15.0003C5 9.48586 9.49514 5 15.021 5C16.5481 5 17.9965 5.34239 19.293 5.95485L17.6287 8.09453C16.8171 7.7886 15.9387 7.62108 15.021 7.62108C11.1246 7.62108 7.92297 10.6434 7.64588 14.4627C7.64043 14.5397 7.63619 14.6173 7.63296 14.6954C7.62872 14.7965 7.6265 14.8982 7.6265 15.0003C7.6265 19.0689 10.9434 22.3789 15.021 22.3789C19.0979 22.3789 22.4149 19.0689 22.4149 15.0003C22.4149 14.4563 22.3554 13.9257 22.2434 13.4154L24.1746 10.9328C24.7316 12.1759 25.0414 13.5529 25.0414 15.0003" fill="#FFE01A"/>
<path fill-rule="evenodd" clip-rule="evenodd" d="M22.9988 8.95578L21.3108 11.1249L15.3857 18.7415L10.5518 14.429L12.3019 12.475L15.0372 14.9153L19.5227 9.14999L21.1324 7.08032C21.834 7.62066 22.4622 8.25185 22.9988 8.95578" fill="white"/>
</svg>
