<svg xmlns="http://www.w3.org/2000/svg" xmlns:xlink="http://www.w3.org/1999/xlink" width="90" height="35" viewBox="0 0 90 35">
    <defs>
        <path id="a" d="M.036.086H88.17v29.879H.036z"/>
    </defs>
    <g fill="none" fill-rule="evenodd">
        <path fill="#FFFFFE" d="M73.676 18.813a2.49 2.49 0 1 1 0-4.98 2.49 2.49 0 0 1 0 4.98zm0-7.342a4.854 4.854 0 1 0 .002 9.707 4.854 4.854 0 0 0-.002-9.707zM50.735 18.813a2.49 2.49 0 1 1 0-4.98 2.49 2.49 0 0 1 0 4.98zm0-7.342a4.854 4.854 0 1 0 .002 9.707 4.854 4.854 0 0 0-.002-9.707z"/>
        <path fill="#FFFFFE" d="M68.487 18.905c-.32.09-.805.18-.991.18-.862 0-1.05-.29-1.05-1.099v-4.56h2.061v-1.908h-2.06V8.824h-2.318l-.489 2.694h-1.613v.003h-.132c-1.322.005-2.316.794-2.956 2.03l-.805-2.033h-1.663v9.475h2.841V16.87c0-2.076 1.254-3.405 2.737-3.445h1.555v4.71c0 2.216 1.16 3.041 3.05 3.041.973 0 1.72-.2 2.17-.347l-.337-1.924M82.059 14.54v6.636h-2.647v-9.705h1.606l.54 1.483M82.059 13.15c.788-.956 1.866-1.68 3.13-1.68 2.159 0 3.046 1.8 3.046 3.469v6.237h-2.669V15.02c0-.814-.647-1.256-1.35-1.256-.747 0-1.228.449-1.65.926M34.412 7.941h3.031l4.163 8.32v-8.32h2.512v13.235h-2.746l-4.449-9.148v9.148h-2.511V7.941M89.118 11.47v.15h-.32v.733h-.25v-.733h-.313v-.15h.883M89.118 12.353v-.882h.263l.175.578.177-.578H90v.882h-.162v-.69h-.004l-.204.69h-.142l-.206-.69h-.003v.69h-.161M37.833 28.211c0-.813-.273-1.766-1.252-1.766-.453 0-.874.198-1.242.565v2.67c.336.349.652.526 1.126.526.884 0 1.368-.724 1.368-1.995zm-2.673 1.986l-.2.606h-.548v-6.98h.927v2.542c.305-.317.82-.655 1.452-.655 1.412 0 2.033 1.32 2.033 2.501 0 1.588-.874 2.671-2.18 2.671-.674 0-1.127-.268-1.484-.685zM39.706 26.47h.943s1.32 4.364 1.32 4.374l1.236-4.373h.913l-1.772 5.567c-.304.956-.827 1.491-1.844 1.491-.2 0-.43-.031-.639-.092l.115-.659c.137.021.262.051.44.051.545 0 .954-.247 1.164-.885l-1.876-5.473M46.765 30.09l.482-.607a3.846 3.846 0 0 0 2.22.665c1.032 0 1.628-.43 1.628-1.165 0-.822-.73-1.087-1.774-1.4-1.121-.343-2.153-.784-2.153-2.036 0-1.117 1.01-1.723 2.344-1.723.943 0 1.504.136 2.11.44l-.404.666c-.483-.235-1.01-.372-1.717-.372-.84 0-1.413.284-1.413.979 0 .734.55.97 1.705 1.321 1.1.333 2.266.755 2.266 2.105 0 1.204-.975 1.92-2.591 1.92-1.279 0-2.177-.412-2.703-.794M52.059 26.47H53s1.321 4.364 1.321 4.374l1.237-4.373h.912l-1.772 5.567c-.303.956-.828 1.491-1.845 1.491-.199 0-.43-.031-.638-.092l.114-.659c.138.021.263.051.441.051.545 0 .954-.247 1.163-.885l-1.875-5.473M63.038 26.47c1.095 0 1.374.888 1.374 1.744v3.55h-.944v-3.55c0-.505-.086-.969-.741-.969-.44 0-.911.257-1.373.712v3.808h-.944v-3.55c0-.506-.086-.97-.74-.97-.451 0-.933.298-1.373.722v3.798h-.944v-5.19h.557l.237.835c.493-.516 1.105-.94 1.834-.94.719 0 1.03.382 1.234.898.493-.526 1.137-.897 1.823-.897M68.013 29.051c-.923.194-1.522.406-1.75.722-.121.152-.149.295-.149.518 0 .498.222.782.72.782.469 0 .884-.263 1.179-.507V29.05zm0-.813c0-.69-.195-1.036-.866-1.036-.461 0-.885.202-1.32.447l-.294-.6c.48-.335.996-.578 1.678-.578 1.152 0 1.613.69 1.613 1.828v3.384h-.471l-.212-.61c-.323.356-.83.692-1.429.692-.81 0-1.418-.559-1.418-1.413 0-.559.194-.955.617-1.24.416-.284 1.152-.488 2.102-.64v-.234zM70.588 26.574h.586l.25.856c.518-.536 1.183-.96 2.03-.96 1.23 0 1.546.888 1.546 1.744v3.55h-.993v-3.55c0-.505-.136-.969-.88-.969-.53 0-1.083.298-1.546.743v3.777h-.993v-5.19M75.882 26.926v-.668h.705l.201-1.552h.586v1.552H78.4v.668h-1.026v3.34c0 .506.083.776.513.776.175 0 .322-.042.522-.108l.12.658a1.665 1.665 0 0 1-.741.173c-.834 0-1.22-.475-1.22-1.444v-3.395h-.686M82.843 28.777c-.033-1.077-.414-1.636-1.187-1.636-.697 0-1.155.499-1.23 1.636h2.417zm-1.035 2.277c.632 0 1.035-.225 1.493-.498l.403.538c-.535.406-1.024.67-1.972.67-1.416 0-2.32-1.016-2.32-2.631 0-1.575.87-2.662 2.244-2.662 1.415 0 2.168.985 2.168 2.692v.213h-3.399c.043 1.098.457 1.678 1.383 1.678z"/>
        <g transform="translate(0 4.412)">
            <mask id="b" fill="#fff">
                <use xlink:href="#a"/>
            </mask>
            <path fill="#FFFFFE" d="M84.29 24.129c0-1.315.585-2.702 2.176-2.702.657 0 1.16.163 1.611.54l-.39.602a1.97 1.97 0 0 0-1.21-.418c-1.078 0-1.242 1.101-1.242 1.978 0 .846.194 1.887 1.272 1.887.524 0 .883-.195 1.231-.49l.432.53c-.369.378-.904.683-1.704.683-1.57 0-2.176-1.325-2.176-2.61" mask="url(#b)"/>
            <path fill="#FFF" d="M15.058 4.817a10.272 10.272 0 0 0-7.28 2.995 10.134 10.134 0 0 0-3.015 7.23c0 2.73 1.072 5.298 3.016 7.232a10.276 10.276 0 0 0 7.279 2.995 10.279 10.279 0 0 0 7.28-2.997 10.139 10.139 0 0 0 3.014-7.23 10.14 10.14 0 0 0-3.015-7.23 10.276 10.276 0 0 0-7.279-2.995zm0 25.183C6.756 30 .001 23.29 0 15.042 0 6.796 6.756.086 15.058.086c8.301 0 15.056 6.71 15.057 14.956C30.114 23.29 23.359 30 15.058 30z" mask="url(#b)"/>
        </g>
        <path fill="#FFFFFE" d="M31.765 3.53h.882v-.883h-.882zM31.765.882h.882V0h-.882zM28.235 4.412h.883v-.883h-.883zM26.47 7.059h.883v-.883h-.882zM29.118 5.294H30v-.882h-.882zM24.706 5.294h.882v-.882h-.882zM28.235 7.059h.883v-.883h-.883zM30 2.647h.882v-.882H30z"/>
        <path fill="#FFFFFE" d="M28.235 3.53H30v-.883h-1.765zM27.353 6.176h.882V3.53h-.882zM27.181 7.059v1.118h-1.09V7.059h-1.812v.805h-.97v.995h1.084v1.107h-1.084V8.86h-1.152v1.737h-1.089v1.11h-.723v1.113h-.794c-.893 1.362-3.131 5.607-3.807 7.335-2.438-3.48-4.33-4.86-5.821-5.358-.805-.248-1.773.65-.438 2.063 3.068 3.46 4.033 6.326 4.966 8.612.493 1.205 2.704 1.393 3.15.165.943-2.594 2.312-5.509 3.933-7.902v-1.24h.864v-1.118h.911v-1.297h1.087v-1.25h-1.1v-1.135h1.1v1.136h1.075l-.002-1.124h.862v-1.358h.97v-.933h.934V7.059h-1.054"/>
    </g>
</svg>
