<svg width="32" height="32" viewBox="0 0 32 32" fill="none" xmlns="http://www.w3.org/2000/svg">
<path fill-rule="evenodd" clip-rule="evenodd" d="M32 16.0004C32 24.8227 24.8227 32 16.0004 32C7.17732 32 0 24.8227 0 16.0004C0 7.17724 7.17732 0 16.0004 0C18.4388 0 20.7513 0.54769 22.8217 1.52769L20.1642 4.95117C18.8684 4.4616 17.4657 4.19375 16.0004 4.19375C9.77911 4.19375 4.66702 9.02937 4.22458 15.1403C4.21605 15.2635 4.20921 15.3876 4.20405 15.5125C4.19721 15.6743 4.19375 15.837 4.19375 16.0004C4.19375 22.5101 9.48989 27.8063 16.0004 27.8063C22.5101 27.8063 27.8063 22.5101 27.8063 16.0004C27.8063 15.13 27.7112 14.281 27.5324 13.4644L30.6161 9.49242C31.5053 11.4814 32 13.6845 32 16.0004Z" fill="white"/>
<path fill-rule="evenodd" clip-rule="evenodd" d="M28.7383 6.32913L26.0432 9.79966L16.5824 21.9864L8.86426 15.0863L11.6586 11.9598L16.0261 15.8643L23.188 6.6398L25.7582 3.32849C26.8785 4.19285 27.8815 5.20283 28.7383 6.32913Z" fill="white"/>
<path fill-rule="evenodd" clip-rule="evenodd" d="M28.8395 30.3539V29.0358H29.3145L29.5639 30.1283H29.6232L29.8726 29.0358H30.3476V30.3539H30.0982V29.2614H30.0389L29.7894 30.3539H29.3976L29.1482 29.2614H29.0889V30.3539H28.8395ZM27.9726 30.3539V29.2614H27.5332V29.0358H28.6614V29.2614H28.222V30.3539H27.9726Z" fill="white"/>
</svg>
