<svg width="33" height="24" viewBox="0 0 33 24" fill="none" xmlns="http://www.w3.org/2000/svg">
<g clip-path="url(#clip0_41_2257)">
<mask id="mask0_41_2257" style="mask-type:alpha" maskUnits="userSpaceOnUse" x="0" y="0" width="33" height="24">
<path fill-rule="evenodd" clip-rule="evenodd" d="M28.1485 3.66082V9.63774H27.1807H2.34205V9.71851V16.2608C2.34205 16.7454 2.74527 17.23 3.30979 17.23H18.0679V17.957C18.0679 18.4416 18.1485 18.9262 18.2291 19.4108H3.30979C1.5356 19.4108 0.0839844 17.957 0.0839844 16.1801V3.66082C0.0839844 1.8839 1.5356 0.430054 3.30979 0.430054H24.9227C26.6969 0.430054 28.1485 1.8839 28.1485 3.66082ZM3.30979 2.61082C2.82592 2.61082 2.34205 3.01467 2.34205 3.58005V5.35698H25.8098V3.58005C25.8098 3.09544 25.4066 2.61082 24.842 2.61082H3.30979ZM20.2453 17.8761C20.2453 14.4838 22.9872 11.8184 26.2937 11.8184C29.6808 11.8184 32.342 14.4838 32.342 17.8761C32.342 21.2684 29.6001 23.9338 26.2937 23.9338C22.9066 23.9338 20.2453 21.2684 20.2453 17.8761ZM26.2937 14.08C25.8904 14.08 25.5678 14.403 25.5678 14.8069V18.603C25.5678 19.0069 25.8904 19.33 26.2937 19.33C26.6969 19.33 27.0195 19.0069 27.0195 18.603V14.8069C27.0195 14.403 26.6969 14.08 26.2937 14.08ZM26.2937 21.753C26.5356 21.753 26.6969 21.6723 26.8582 21.5107C27.0195 21.3492 27.1001 21.1877 27.1001 20.9453C27.1001 20.703 27.0195 20.5415 26.8582 20.38C26.6969 20.2184 26.5356 20.1377 26.2937 20.1377C26.0517 20.1377 25.8904 20.2184 25.7291 20.38C25.5678 20.5415 25.4872 20.703 25.4872 20.9453C25.4872 21.1877 25.5678 21.3492 25.7291 21.5107C25.8904 21.6723 26.0517 21.753 26.2937 21.753Z" fill="#242424"/>
</mask>
<g mask="url(#mask0_41_2257)">
<rect x="-77.4189" y="-75.6923" width="184.332" height="184.615" rx="20" fill="#242424"/>
</g>
</g>
<defs>
<clipPath id="clip0_41_2257">
<rect width="32.7189" height="24" fill="white"/>
</clipPath>
</defs>
</svg>
