<svg width="153" height="162" viewBox="0 0 153 162" fill="none" xmlns="http://www.w3.org/2000/svg">
<path d="M76.5 152.925C118.75 152.925 153 118.691 153 76.4624C153 34.2334 118.75 0 76.5 0C34.2502 0 0 34.2334 0 76.4624C0 118.691 34.2502 152.925 76.5 152.925Z" fill="#F4F1ED"/>
<path d="M69.7911 58.4439H53.2849C51.3144 58.4439 49.7197 57.0698 49.7197 55.3843V30.1105C49.7197 28.4158 51.3144 27.0509 53.2849 27.0509H69.7911C71.7615 27.0509 73.3561 28.425 73.3561 30.1105V55.3843C73.347 57.079 71.7524 58.4439 69.7911 58.4439Z" fill="white"/>
<path d="M106.405 48.2574H89.8992C87.9287 48.2574 86.334 46.8833 86.334 45.1978V19.915C86.334 18.2203 87.9287 16.8553 89.8992 16.8553H106.405C108.376 16.8553 109.971 18.2294 109.971 19.915V45.1887C109.971 46.8833 108.376 48.2574 106.405 48.2574Z" fill="white"/>
<path d="M125.067 148.821L122.207 151.001L112.804 127.981L119.21 126.762L125.067 148.821Z" fill="white"/>
<path d="M33.3698 145.01L25.7446 143.92L29.0164 127.166L35.826 126.076L33.3698 145.01Z" fill="white"/>
<path d="M29.9777 39.7566H27.5396V129.74H29.9777V39.7566Z" fill="#242424" stroke="#242424" stroke-width="1.0722" stroke-miterlimit="10"/>
<path d="M33.3956 46.5169C33.1298 46.5169 32.9189 46.2971 32.9189 46.0314V39.7107C32.9189 39.445 33.1298 39.2252 33.3956 39.2252C33.6613 39.2252 33.8722 39.445 33.8722 39.7107V46.0314C33.8722 46.3062 33.6613 46.5169 33.3956 46.5169Z" fill="#242424" stroke="#242424" stroke-width="0.583" stroke-miterlimit="10"/>
<path d="M33.3955 48.3124C32.6531 48.3124 32.0391 47.6895 32.0391 46.9291C32.0391 46.1688 32.6439 45.5459 33.3955 45.5459C34.147 45.5459 34.7519 46.1688 34.7519 46.9291C34.7519 47.6986 34.147 48.3124 33.3955 48.3124ZM33.3955 46.5169C33.1755 46.5169 32.9923 46.7001 32.9923 46.9291C32.9923 47.1582 33.1755 47.3414 33.3955 47.3414C33.6155 47.3414 33.7988 47.1582 33.7988 46.9291C33.7988 46.7093 33.6155 46.5169 33.3955 46.5169Z" fill="#242424" stroke="#242424" stroke-width="0.583" stroke-miterlimit="10"/>
<path d="M77.7557 127.413L72.5042 156.836C72.4676 157.029 72.2567 157.175 72.0001 157.175H69.0215C68.884 157.175 68.7557 157.129 68.6549 157.056C68.5632 156.983 68.5083 156.873 68.5083 156.772L69.5256 127.257" fill="#242424"/>
<path d="M77.7557 127.413L72.5042 156.836C72.4676 157.029 72.2567 157.175 72.0001 157.175H69.0215C68.884 157.175 68.7557 157.129 68.6549 157.056C68.5632 156.983 68.5083 156.873 68.5083 156.772L69.5256 127.257" stroke="#242424" stroke-width="2.75" stroke-miterlimit="10" stroke-linecap="round" stroke-linejoin="round"/>
<path d="M38.4743 118.729L25.1301 148.152C25.0568 148.308 24.8644 148.418 24.6536 148.418L22.4082 147.786C22.2524 147.786 21.1342 146.283 21.0334 146.192C20.9418 146.1 21.1434 148.051 21.1801 147.941L29.126 118.518" fill="#242424"/>
<path d="M38.4743 118.729L25.1301 148.152C25.0568 148.308 24.8644 148.418 24.6536 148.418L22.4082 147.786C22.2524 147.786 21.1342 146.283 21.0334 146.192C20.9418 146.1 21.1434 148.051 21.1801 147.941L29.126 118.518" stroke="#242424" stroke-width="2.75" stroke-miterlimit="10" stroke-linecap="round" stroke-linejoin="round"/>
<path d="M22.3081 147.621H24.306" stroke="#242424" stroke-width="0.7226" stroke-miterlimit="10"/>
<path d="M118.805 121.788L127.503 143.81C127.549 143.929 127.521 144.048 127.439 144.149C127.347 144.25 127.21 144.314 127.054 144.323L123.635 144.506C123.626 144.506 123.608 144.506 123.599 144.506C123.397 144.506 123.214 144.415 123.131 144.268L111.693 123.428" fill="#242424"/>
<path d="M118.805 121.788L127.503 143.81C127.549 143.929 127.521 144.048 127.439 144.149C127.347 144.25 127.21 144.314 127.054 144.323L123.635 144.506C123.626 144.506 123.608 144.506 123.599 144.506C123.397 144.506 123.214 144.415 123.131 144.268L111.693 123.428" stroke="#242424" stroke-width="2.75" stroke-miterlimit="10" stroke-linecap="round" stroke-linejoin="round"/>
<path d="M123.928 143.691L126.347 143.562" stroke="#242424" stroke-width="0.7226" stroke-miterlimit="10"/>
<path d="M82.2924 118.243C82.2649 118.023 82.4665 117.831 82.7415 117.804C83.0164 117.776 83.2731 117.941 83.3006 118.161L86.215 140.183C86.2333 140.292 86.1875 140.393 86.0958 140.476C86.0042 140.558 85.8758 140.613 85.7384 140.613L82.3199 140.796C82.3107 140.796 82.2924 140.796 82.2832 140.796C82.0449 140.796 81.8342 140.668 81.7884 140.485L76.1337 119.645C76.0787 119.434 76.2529 119.214 76.5278 119.168C76.8027 119.123 77.0684 119.26 77.1326 119.471" fill="#242424"/>
<path d="M82.2924 118.243C82.2649 118.023 82.4665 117.831 82.7415 117.804C83.0164 117.776 83.2731 117.941 83.3006 118.161L86.215 140.183C86.2333 140.292 86.1875 140.393 86.0958 140.476C86.0042 140.558 85.8758 140.613 85.7384 140.613L82.3199 140.796C82.3107 140.796 82.2924 140.796 82.2832 140.796C82.0449 140.796 81.8342 140.668 81.7884 140.485L76.1337 119.645C76.0787 119.434 76.2529 119.214 76.5278 119.168C76.8027 119.123 77.0684 119.26 77.1326 119.471" stroke="#242424" stroke-width="2.75" stroke-miterlimit="10" stroke-linecap="round" stroke-linejoin="round"/>
<path d="M75.1328 99.5468L85.9109 46.7642C85.9109 46.7642 87.7714 40.9931 96.0015 40.9931C104.232 40.9931 132.341 40.9931 132.341 40.9931C132.341 40.9931 138.124 41.387 138.124 46.7642C138.124 52.1414 134.009 54.001 134.009 54.001L120.985 127.12L76.5168 134.842L25.3852 127.706L24.9912 116.567C24.9912 116.567 25.092 110.897 33.8079 108.845C41.8548 106.939 75.1328 99.5468 75.1328 99.5468Z" fill="#FEEB29"/>
<path d="M76.5079 135.483C76.4804 135.483 76.4621 135.483 76.4346 135.474L25.3033 128.329C25.0558 128.292 24.8725 128.091 24.8634 127.843L24.4692 116.686C24.4692 116.677 24.4692 116.668 24.4692 116.658C24.4692 116.594 24.5059 115.074 25.6881 113.287C26.7513 111.684 29.0059 109.541 33.6709 108.432C41.2137 106.655 71.2381 99.9681 74.6841 99.1986L85.3887 46.6542C85.3887 46.6359 85.3979 46.6175 85.4071 46.5992C85.4254 46.5351 85.9295 45.0145 87.4967 43.503C88.9264 42.1198 91.5568 40.4709 95.9743 40.4709H132.313C132.323 40.4709 132.341 40.4709 132.35 40.4709C132.414 40.4709 138.601 40.9655 138.601 46.755C138.601 51.6833 135.374 53.8177 134.43 54.3398L121.444 127.321C121.407 127.532 121.242 127.697 121.031 127.733L76.5629 135.465C76.5629 135.483 76.5354 135.483 76.5079 135.483ZM25.8715 127.385L76.4988 134.466L120.536 126.808L133.505 53.9276C133.532 53.7627 133.642 53.6253 133.798 53.552C133.954 53.4787 137.611 51.7474 137.611 46.7733C137.611 42.019 132.698 41.5335 132.323 41.506H96.0018C92.7483 41.506 90.1454 42.4129 88.2665 44.2175C86.9651 45.4633 86.4702 46.7275 86.406 46.9107L75.6372 99.7391C75.6005 99.9315 75.4448 100.087 75.2523 100.133C74.9224 100.206 41.8919 107.553 33.9275 109.431C30.5273 110.237 27.9886 111.748 26.5956 113.8C25.5966 115.266 25.514 116.539 25.5049 116.668L25.8715 127.385Z" fill="#FFEC5F"/>
<path d="M33.8989 112.463L72.135 115.688C74.747 115.907 76.7359 118.133 76.6626 120.753L76.4059 129.685" fill="#FFEC5F"/>
<path d="M76.4067 130.198C76.3975 130.198 76.3975 130.198 76.3883 130.198C76.1042 130.188 75.8842 129.959 75.8934 129.675L76.15 120.744C76.2142 118.39 74.4361 116.393 72.0899 116.2L33.8537 112.976C33.5788 112.948 33.368 112.71 33.3955 112.426C33.423 112.152 33.6612 111.941 33.9454 111.968L72.1816 115.193C75.0594 115.44 77.2498 117.886 77.1673 120.781L76.9107 129.712C76.9107 129.978 76.6816 130.198 76.4067 130.198Z" fill="#FFEC5F"/>
<path d="M132.333 40.9932C132.333 40.9932 127.925 40.5993 124.396 54.6973C120.867 68.7953 114.507 95.2232 114.507 95.2232" fill="#FFEC5F"/>
<path d="M114.507 95.7361C114.47 95.7361 114.424 95.727 114.388 95.7178C114.113 95.6537 113.948 95.3788 114.012 95.104C114.076 94.8384 120.418 68.5112 123.901 54.569C125.385 48.6422 127.2 44.4834 129.308 42.2116C130.976 40.4161 132.231 40.4711 132.369 40.4894L132.277 41.4971H132.286C132.25 41.4971 128.208 41.5062 124.872 54.8163C121.39 68.7494 115.047 95.0766 114.983 95.3422C114.947 95.5804 114.736 95.7361 114.507 95.7361Z" fill="#FFEC5F"/>
<path d="M27.202 155.6C26.3038 155.6 25.424 155.288 24.7183 154.702C23.8384 153.969 23.3252 152.888 23.316 151.743L23.3068 151.01C23.2885 148.986 24.6541 147.218 26.6154 146.723L31.1887 145.569L37.2561 141.722C37.4944 141.575 37.8059 141.639 37.9525 141.877C38.0991 142.115 38.0351 142.427 37.7968 142.573L31.6561 146.467C31.6103 146.494 31.5646 146.512 31.5096 146.531L26.8629 147.713C25.3506 148.097 24.3058 149.453 24.315 151.01L24.3241 151.743C24.3333 152.595 24.7091 153.392 25.3598 153.932C26.0105 154.473 26.8629 154.702 27.7061 154.555L44.1115 151.652C45.028 151.487 45.6512 150.671 45.5687 149.746L44.9454 142.802C44.9179 142.528 45.1287 142.28 45.4037 142.253C45.6878 142.225 45.9262 142.436 45.9537 142.711L46.5768 149.655C46.7051 151.111 45.7245 152.403 44.2856 152.65L27.8802 155.554C27.6602 155.581 27.4311 155.6 27.202 155.6Z" fill="#242424"/>
<path d="M46.0186 153.227L25.5717 157.047C25.0585 157.148 24.5543 156.8 24.4627 156.287L24.2611 155.215C24.1602 154.702 24.5085 154.198 25.0217 154.106L45.4687 150.286C45.9819 150.186 46.486 150.534 46.5776 151.047L46.7792 152.119C46.88 152.632 46.5318 153.126 46.0186 153.227Z" fill="white"/>
<path d="M46.8622 152.092C46.8805 151.927 46.8896 151.763 46.8896 151.598C46.9813 148.291 45.7441 142.575 41.7114 142.016C40.2725 141.814 38.8427 142.364 37.4954 142.895C35.2408 143.793 32.9772 144.691 30.7226 145.579C28.6879 146.385 26.5615 147.256 25.141 148.914C23.7387 150.544 23.1889 152.88 23.7021 154.969C23.9129 155.821 24.3437 156.682 25.1136 157.085C25.9109 157.506 26.8731 157.35 27.7622 157.185C33.3437 156.141 38.9344 155.088 44.5159 154.043C45.3499 153.888 46.3214 153.695 46.6788 152.825C46.7888 152.596 46.8347 152.349 46.8622 152.092Z" fill="white" stroke="#242424" stroke-width="2.75" stroke-miterlimit="10"/>
<path d="M29.0537 158.321C28.6596 158.321 28.2654 158.238 27.8897 158.064L12.7309 151.157C11.6861 150.681 10.907 149.774 10.5953 148.665C10.2837 147.557 10.4763 146.384 11.1178 145.432L11.5302 144.827C12.6667 143.151 14.7838 142.464 16.6901 143.169L21.1167 144.809L28.3022 145.074C28.5863 145.084 28.797 145.322 28.7878 145.597C28.7787 145.871 28.5404 146.091 28.2655 146.082L20.9976 145.807C20.9426 145.807 20.8877 145.798 20.8419 145.78L16.3418 144.113C14.8754 143.572 13.2441 144.094 12.3734 145.386L11.9609 145.991C11.4843 146.696 11.3469 147.566 11.5761 148.381C11.8052 149.197 12.3826 149.865 13.1524 150.223L28.3113 157.13C29.1545 157.514 30.1443 157.194 30.5934 156.388L34.0119 150.314C34.1494 150.067 34.461 149.985 34.6993 150.122C34.9468 150.259 35.0292 150.571 34.8918 150.809L31.4732 156.882C30.96 157.808 30.0343 158.321 29.0537 158.321Z" fill="#242424"/>
<path d="M28.9804 159.529L9.97215 151.083C9.49557 150.873 9.27558 150.305 9.48637 149.828L9.92628 148.83C10.1371 148.354 10.7053 148.134 11.1819 148.344L30.1901 156.79C30.6667 157.001 30.8867 157.569 30.6759 158.045L30.236 159.044C30.0252 159.529 29.4569 159.74 28.9804 159.529Z" fill="white"/>
<path d="M31.6841 156.855C32.014 155.957 32.3439 155.059 32.683 154.152C33.0221 153.227 33.5629 152.219 33.7462 151.258C34.0395 149.755 32.5823 148.225 31.3817 147.529C30.181 146.824 28.7879 146.522 27.4315 146.219C24.1138 145.486 20.7961 144.754 17.4783 144.021C16.3969 143.783 15.2788 143.544 14.2065 143.783C13.1617 144.021 12.2543 144.689 11.5486 145.505C10.8429 146.32 10.3297 147.273 9.81642 148.207C9.39483 148.986 8.95496 149.911 9.29407 150.735C9.58735 151.432 10.3296 151.798 11.0262 152.109C16.3235 154.482 21.6118 156.855 26.9091 159.218C27.7065 159.575 28.5772 159.942 29.4203 159.722C30.6301 159.41 31.2258 158.082 31.6565 156.91C31.6749 156.891 31.6749 156.873 31.6841 156.855Z" fill="white" stroke="#242424" stroke-width="2.75" stroke-miterlimit="10"/>
<path d="M73.1466 72.8163C75.8869 63.1704 81.2393 58.984 81.2393 58.984L87.5449 54.4129L87.1232 52.6633C83.393 53.0481 79.9745 50.1533 79.5713 46.2327L77.7383 36.9897L77.7291 36.889C77.225 32.0706 80.1945 26.6567 85.2261 25.7132C85.2261 25.7132 95.0142 23.2765 97.9012 33.2431C98.3686 34.8462 98.4053 36.5409 98.1212 38.1898C97.7362 40.4341 96.9664 43.9242 95.5459 46.8922L97.4063 52.2144C97.4063 52.2144 97.6721 53.616 101.879 54.8527C102.484 55.0267 103.089 55.2282 103.666 55.4847C107.048 57.0145 115.489 62.5108 113.399 82.3157C111.053 104.53 102.658 110.237 95.5459 112.307L69.7923 115.367C69.7923 115.367 36.1202 152.576 35.9735 152.741C32.9491 156.085 27.221 149.581 25.6538 147.282C24.7189 145.917 24.0133 144.158 24.9847 142.628L33.4989 129.062L38.1365 103.202C38.6497 99.9405 40.9867 97.2656 44.1486 96.3221L68.5366 89.0487L73.1466 72.8163Z" fill="white" stroke="#242424" stroke-width="2.75" stroke-miterlimit="10"/>
<path d="M35.0108 154.482C34.8917 154.482 34.7726 154.445 34.6809 154.363L23.3805 144.68C23.1881 144.515 23.1422 144.231 23.2888 144.012L33.2878 129.08L37.6503 103.11C38.1911 99.6841 40.6931 96.8261 44.02 95.8276L68.1422 88.6366L72.6605 72.6882C75.41 62.9965 80.7073 58.7643 80.9273 58.5903C80.9364 58.5903 80.9365 58.5811 80.9456 58.5811L86.9762 54.2024L86.7379 53.1948C84.9508 53.268 83.2002 52.6543 81.7797 51.4451C80.2491 50.1443 79.2867 48.3214 79.0759 46.3061L77.2521 37.0815C77.2521 37.0723 77.2521 37.0632 77.2429 37.0449L77.2339 36.9441C76.9681 34.425 77.6096 31.7409 78.9751 29.5699C80.4507 27.2248 82.632 25.6767 85.1157 25.2096C85.3449 25.1546 87.7002 24.6233 90.4589 25.2096C93.0984 25.7775 96.5994 27.518 98.2491 32.6295C98.8265 34.4066 98.9548 36.3578 98.634 38.2632C98.2308 40.5991 97.4701 43.9793 96.1045 46.9198L97.8916 52.0497C97.9008 52.0863 97.91 52.0772 97.91 52.1047C97.965 52.2421 98.5332 53.3322 101.988 54.349C103.666 54.8437 105.187 55.5856 106.498 56.5475C110.796 59.717 115.562 66.7706 113.921 82.3617C111.474 105.583 102.355 110.851 95.7104 112.784C95.6829 112.793 95.6554 112.793 95.6279 112.802L70.0576 115.834L35.405 154.308C35.2858 154.427 35.1483 154.482 35.0108 154.482ZM22.9497 144.809L32.9212 155.325L69.4253 115.019C69.5078 114.927 69.6178 114.872 69.7461 114.854L95.4629 111.803C101.823 109.935 110.53 104.823 112.913 82.2518C114.508 67.137 109.98 60.3766 105.893 57.3628C104.683 56.465 103.271 55.778 101.704 55.32C97.6534 54.1291 97.0302 52.7276 96.9294 52.352L95.078 47.0481C95.0322 46.9199 95.0414 46.7824 95.0964 46.6633C96.4711 43.787 97.2318 40.4159 97.6259 38.0892C97.9284 36.3487 97.8001 34.5624 97.2777 32.941C96.077 29.2127 93.7033 26.9409 90.2389 26.1989C87.6269 25.6401 85.3632 26.1897 85.3449 26.1989C85.3357 26.1989 85.3265 26.1989 85.3173 26.208C80.3499 27.1424 77.7746 32.4463 78.2328 36.8342L78.242 36.9075L80.0658 46.1412C80.0658 46.1595 80.075 46.1687 80.075 46.187C80.2583 47.955 81.0923 49.5489 82.4303 50.6848C83.7593 51.8115 85.409 52.3428 87.0679 52.1688C87.3245 52.1413 87.5536 52.3062 87.6177 52.5535L88.0393 54.3032C88.0851 54.5047 88.0118 54.7154 87.8469 54.8345L81.5505 59.4056C81.3581 59.5613 76.2532 63.7568 73.6412 72.9722L69.0403 89.1862C68.9945 89.3511 68.8662 89.4885 68.7012 89.5343L44.3133 96.8078C41.353 97.6872 39.135 100.234 38.6493 103.284L34.2685 129.364C34.2594 129.437 34.2318 129.501 34.186 129.566L22.9497 144.809Z" fill="#242424" stroke="#242424" stroke-width="0.8157" stroke-miterlimit="10"/>
<path d="M95.7471 37.7502C96.5719 38.1258 97.2135 39.0602 97.3326 40.2144L95.7471 37.7502Z" fill="#FFEC5F"/>
<path d="M97.3318 40.7182C97.0752 40.7182 96.8553 40.5258 96.8278 40.2602C96.727 39.3259 96.2228 38.5198 95.5354 38.2083C95.2788 38.0892 95.1688 37.7961 95.2788 37.5396C95.3979 37.2831 95.6912 37.1732 95.9478 37.2831C96.9744 37.7503 97.6985 38.8495 97.836 40.1503C97.8634 40.4251 97.6618 40.6816 97.3869 40.709C97.3685 40.7182 97.3501 40.7182 97.3318 40.7182Z" fill="#242424"/>
<path d="M94.9769 38.0983L94.9402 38.6571C95.3527 38.364 95.6735 37.9335 96.1317 38.1442C96.9566 38.5197 97.2132 39.0694 97.3415 40.2236C97.5064 41.7992 97.2315 43.0725 95.9759 43.2007L96.9199 43.1549L95.3893 47.0023C95.3893 47.0023 93.0706 52.6726 86.9025 52.7093C80.7345 52.7551 79.4881 46.9107 79.7356 45.6282L84.7488 45.0512C84.7488 45.0512 87.48 44.3916 88.8914 45.6282C89.6704 46.3153 93.4646 46.0405 94.0878 43.3931" fill="#242424"/>
<path d="M98.2674 39.6282C99.0922 39.4084 97.8916 36.303 97.7724 36.6144C97.5341 37.219 97.1034 38.0893 97.4058 38.7397C97.8824 39.7931 97.8092 41.0023 97.6259 42.1474C97.1401 45.0879 95.9303 47.9734 93.8316 50.0987C91.7328 52.2239 88.7083 53.5155 85.748 53.14C82.7877 52.7644 80.0383 50.5659 79.3784 47.6528C79.2135 46.9292 79.2043 46.0772 79.7267 45.5368C80.13 45.1154 80.7348 44.9871 81.3122 44.8863C82.6686 44.639 84.0434 44.3825 85.4273 44.3825C86.8112 44.3825 88.2225 44.6573 89.3956 45.381C89.7164 45.5825 90.083 45.8207 90.4496 45.7016C90.8529 45.5642 93.3275 43.4848 93.3825 43.0634C93.5933 41.4878 93.1717 39.6282 93.3825 38.0526C93.5291 36.9442 93.8132 36.1014 95.0138 35.8083C97.0026 35.3319 94.6838 38.9687 95.4628 38.6572L98.2674 39.6282ZM80.2033 46.0772C80.2216 46.9108 80.6157 48.5872 81.7796 49.9979C83.0077 51.4728 84.7215 52.2056 86.8845 52.1964C92.6492 52.1598 94.8855 46.8558 94.9038 46.8009L96.1411 43.6863L95.9853 43.6955C95.7104 43.7138 95.4721 43.5031 95.4538 43.2283C95.4354 42.9535 95.6371 42.7153 95.9028 42.6878C96.2969 42.642 96.5444 42.4588 96.691 42.0649C96.8468 41.6527 96.8927 41.0481 96.8102 40.2695C96.7094 39.3351 96.2052 38.529 95.5179 38.2175C95.2704 38.1076 94.9863 38.1168 94.7389 38.2358L94.5281 38.8496C94.4823 38.987 94.3722 39.1061 94.2348 39.161H94.4364C94.3722 39.958 94.0148 43.0909 93.5107 45.2436C93.2357 46.4253 91.2287 46.7001 90.6147 46.9017C89.8173 47.1582 89.0933 46.5169 88.5709 46.0497L88.525 46.0131C87.3336 44.9596 84.859 45.5367 84.8407 45.5459C84.8224 45.5551 84.8041 45.5551 84.7766 45.5551L80.2033 46.0772Z" fill="#242424"/>
<path d="M73.8503 96.9088L46.2086 96.1851C45.6587 96.1668 45.228 95.7087 45.2372 95.1683L43.23 76.7282C43.2483 76.1786 43.7065 75.7481 44.2473 75.7572L71.889 76.4809C72.4389 76.4992 72.8697 76.9572 72.8605 77.4977L74.8676 95.9378C74.8493 96.4874 74.391 96.9179 73.8503 96.9088Z" fill="#242424" stroke="#242424" stroke-width="2.75" stroke-miterlimit="10" stroke-linecap="round" stroke-linejoin="round"/>
<path d="M73.8787 98.2827C73.8695 98.2827 73.8511 98.2827 73.842 98.2827L46.2002 97.5591C45.797 97.5499 45.4305 97.385 45.1555 97.0919C44.8897 96.8079 44.743 96.4415 44.743 96.0568L42.7451 77.6443C42.7451 77.626 42.7451 77.5985 42.7451 77.5801C42.7543 77.1771 42.9193 76.8107 43.2125 76.5359C43.5058 76.2611 43.8815 76.1145 44.2848 76.1236L71.9265 76.8473C72.7422 76.8656 73.3929 77.5343 73.3837 78.3496L75.3817 96.7621C75.3817 96.7804 75.3817 96.8079 75.3817 96.8262C75.3726 97.2293 75.2076 97.5957 74.9143 97.8705C74.621 98.1362 74.2636 98.2827 73.8787 98.2827ZM43.7441 77.5801L45.742 95.9835C45.742 96.0018 45.742 96.0293 45.742 96.0476C45.742 96.1758 45.7878 96.3041 45.8795 96.3957C45.9711 96.4873 46.0903 96.5422 46.2186 96.5514L73.8603 97.2751C74.1261 97.2843 74.3369 97.0827 74.3553 96.8262L72.3572 78.4229C72.3572 78.4046 72.3572 78.3771 72.3572 78.3588C72.3664 78.0931 72.1556 77.8641 71.8806 77.8641L44.239 77.1405C44.1107 77.1405 43.9824 77.1863 43.8907 77.2779C43.8083 77.3511 43.7532 77.4611 43.7441 77.5801Z" fill="#242424"/>
<path d="M83.841 98.7864L46.5763 97.8154C46.1272 97.8063 45.7698 97.4307 45.779 96.9818C45.7881 96.533 46.1639 96.1757 46.613 96.1849L83.8777 97.1559C84.3267 97.165 84.6842 97.5406 84.675 97.9895C84.6658 98.4383 84.29 98.7956 83.841 98.7864Z" fill="#242424" stroke="#242424" stroke-width="2.75" stroke-miterlimit="10" stroke-linecap="round" stroke-linejoin="round"/>
<path d="M83.8584 100.162C83.8493 100.162 83.8309 100.162 83.8218 100.162L46.5573 99.1906C46.209 99.1815 45.8791 99.0349 45.6316 98.7784C45.3842 98.522 45.2559 98.183 45.2651 97.8349C45.2743 97.4868 45.4209 97.157 45.6775 96.9097C45.9341 96.6624 46.2732 96.5341 46.6215 96.5433L83.8859 97.5143C84.2341 97.5235 84.5641 97.67 84.8115 97.9265C85.059 98.183 85.1873 98.522 85.1781 98.8701C85.169 99.2182 85.0224 99.5479 84.7658 99.7952C84.5275 100.033 84.1975 100.162 83.8584 100.162ZM46.6031 97.5601C46.5207 97.5601 46.4474 97.5876 46.3924 97.6425C46.3282 97.6975 46.3007 97.78 46.2916 97.8624C46.2916 98.0273 46.429 98.1739 46.594 98.183L83.8584 99.154C83.9409 99.154 84.0234 99.1265 84.0784 99.0716C84.1425 99.0166 84.17 98.9342 84.1792 98.8517C84.1884 98.7693 84.1517 98.6868 84.0967 98.6319C84.0418 98.5678 83.9593 98.5403 83.8768 98.5311L46.6031 97.5601Z" fill="#242424"/>
<path d="M33.7637 129.263L49.7841 107.599C49.7841 107.599 55.7506 97.8979 68.6091 98.5208" fill="white"/>
<path d="M33.7637 129.263L49.7841 107.599C49.7841 107.599 55.7506 97.8979 68.6091 98.5208" stroke="#242424" stroke-width="2.75" stroke-miterlimit="10"/>
<path d="M113.646 78.2946C113.123 80.6213 105.975 99.7484 103.693 101.919C102.474 103.074 101.007 103.394 99.7516 103.394C98.2761 103.394 97.0937 102.945 96.9471 102.89L78.2873 96.4598L75.1896 98.475C75.0429 98.5666 74.8505 98.585 74.6947 98.5117C74.5389 98.4384 74.4289 98.2827 74.4106 98.1086L73.5857 90.2032C73.5765 90.0841 73.6041 89.965 73.6683 89.8642C75.2171 87.6199 78.7456 88.4077 78.8922 88.4444C78.9014 88.4444 78.9014 88.4444 78.9106 88.4444L95.5541 92.9147C95.6183 92.933 95.6732 92.9605 95.719 92.9971" fill="white"/>
<path d="M113.646 78.2946C113.123 80.6213 105.975 99.7484 103.693 101.919C102.474 103.074 101.007 103.394 99.7516 103.394C98.2761 103.394 97.0937 102.945 96.9471 102.89L78.2873 96.4598L75.1896 98.475C75.0429 98.5666 74.8505 98.585 74.6947 98.5117C74.5389 98.4384 74.4289 98.2827 74.4106 98.1086L73.5857 90.2032C73.5765 90.0841 73.6041 89.965 73.6683 89.8642C75.2171 87.6199 78.7456 88.4077 78.8922 88.4444C78.9014 88.4444 78.9014 88.4444 78.9106 88.4444L95.5541 92.9147C95.6183 92.933 95.6732 92.9605 95.719 92.9971" stroke="#242424" stroke-width="2.75" stroke-miterlimit="10" stroke-linecap="round" stroke-linejoin="round"/>
<path d="M99.8525 73.7509L95.7559 92.9879" stroke="#242424" stroke-width="2.6632" stroke-miterlimit="10" stroke-linecap="round" stroke-linejoin="round"/>
<path d="M79.7991 71.8364C78.0396 82.7373 77.0773 87.4549 77.0132 87.6015L79.7991 71.8364Z" fill="white"/>
<path d="M79.7991 71.8364C78.0396 82.7373 77.0773 87.4549 77.0132 87.6015" stroke="#242424" stroke-width="2.6632" stroke-miterlimit="10" stroke-linecap="round" stroke-linejoin="round"/>
<path d="M96.6451 44.1444C96.306 44.1444 95.9578 44.0894 95.6187 43.9795C95.0963 43.8146 94.748 43.3291 94.748 42.7795L94.7572 38.1076C94.7572 37.5855 95.078 37.1183 95.5637 36.9351C95.9303 36.7885 96.306 36.7244 96.6726 36.7244C98.5331 36.7244 99.7153 38.4374 99.8803 40.0588C99.9994 41.1855 99.642 42.3306 98.9271 43.1184C98.3131 43.778 97.5066 44.1444 96.6451 44.1444Z" fill="white"/>
<path d="M96.6635 37.9793C97.7541 37.9793 98.5056 39.0969 98.6248 40.1778C98.7623 41.4969 97.9466 42.8893 96.6451 42.8893C96.4435 42.8893 96.2328 42.8527 96.0036 42.7794L96.0128 38.1076C96.2328 38.016 96.4527 37.9793 96.6635 37.9793ZM96.6635 35.4602C96.1411 35.4602 95.6096 35.561 95.0963 35.7625C94.1248 36.1381 93.4833 37.0724 93.4833 38.1076L93.4741 42.7794C93.4741 43.8695 94.1798 44.8405 95.2155 45.1794C95.6829 45.3352 96.1594 45.4084 96.636 45.4084C97.8641 45.4084 99.0005 44.8955 99.8437 43.9611C100.797 42.9076 101.273 41.3962 101.118 39.9213C100.861 37.3747 98.9455 35.4602 96.6635 35.4602Z" fill="#242424"/>
<path d="M82.3651 96.8534C81.0911 99.7115 85.8664 98.0717 84.629 89.3968" stroke="#242424" stroke-width="2.765" stroke-miterlimit="10"/>
<path d="M85.3726 56.2545C85.8033 57.8667 87.4897 58.8927 89.1486 59.0667C93.1904 59.4973 97.3971 56.8774 100.587 54.7064" stroke="#242424" stroke-width="2.6632" stroke-miterlimit="10" stroke-linecap="round" stroke-linejoin="round"/>
<path d="M77.812 97.1191C95.143 101.241 98.0849 107.855 99.8537 110.402" stroke="#242424" stroke-width="2.75" stroke-miterlimit="10" stroke-linecap="round" stroke-linejoin="round"/>
<path d="M39.1331 39.6832H18.3837C16.9723 39.6832 15.8633 38.4374 16.0008 36.9901L18.1454 14.6935C18.2645 13.4385 19.3002 12.4858 20.5283 12.4858H36.9977C38.2258 12.4858 39.2614 13.4385 39.3806 14.6935L41.5251 36.9901C41.6626 38.4374 40.5537 39.6832 39.1331 39.6832Z" fill="white" stroke="#242424" stroke-width="2.9485" stroke-miterlimit="10"/>
</svg>
