<svg width="28" height="36" viewBox="0 0 28 36" fill="none" xmlns="http://www.w3.org/2000/svg">
<path fill-rule="evenodd" clip-rule="evenodd" d="M2.3962 3.63073L12.8657 0.175788C13.576 -0.0585959 14.3428 -0.0585961 15.053 0.175788L25.5225 3.63073L24.7934 5.8401L14.3239 2.38516C14.0872 2.30703 13.8316 2.30703 13.5948 2.38516L3.1253 5.8401C2.64859 5.99742 2.32656 6.4509 2.32656 6.9529V14.8283C2.32656 23.9019 11.6974 33.6734 13.9594 33.6734C16.2213 33.6734 25.5922 23.7623 25.5922 14.8283V6.95139C25.5922 6.44939 25.2702 5.99742 24.7934 5.8401L25.5225 3.63073C26.9673 4.10749 27.9187 5.46084 27.9187 6.95139V14.8283C27.9187 20.0189 25.245 25.2189 22.5028 28.9734C21.1065 30.885 19.6152 32.5288 18.2811 33.7204C17.6174 34.3132 16.9512 34.8313 16.3205 35.2161C15.7911 35.5392 14.9255 36 13.9594 36C13.002 36 12.1412 35.5491 11.6091 35.2285C10.978 34.8481 10.3112 34.3356 9.64652 33.7479C8.31049 32.5668 6.81731 30.935 5.41916 29.0301C2.6701 25.2846 0 20.0853 0 14.8283V6.9529C0 5.46586 0.948192 4.10858 2.3962 3.63073Z" fill="white"/>
<path fill-rule="evenodd" clip-rule="evenodd" d="M14.6183 24.9243C17.352 24.72 19.7347 23.2561 21.1876 21.111C20.1718 21.6161 19.0532 21.9532 17.8704 22.0846C17.0219 23.253 15.9097 24.227 14.6183 24.9243ZM15.7518 22.0973C14.9157 22.9423 13.8889 23.6072 12.7389 24.026C11.2451 22.8709 10.1773 21.2158 9.80221 19.3204C11.3537 20.8488 13.4329 21.8679 15.7518 22.0973ZM18.8989 20.2812C20.2488 19.9226 21.459 19.2341 22.4326 18.3103C22.5966 17.6419 22.6836 16.9432 22.6836 16.2242C22.6836 13.9239 21.7933 11.8315 20.3385 10.2727C19.5391 10.0172 18.685 9.87901 17.7978 9.87901C17.4821 9.87901 17.1707 9.8965 16.8644 9.93055C18.5931 11.6474 19.6591 13.9997 19.6591 16.5944C19.6591 17.9016 19.3885 19.1473 18.8989 20.2812ZM14.9464 10.3789C16.8255 11.8318 18.0305 14.076 18.0305 16.5944C18.0305 18.0382 17.6344 19.3918 16.9424 20.558C16.8787 20.5594 16.8149 20.5601 16.7509 20.5601C13.7665 20.5601 11.1571 18.9964 9.73925 16.6642C10.1699 13.7664 12.2091 11.3757 14.9464 10.3789ZM15.231 8.62448C14.5309 8.17823 13.7684 7.81714 12.959 7.55632C13.2871 7.51887 13.6208 7.49963 13.959 7.49963C15.2596 7.49963 16.4938 7.78424 17.6026 8.29458C16.7834 8.31021 15.9889 8.42404 15.231 8.62448ZM13.2663 9.37582C11.2451 10.4081 9.6407 12.1095 8.76316 14.1779C8.6613 13.6769 8.60789 13.1588 8.60789 12.6286C8.60789 11.1849 9.00394 9.83119 9.696 8.66506C9.75965 8.66363 9.82349 8.66291 9.8875 8.66291C11.0929 8.66291 12.2371 8.91802 13.2663 9.37582ZM5.23438 16.2242C5.23438 19.871 7.47182 22.9952 10.6488 24.299C9.02176 22.599 8.02624 20.318 8.02624 17.8105C8.02624 17.5334 8.0384 17.2591 8.06222 16.988C7.37011 15.6819 6.9793 14.1997 6.9793 12.6286C6.9793 11.9829 7.04532 11.3522 7.17115 10.7425C5.95984 12.2406 5.23438 14.1477 5.23438 16.2242Z" fill="white"/>
</svg>
