<svg width="19" height="24" viewBox="0 0 19 24" fill="none" xmlns="http://www.w3.org/2000/svg">
<mask id="mask0_1225_3158" style="mask-type:alpha" maskUnits="userSpaceOnUse" x="0" y="0" width="19" height="24">
<path d="M10.2827 1.68C10.952 1.68 11.0737 1.92 11.1345 2.04C11.2562 2.22 11.2562 2.52 11.2562 2.64V10.5C11.2562 10.8 11.4996 11.04 11.8038 11.04C12.108 11.04 12.3514 10.8 12.3514 10.5V3.3C12.3514 3.18 12.4122 2.58 13.3249 2.58C14.1767 2.58 14.2375 3.24 14.2984 3.42V10.98C14.2984 11.28 14.5417 11.52 14.846 11.52C15.1502 11.52 15.3936 11.28 15.3936 10.98L15.4544 6.18C15.4544 6 15.5761 5.1 16.4887 5.1C16.7321 5.1 16.9755 5.16 17.0972 5.34C17.4014 5.64 17.4014 6.18 17.4014 6.36C17.4014 6.36 17.4014 6.36 17.4014 6.42V16.86C17.4014 16.86 17.4622 19.26 15.8195 20.88C14.7851 21.96 13.264 22.5 11.2562 22.5C11.2562 22.5 11.1954 22.5 11.0737 22.5C10.3435 22.5 7.72727 22.38 6.44955 20.88C4.80677 19.02 2.00797 13.74 1.94713 13.68C1.88628 13.56 1.46038 12.66 2.1905 12.12C2.37303 12 2.49472 11.94 2.67725 11.94C3.04231 11.94 3.40737 12.3 3.52906 12.42L5.41521 14.7C5.5369 14.82 5.65858 14.88 5.84111 14.88C5.90196 14.88 5.9628 14.88 6.02364 14.82C6.26702 14.76 6.38871 14.52 6.38871 14.34V4.14C6.38871 4.14 6.38871 3.66 6.69292 3.36C6.87546 3.18 7.11883 3.12 7.42305 3.12C8.27486 3.12 8.39655 3.72 8.39655 4.08V10.44C8.39655 10.74 8.63992 10.98 8.94414 10.98C9.24836 10.98 9.49173 10.74 9.49173 10.44V4.08C9.49173 4.08 9.49173 4.08 9.49173 4.02V2.46C9.49173 2.46 9.49173 2.46 9.49173 2.4C9.49173 2.4 9.49173 2.04 9.67426 1.8C9.7351 1.74 9.91763 1.68 10.2827 1.68ZM10.2827 0C9.3092 0 8.70076 0.42 8.3357 0.72C8.09233 0.96 7.97064 1.2 7.84895 1.44C7.66642 1.38 7.48389 1.38 7.24052 1.38C6.26702 1.38 5.65858 1.8 5.29352 2.1C4.62424 2.88 4.62424 3.84 4.62424 4.14V11.1C4.32002 10.74 3.5899 10.14 2.6164 10.14C2.06881 10.14 1.58206 10.32 1.09531 10.68C-0.243244 11.64 -0.182401 13.26 0.365192 14.34C0.426035 14.4 3.28568 19.8 5.05015 21.84C6.75377 23.82 9.7351 24 10.952 24C11.0737 24 11.1345 24 11.1953 24C13.6291 24 15.5761 23.28 16.9146 21.9C19.0442 19.8 18.9833 16.8 18.9833 16.68V6.3C18.9833 6 18.9833 4.92 18.1924 4.08C17.8881 3.72 17.2797 3.36 16.3671 3.36C16.1845 3.36 16.0628 3.36 15.8803 3.42V3.36C15.8195 2.16 14.9068 0.96 13.264 0.96C12.9598 0.96 12.7164 1.02 12.4731 1.08C11.9863 0.36 11.2562 0 10.2827 0Z" fill="#242424"/>
</mask>
<g mask="url(#mask0_1225_3158)">
<rect x="-58.8135" y="-56.9632" width="139.866" height="137.926" rx="20" fill="#242424"/>
</g>
</svg>
