<svg width="24" height="21" viewBox="0 0 24 21" fill="none" xmlns="http://www.w3.org/2000/svg">
<mask id="mask0_1431_364" style="mask-type:alpha" maskUnits="userSpaceOnUse" x="0" y="0" width="24" height="21">
<path fill-rule="evenodd" clip-rule="evenodd" d="M2.58 0H21.42C22.86 0 24 1.1831 24 2.54366V18.4563C24 19.8761 22.86 21 21.42 21H2.58C1.14 21 0 19.8761 0 18.4563V2.54366C0 1.1831 1.14 0 2.58 0ZM7.14 2.07042C7.02 2.07042 6.96 2.12958 6.9 2.18873C6.82733 2.26038 6.77667 2.35371 6.72136 2.4556C6.68533 2.52197 6.64733 2.59197 6.6 2.66197C6.6 2.72113 6.6 2.83944 6.66 2.89859C6.72 3.0169 6.78 3.07606 6.84 3.13521C6.9 3.19437 7.02 3.25352 7.08 3.25352C7.14 3.31268 7.26 3.31268 7.32 3.31268C7.38 3.31268 7.5 3.31268 7.56 3.25352C7.68 3.25352 7.74 3.19437 7.8 3.13521C7.87533 3.09808 7.90337 3.03764 7.92865 2.98315C7.94364 2.95083 7.95766 2.92061 7.98 2.89859C8.04 2.83944 8.04 2.72113 8.04 2.66197C8.04 2.48451 7.98 2.30704 7.86 2.18873C7.83 2.15916 7.785 2.14437 7.74 2.12958C7.695 2.11479 7.65 2.1 7.62 2.07042C7.5 2.01127 7.32 2.01127 7.14 2.07042ZM4.62 2.18873L4.44 2.3662C4.44 2.42535 4.425 2.46972 4.41 2.51408C4.395 2.55845 4.38 2.60282 4.38 2.66197C4.38 2.69155 4.395 2.73592 4.41 2.78028C4.425 2.82465 4.44 2.86901 4.44 2.89859C4.5 2.95775 4.56 3.07606 4.56 3.13521C4.62 3.19437 4.74 3.25352 4.8 3.25352C4.86 3.31268 4.98 3.31268 5.04 3.31268C5.1 3.31268 5.22 3.31268 5.28 3.25352C5.4 3.25352 5.46 3.19437 5.52 3.13521C5.58 3.07606 5.64 2.95775 5.64 2.89859C5.7 2.83944 5.7 2.72113 5.7 2.66197C5.7 2.48451 5.64 2.30704 5.52 2.18873C5.34 2.01127 5.04 1.95211 4.8 2.07042C4.74 2.07042 4.68 2.12958 4.62 2.18873L4.62 2.18873ZM2.58 2.07042C2.46 2.07042 2.4 2.12958 2.34 2.18873C2.16 2.30704 2.1 2.48451 2.1 2.66197C2.1 2.69155 2.115 2.73592 2.13 2.78028C2.145 2.82465 2.16 2.86901 2.16 2.89859C2.19 2.92817 2.22 2.97254 2.25 3.0169C2.28 3.06127 2.31 3.10563 2.34 3.13521C2.37 3.16479 2.4 3.17958 2.43 3.19437C2.46 3.20915 2.49 3.22394 2.52 3.25352C2.58 3.31268 2.7 3.31268 2.76 3.31268C2.94 3.31268 3.12 3.25352 3.24 3.13521C3.3 3.07606 3.36 2.95775 3.42 2.83944C3.48 2.78028 3.48 2.66197 3.48 2.60282C3.48 2.54366 3.48 2.42535 3.42 2.3662C3.36 2.30704 3.3 2.24789 3.3 2.18873C3.27 2.15916 3.225 2.14437 3.18 2.12958C3.135 2.11479 3.09 2.1 3.06 2.07042C2.94 2.01127 2.76 2.01127 2.58 2.07042ZM20.52 19.2845C21.48 19.2845 22.2 18.5155 22.2 17.6282V6.92113C22.2 5.97465 21.42 5.26479 20.52 5.26479H3.48C2.52 5.26479 1.8 6.0338 1.8 6.92113V17.6282C1.8 18.5155 2.58 19.2254 3.48 19.2845H20.52ZM7.73987 11.8902C8.03987 11.5352 8.63987 11.5352 8.99987 11.8902L10.6799 13.4282L15.0599 9.10989C15.3599 8.75496 15.9599 8.75496 16.3199 9.10989C16.6799 9.40567 16.6799 9.99722 16.3199 10.3521L11.5799 15.0254C11.2799 15.262 10.9799 15.3803 10.6199 15.3803C10.2599 15.3803 9.89987 15.262 9.65987 15.0254L7.73987 13.1324C7.37987 12.8367 7.37987 12.2451 7.73987 11.8902Z" fill="#242424"/>
</mask>
<g mask="url(#mask0_1431_364)">
<rect x="-57.5996" y="-55.7747" width="137.143" height="135.211" rx="20" fill="#242424"/>
</g>
</svg>
