<svg width="80" height="18" viewBox="0 0 80 18" fill="none" xmlns="http://www.w3.org/2000/svg">
<path fill-rule="evenodd" clip-rule="evenodd" d="M51.4023 13.2721C51.7955 13.6648 52.3083 13.8609 52.9404 13.8609H55.6491V11.8529H53.7917C53.4304 11.8529 53.2499 11.6599 53.2499 11.2737V6.29229H55.8813V4.28426H53.2499V1.31079H50.8121V4.28426L49.514 4.28426L48.413 4.28426L48.3532 4.28426C47.9145 4.28426 47.5448 4.35905 47.216 4.5391C46.887 4.71952 46.6375 4.97935 46.4958 5.36547H46.1475V4.28426H43.7484V13.8609H46.1862V8.41618C46.1862 7.73405 46.3861 7.22871 46.786 6.90043C47.1856 6.57224 47.6096 6.30797 48.3145 6.29229H48.413H49.514H50.8121V11.6984C50.8121 12.355 51.0086 12.8796 51.4023 13.2721ZM39.3027 11.2448C38.8123 11.7274 38.1932 11.9688 37.4453 11.9688C36.6971 11.9688 36.0779 11.7274 35.5879 11.2448C35.0975 10.762 34.8527 10.0703 34.8527 9.16911V8.976C34.8527 8.07521 35.0975 7.3832 35.5879 6.90043C36.0779 6.41776 36.6971 6.17642 37.4453 6.17642C38.2062 6.17642 38.8286 6.41776 39.3124 6.90043C39.796 7.3832 40.0379 8.07521 40.0379 8.976V9.16911C40.0379 10.0703 39.7927 10.762 39.3027 11.2448ZM34.872 13.5521C35.633 13.9382 36.4906 14.1312 37.4453 14.1312C38.3996 14.1312 39.2573 13.9382 40.0185 13.5521C40.7795 13.1659 41.3792 12.6059 41.8179 11.8722C42.2562 11.1385 42.4757 10.257 42.4757 9.22704V8.91816C42.4757 7.88845 42.2562 7.0066 41.8179 6.27298C41.3792 5.53926 40.7795 4.97935 40.0185 4.59323C39.2573 4.20702 38.3996 4.01391 37.4453 4.01391C36.4906 4.01391 35.633 4.20702 34.872 4.59323C34.1108 4.97935 33.511 5.53926 33.0727 6.27298C32.634 7.0066 32.4149 7.88845 32.4149 8.91816V9.22704C32.4149 10.257 32.634 11.1385 33.0727 11.8722C33.511 12.6059 34.1108 13.1659 34.872 13.5521ZM21.8552 13.8609V4.28426H24.2543V5.53926H24.6026C24.7574 5.20473 25.0476 4.88615 25.4732 4.58353C25.8989 4.28127 26.5437 4.12977 27.408 4.12977C28.156 4.12977 28.8108 4.30058 29.3719 4.64146C29.9329 4.9827 30.3683 5.45241 30.6778 6.05095C30.9874 6.64949 31.1421 7.34784 31.1421 8.14583V13.8609H28.7043V8.33885C28.7043 7.61819 28.5269 7.07758 28.1723 6.71703C27.8174 6.35684 27.3113 6.17642 26.6534 6.17642C25.9053 6.17642 25.3248 6.42438 24.9122 6.91974C24.4993 7.41547 24.293 8.10721 24.293 8.99541V13.8609H21.8552ZM77.8479 5.3898V4.27958H78.2488L78.4593 5.19978H78.5094L78.7199 4.27958H79.1208V5.3898H78.9103V4.4696H78.8602L78.6497 5.3898H78.319L78.1085 4.4696H78.0584V5.3898H77.8479ZM77.1162 5.3898V4.4696H76.7454V4.27958H77.6976V4.4696H77.3267V5.3898H77.1162ZM61.3332 11.9688C62.0811 11.9688 62.7003 11.7274 63.1906 11.2448C63.6806 10.762 63.9258 10.0703 63.9258 9.16911V8.976C63.9258 8.07521 63.684 7.3832 63.2003 6.90043C62.7165 6.41776 62.0941 6.17642 61.3332 6.17642C60.585 6.17642 59.9658 6.41776 59.4758 6.90043C58.9854 7.3832 58.7406 8.07521 58.7406 8.976V9.16911C58.7406 10.0703 58.9854 10.762 59.4758 11.2448C59.9658 11.7274 60.585 11.9688 61.3332 11.9688ZM61.3332 14.1312C60.3785 14.1312 59.5209 13.9382 58.7599 13.5521C57.9987 13.1659 57.3989 12.6059 56.9606 11.8722C56.5219 11.1385 56.3028 10.257 56.3028 9.22704V8.91816C56.3028 7.88845 56.5219 7.0066 56.9606 6.27298C57.3989 5.53926 57.9987 4.97935 58.7599 4.59323C59.5209 4.20702 60.3785 4.01391 61.3332 4.01391C62.2875 4.01391 63.1452 4.20702 63.9064 4.59323C64.6674 4.97935 65.2672 5.53926 65.7058 6.27298C66.1441 7.0066 66.3636 7.88845 66.3636 8.91816V9.22704C66.3636 10.257 66.1441 11.1385 65.7058 11.8722C65.2672 12.6059 64.6674 13.1659 63.9064 13.5521C63.1452 13.9382 62.2875 14.1312 61.3332 14.1312ZM67.6363 4.28426V13.8609H70.0741V8.99541C70.0741 8.10721 70.2803 7.41547 70.6932 6.91974C71.1059 6.42438 71.6864 6.17642 72.4345 6.17642C73.0923 6.17642 73.5984 6.35684 73.9533 6.71703C74.308 7.07758 74.4854 7.61819 74.4854 8.33885V13.8609H76.9232V8.14583C76.9232 7.34784 76.7685 6.64949 76.4589 6.05095C76.1494 5.45241 75.714 4.9827 75.1529 4.64146C74.5919 4.30058 73.937 4.12977 73.1891 4.12977C72.3248 4.12977 71.68 4.28127 71.2543 4.58353C70.8287 4.88615 70.5384 5.20473 70.3837 5.53926H70.0354V4.28426H67.6363Z" fill="#242424"/>
<path fill-rule="evenodd" clip-rule="evenodd" d="M18.0372 9.00027C18.0372 13.9628 13.9917 18 9.01889 18C4.04562 18 0 13.9628 0 9.00027C0 4.03727 4.04562 0 9.01889 0C10.3933 0 11.6968 0.308153 12.8637 0.859366L11.3658 2.78508C10.6354 2.50974 9.84479 2.35897 9.01889 2.35897C5.51218 2.35897 2.63067 5.07905 2.3813 8.51642C2.37639 8.58577 2.37258 8.65558 2.36967 8.72584C2.36585 8.81687 2.36385 8.90834 2.36385 9.00027C2.36385 12.662 5.3491 15.641 9.01889 15.641C12.6881 15.641 15.6734 12.662 15.6734 9.00027C15.6734 8.51071 15.6199 8.03311 15.519 7.57383L17.2571 5.33951C17.7584 6.45835 18.0372 7.69758 18.0372 9.00027Z" fill="#FFE01A"/>
<path fill-rule="evenodd" clip-rule="evenodd" d="M16.1987 3.56022L14.6795 5.5124L9.34685 12.3674L4.99634 8.48614L6.57145 6.72752L9.03324 8.92376L13.0701 3.73501L14.5189 1.87231C15.1504 2.35861 15.7157 2.92669 16.1987 3.56022Z" fill="#242424"/>
</svg>
