<svg width="24" height="23" viewBox="0 0 24 23" fill="none" xmlns="http://www.w3.org/2000/svg">
<path fill-rule="evenodd" clip-rule="evenodd" d="M12.4497 18.4641H3.12745C2.28544 18.4641 1.62387 17.8065 1.62387 16.9696V7.16524C1.62387 6.32828 2.28544 5.67067 3.12745 5.67067H18.5843H18.7046C19.0654 4.29567 20.2683 3.27937 21.7719 3.1598C21.7719 1.90437 20.6893 0.888062 19.4263 0.888062H2.34559C1.02244 0.888062 0 1.90437 0 3.21958V17.8065C0 19.062 1.02244 20.1381 2.34559 20.1381H12.7504C12.5699 19.5402 12.4497 19.0022 12.4497 18.4641ZM6.2549 2.86089C6.31504 2.80111 6.37518 2.74132 6.43533 2.74132C6.55561 2.68154 6.73604 2.68154 6.91647 2.74132C6.94655 2.77121 6.97662 2.78616 7.00669 2.80111C7.03676 2.81605 7.06683 2.831 7.0969 2.86089C7.21719 2.98045 7.27733 3.10002 7.27733 3.27937C7.27733 3.33915 7.27733 3.45871 7.21719 3.5185C7.18712 3.54839 7.17208 3.57828 7.15705 3.60817C7.14201 3.63806 7.12698 3.66795 7.0969 3.69784C7.03676 3.75763 6.97662 3.81741 6.91647 3.81741C6.85633 3.87719 6.73604 3.87719 6.6759 3.87719C6.61576 3.87719 6.49547 3.87719 6.43533 3.81741C6.37518 3.81741 6.31504 3.75763 6.2549 3.69784C6.19475 3.63806 6.13461 3.57828 6.13461 3.5185C6.07447 3.45871 6.07447 3.33915 6.07447 3.27937C6.07447 3.10002 6.13461 2.98045 6.2549 2.86089ZM4.08974 2.95056C4.07471 2.98045 4.05967 3.01034 4.0296 3.04024C4.0296 3.07013 4.01456 3.11496 3.99953 3.15979L3.99953 3.1598L3.99953 3.1598C3.98449 3.20464 3.96945 3.24948 3.96945 3.27937C3.96945 3.30926 3.98449 3.35409 3.99953 3.39893L3.99953 3.39893C4.01456 3.44377 4.0296 3.48861 4.0296 3.5185C4.05967 3.54839 4.07471 3.57828 4.08974 3.60817C4.10478 3.63806 4.11981 3.66795 4.14988 3.69784L4.14989 3.69785C4.21003 3.75763 4.27017 3.81741 4.33031 3.81741C4.39046 3.87719 4.51074 3.87719 4.57089 3.87719C4.69117 3.87719 4.75132 3.87719 4.8716 3.81741C4.93175 3.81741 4.99189 3.75763 5.05203 3.69784C5.11218 3.63806 5.17232 3.57828 5.17232 3.5185C5.23246 3.45871 5.23246 3.33915 5.23246 3.27937C5.23246 3.1598 5.17232 2.98045 5.05203 2.86089C4.8716 2.68154 4.63103 2.68154 4.39046 2.74132C4.27017 2.74132 4.21003 2.8011 4.14988 2.86089C4.11981 2.89078 4.10478 2.92067 4.08974 2.95056ZM2.10501 2.86089C2.16516 2.80111 2.2253 2.74132 2.28544 2.74132C2.46587 2.68154 2.58616 2.68154 2.76659 2.74132C2.79666 2.77121 2.82673 2.78616 2.8568 2.80111C2.88688 2.81605 2.91695 2.831 2.94702 2.86089C3.00716 2.92067 3.06731 2.98045 3.06731 3.04024C3.12745 3.10002 3.12745 3.21958 3.12745 3.27937C3.12745 3.33915 3.12745 3.45871 3.06731 3.5185C3.06731 3.57828 3.00716 3.63806 2.94702 3.69784C2.82673 3.81741 2.6463 3.87719 2.52602 3.87719C2.46587 3.87719 2.34559 3.87719 2.28544 3.81741C2.2253 3.81741 2.16516 3.75763 2.10501 3.69784L2.10501 3.69784C2.04487 3.63806 1.98473 3.57828 1.98473 3.5185C1.92458 3.45871 1.92458 3.33915 1.92458 3.27937C1.92458 3.10002 1.98473 2.98045 2.10501 2.86089ZM22.0726 4.65437C20.99 4.65437 20.0878 5.55111 20.0878 6.62719C20.0878 7.34458 20.5088 8.06197 21.1704 8.36089V18.4641C21.1704 19.9587 19.9676 21.1544 18.464 21.1544C16.9604 21.1544 15.7575 19.9587 15.7575 18.4641V18.4044H16.8401C16.9003 18.4044 17.0205 18.3446 17.0807 18.2848C17.1408 18.225 17.1408 18.1055 17.0807 18.0457L14.4344 14.1598C14.3742 14.1 14.3141 14.0402 14.254 14.0402H14.1938C14.0735 14.1 14.0134 14.1598 14.0134 14.2794V16.6109V18.1652V18.4641C14.0134 20.9152 15.9981 22.8881 18.464 22.8881C20.9299 22.8881 22.9146 20.9152 22.9146 18.4641V8.36089C23.5762 8.00219 23.9972 7.34458 23.9972 6.62719C24.0573 5.55111 23.1552 4.65437 22.0726 4.65437ZM22.4936 6.62719C22.4936 6.86632 22.3131 7.04567 22.0726 7.04567C21.832 7.04567 21.6516 6.86632 21.6516 6.62719C21.6516 6.38806 21.832 6.20871 22.0726 6.20871C22.3131 6.20871 22.4936 6.38806 22.4936 6.62719Z" fill="#242424"/>
<mask id="mask0_1431_553" style="mask-type:alpha" maskUnits="userSpaceOnUse" x="0" y="0" width="24" height="23">
<path fill-rule="evenodd" clip-rule="evenodd" d="M12.4497 18.4641H3.12745C2.28544 18.4641 1.62387 17.8065 1.62387 16.9696V7.16524C1.62387 6.32828 2.28544 5.67067 3.12745 5.67067H18.5843H18.7046C19.0654 4.29567 20.2683 3.27937 21.7719 3.1598C21.7719 1.90437 20.6893 0.888062 19.4263 0.888062H2.34559C1.02244 0.888062 0 1.90437 0 3.21958V17.8065C0 19.062 1.02244 20.1381 2.34559 20.1381H12.7504C12.5699 19.5402 12.4497 19.0022 12.4497 18.4641ZM6.2549 2.86089C6.31504 2.80111 6.37518 2.74132 6.43533 2.74132C6.55561 2.68154 6.73604 2.68154 6.91647 2.74132C6.94655 2.77121 6.97662 2.78616 7.00669 2.80111C7.03676 2.81605 7.06683 2.831 7.0969 2.86089C7.21719 2.98045 7.27733 3.10002 7.27733 3.27937C7.27733 3.33915 7.27733 3.45871 7.21719 3.5185C7.18712 3.54839 7.17208 3.57828 7.15705 3.60817C7.14201 3.63806 7.12698 3.66795 7.0969 3.69784C7.03676 3.75763 6.97662 3.81741 6.91647 3.81741C6.85633 3.87719 6.73604 3.87719 6.6759 3.87719C6.61576 3.87719 6.49547 3.87719 6.43533 3.81741C6.37518 3.81741 6.31504 3.75763 6.2549 3.69784C6.19475 3.63806 6.13461 3.57828 6.13461 3.5185C6.07447 3.45871 6.07447 3.33915 6.07447 3.27937C6.07447 3.10002 6.13461 2.98045 6.2549 2.86089ZM4.08974 2.95056C4.07471 2.98045 4.05967 3.01034 4.0296 3.04024C4.0296 3.07013 4.01456 3.11496 3.99953 3.15979L3.99953 3.1598L3.99953 3.1598C3.98449 3.20464 3.96945 3.24948 3.96945 3.27937C3.96945 3.30926 3.98449 3.35409 3.99953 3.39893L3.99953 3.39893C4.01456 3.44377 4.0296 3.48861 4.0296 3.5185C4.05967 3.54839 4.07471 3.57828 4.08974 3.60817C4.10478 3.63806 4.11981 3.66795 4.14988 3.69784L4.14989 3.69785C4.21003 3.75763 4.27017 3.81741 4.33031 3.81741C4.39046 3.87719 4.51074 3.87719 4.57089 3.87719C4.69117 3.87719 4.75132 3.87719 4.8716 3.81741C4.93175 3.81741 4.99189 3.75763 5.05203 3.69784C5.11218 3.63806 5.17232 3.57828 5.17232 3.5185C5.23246 3.45871 5.23246 3.33915 5.23246 3.27937C5.23246 3.1598 5.17232 2.98045 5.05203 2.86089C4.8716 2.68154 4.63103 2.68154 4.39046 2.74132C4.27017 2.74132 4.21003 2.8011 4.14988 2.86089C4.11981 2.89078 4.10478 2.92067 4.08974 2.95056ZM2.10501 2.86089C2.16516 2.80111 2.2253 2.74132 2.28544 2.74132C2.46587 2.68154 2.58616 2.68154 2.76659 2.74132C2.79666 2.77121 2.82673 2.78616 2.8568 2.80111C2.88688 2.81605 2.91695 2.831 2.94702 2.86089C3.00716 2.92067 3.06731 2.98045 3.06731 3.04024C3.12745 3.10002 3.12745 3.21958 3.12745 3.27937C3.12745 3.33915 3.12745 3.45871 3.06731 3.5185C3.06731 3.57828 3.00716 3.63806 2.94702 3.69784C2.82673 3.81741 2.6463 3.87719 2.52602 3.87719C2.46587 3.87719 2.34559 3.87719 2.28544 3.81741C2.2253 3.81741 2.16516 3.75763 2.10501 3.69784L2.10501 3.69784C2.04487 3.63806 1.98473 3.57828 1.98473 3.5185C1.92458 3.45871 1.92458 3.33915 1.92458 3.27937C1.92458 3.10002 1.98473 2.98045 2.10501 2.86089ZM22.0726 4.65437C20.99 4.65437 20.0878 5.55111 20.0878 6.62719C20.0878 7.34458 20.5088 8.06197 21.1704 8.36089V18.4641C21.1704 19.9587 19.9676 21.1544 18.464 21.1544C16.9604 21.1544 15.7575 19.9587 15.7575 18.4641V18.4044H16.8401C16.9003 18.4044 17.0205 18.3446 17.0807 18.2848C17.1408 18.225 17.1408 18.1055 17.0807 18.0457L14.4344 14.1598C14.3742 14.1 14.3141 14.0402 14.254 14.0402H14.1938C14.0735 14.1 14.0134 14.1598 14.0134 14.2794V16.6109V18.1652V18.4641C14.0134 20.9152 15.9981 22.8881 18.464 22.8881C20.9299 22.8881 22.9146 20.9152 22.9146 18.4641V8.36089C23.5762 8.00219 23.9972 7.34458 23.9972 6.62719C24.0573 5.55111 23.1552 4.65437 22.0726 4.65437ZM22.4936 6.62719C22.4936 6.86632 22.3131 7.04567 22.0726 7.04567C21.832 7.04567 21.6516 6.86632 21.6516 6.62719C21.6516 6.38806 21.832 6.20871 22.0726 6.20871C22.3131 6.20871 22.4936 6.38806 22.4936 6.62719Z" fill="white"/>
</mask>
<g mask="url(#mask0_1431_553)">
<rect x="-56.5713" y="-56.1666" width="137.143" height="136.32" rx="20" fill="#242424"/>
</g>
</svg>
