<svg width="24" height="21" viewBox="0 0 24 21" fill="none" xmlns="http://www.w3.org/2000/svg">
<path fill-rule="evenodd" clip-rule="evenodd" d="M4.9154 12.4089C4.84376 12.3721 4.75878 12.3721 4.68713 12.4089L4.30276 12.6061C4.11957 12.7001 3.90765 12.5448 3.94216 12.3418L4.012 11.931C4.02582 11.8497 3.99867 11.7668 3.93941 11.7095L3.64056 11.4202C3.49153 11.2759 3.57285 11.0234 3.77806 10.9932L4.19891 10.9313C4.27931 10.9195 4.34894 10.8693 4.38562 10.7968L4.57818 10.4161C4.67068 10.2332 4.93185 10.2332 5.02436 10.4161L5.21692 10.7968C5.2536 10.8693 5.32323 10.9195 5.40363 10.9313L5.82448 10.9932C6.02969 11.0234 6.11101 11.2759 5.96197 11.4202L5.66313 11.7095C5.60387 11.7668 5.57671 11.8497 5.59054 11.931L5.66038 12.3418C5.69489 12.5448 5.48297 12.7001 5.29978 12.6061L4.9154 12.4089Z" fill="#242424"/>
<path fill-rule="evenodd" clip-rule="evenodd" d="M8.37537 12.4089C8.30372 12.3721 8.21874 12.3721 8.14709 12.4089L7.76272 12.6061C7.57953 12.7001 7.36761 12.5448 7.40212 12.3418L7.47196 11.931C7.48578 11.8497 7.45863 11.7668 7.39937 11.7095L7.10052 11.4202C6.95149 11.2759 7.03281 11.0234 7.23802 10.9932L7.65887 10.9313C7.73927 10.9195 7.8089 10.8693 7.84558 10.7968L8.03814 10.4161C8.13064 10.2332 8.39182 10.2332 8.48432 10.4161L8.67688 10.7968C8.71356 10.8693 8.78319 10.9195 8.86359 10.9313L9.28444 10.9932C9.48965 11.0234 9.57097 11.2759 9.42194 11.4202L9.12309 11.7095C9.06383 11.7668 9.03668 11.8497 9.0505 11.931L9.12034 12.3418C9.15485 12.5448 8.94293 12.7001 8.75974 12.6061L8.37537 12.4089Z" fill="#242424"/>
<path fill-rule="evenodd" clip-rule="evenodd" d="M11.8343 12.4089C11.7627 12.3721 11.6777 12.3721 11.6061 12.4089L11.2217 12.6061C11.0385 12.7001 10.8266 12.5448 10.8611 12.3418L10.9309 11.931C10.9448 11.8497 10.9176 11.7668 10.8584 11.7095L10.5595 11.4202C10.4105 11.2759 10.4918 11.0234 10.697 10.9932L11.1179 10.9313C11.1983 10.9195 11.2679 10.8693 11.3046 10.7968L11.4971 10.4161C11.5896 10.2332 11.8508 10.2332 11.9433 10.4161L12.1359 10.7968C12.1725 10.8693 12.2422 10.9195 12.3226 10.9313L12.7434 10.9932C12.9486 11.0234 13.03 11.2759 12.8809 11.4202L12.5821 11.7095C12.5228 11.7668 12.4957 11.8497 12.5095 11.931L12.5793 12.3418C12.6138 12.5448 12.4019 12.7001 12.2187 12.6061L11.8343 12.4089Z" fill="#242424"/>
<path fill-rule="evenodd" clip-rule="evenodd" d="M15.2992 12.4089C15.2275 12.3721 15.1426 12.3721 15.0709 12.4089L14.6865 12.6061C14.5034 12.7001 14.2914 12.5448 14.326 12.3418L14.3958 11.931C14.4096 11.8497 14.3825 11.7668 14.3232 11.7095L14.0244 11.4202C13.8753 11.2759 13.9566 11.0234 14.1618 10.9932L14.5827 10.9313C14.6631 10.9195 14.7327 10.8693 14.7694 10.7968L14.962 10.4161C15.0545 10.2332 15.3156 10.2332 15.4081 10.4161L15.6007 10.7968C15.6374 10.8693 15.707 10.9195 15.7874 10.9313L16.2083 10.9932C16.4135 11.0234 16.4948 11.2759 16.3458 11.4202L16.0469 11.7095C15.9877 11.7668 15.9605 11.8497 15.9743 11.931L16.0442 12.3418C16.0787 12.5448 15.8668 12.7001 15.6836 12.6061L15.2992 12.4089Z" fill="#242424"/>
<path fill-rule="evenodd" clip-rule="evenodd" d="M18.7572 12.4089C18.6856 12.3721 18.6006 12.3721 18.5289 12.4089L18.1446 12.6061C17.9614 12.7001 17.7494 12.5448 17.784 12.3418L17.8538 11.931C17.8676 11.8497 17.8405 11.7668 17.7812 11.7095L17.4824 11.4202C17.3333 11.2759 17.4146 11.0234 17.6199 10.9932L18.0407 10.9313C18.1211 10.9195 18.1907 10.8693 18.2274 10.7968L18.42 10.4161C18.5125 10.2332 18.7737 10.2332 18.8662 10.4161L19.0587 10.7968C19.0954 10.8693 19.165 10.9195 19.2454 10.9313L19.6663 10.9932C19.8715 11.0234 19.9528 11.2759 19.8038 11.4202L19.5049 11.7095C19.4457 11.7668 19.4185 11.8497 19.4323 11.931L19.5022 12.3418C19.5367 12.5448 19.3248 12.7001 19.1416 12.6061L18.7572 12.4089Z" fill="#242424"/>
<path fill-rule="evenodd" clip-rule="evenodd" d="M21.374 0H2.56489C1.16031 0 0 1.14327 0 2.52722V18.4728C0 19.8567 1.16031 21 2.56489 21H21.4351C22.8397 21 24 19.8567 24 18.4728V2.58739C24 1.14327 22.8397 0 21.374 0ZM6.83969 2.16619C6.87023 2.1361 6.91603 2.12106 6.96183 2.10602C7.00763 2.09097 7.05343 2.07593 7.08397 2.04585C7.26717 1.98567 7.45038 1.98567 7.57252 2.04585C7.61917 2.06883 7.65691 2.08303 7.68915 2.09517C7.74131 2.1148 7.77905 2.129 7.81679 2.16619C7.93893 2.28653 8 2.46705 8 2.64756C8 2.70774 8 2.82808 7.93893 2.88825C7.9084 2.91834 7.89313 2.94842 7.87786 2.97851C7.86259 3.0086 7.84733 3.03868 7.81679 3.06877C7.75572 3.12894 7.69466 3.18911 7.63359 3.18911C7.51145 3.30946 7.45038 3.30946 7.32824 3.30946C7.26717 3.30946 7.14504 3.30946 7.08397 3.24928C7.0229 3.24928 6.90076 3.18911 6.90076 3.12894C6.83969 3.06877 6.77862 3.0086 6.77862 2.94842C6.71756 2.88825 6.71756 2.76791 6.71756 2.70774C6.65649 2.46705 6.71756 2.28653 6.83969 2.16619ZM4.51908 2.31662C4.50382 2.3467 4.48855 2.37679 4.45802 2.40688C4.39695 2.46705 4.39695 2.58739 4.39695 2.64756C4.39695 2.70774 4.39695 2.82808 4.45802 2.88825C4.45802 3.0086 4.51908 3.06877 4.64122 3.12894C4.70229 3.18911 4.76336 3.24928 4.82443 3.24928C4.8855 3.30946 5.00763 3.30946 5.0687 3.30946C5.12977 3.30946 5.19084 3.30946 5.31298 3.18911C5.37405 3.18911 5.43511 3.12894 5.49618 3.06877C5.55725 3.0086 5.61832 2.94842 5.61832 2.88825C5.67939 2.82808 5.67939 2.70774 5.67939 2.64756C5.67939 2.46705 5.61832 2.28653 5.49618 2.16619C5.31298 1.98567 5.00763 1.9255 4.76336 2.04585C4.743 2.0659 4.72265 2.07927 4.70229 2.09265C4.66158 2.11939 4.62087 2.14613 4.58015 2.22636C4.54962 2.25645 4.53435 2.28653 4.51908 2.31662ZM2.25954 2.16619C2.29008 2.1361 2.33588 2.12106 2.38168 2.10602C2.42748 2.09097 2.47328 2.07593 2.50382 2.04585C2.68702 1.98567 2.87023 1.98567 2.99237 2.04585C3.0229 2.07593 3.0687 2.09097 3.1145 2.10602C3.16031 2.12106 3.20611 2.1361 3.23664 2.16619C3.29771 2.22636 3.35878 2.28653 3.35878 2.3467C3.41985 2.46705 3.41985 2.58739 3.41985 2.64756C3.41985 2.70774 3.41985 2.82808 3.35878 2.88825C3.35878 3.0086 3.29771 3.06877 3.23664 3.12894C3.1145 3.24928 2.9313 3.30946 2.74809 3.30946C2.68702 3.30946 2.56489 3.30946 2.50382 3.24928C2.44275 3.24928 2.38168 3.18911 2.32061 3.12894C2.19847 3.06877 2.1374 3.0086 2.1374 2.88825C2.07634 2.82808 2.07634 2.70774 2.07634 2.64756C2.07634 2.46705 2.1374 2.28653 2.25954 2.16619ZM20.5191 19.255C21.4351 19.255 22.1679 18.533 22.1679 17.6304V6.91977C22.1679 6.01719 21.4351 5.29513 20.5191 5.29513H3.41985C2.50382 5.29513 1.77099 6.01719 1.77099 6.91977V17.6304C1.77099 18.533 2.50382 19.255 3.41985 19.255H20.5191Z" fill="#242424"/>
<mask id="mask0_1225_3129" style="mask-type:alpha" maskUnits="userSpaceOnUse" x="0" y="0" width="24" height="21">
<path fill-rule="evenodd" clip-rule="evenodd" d="M21.374 0H2.56489C1.16031 0 0 1.14327 0 2.52722V18.4728C0 19.8567 1.16031 21 2.56489 21H21.4351C22.8397 21 24 19.8567 24 18.4728V2.58739C24 1.14327 22.8397 0 21.374 0ZM6.83969 2.16619C6.87023 2.1361 6.91603 2.12106 6.96183 2.10602C7.00763 2.09097 7.05343 2.07593 7.08397 2.04585C7.26717 1.98567 7.45038 1.98567 7.57252 2.04585C7.61917 2.06883 7.65691 2.08303 7.68915 2.09517C7.74131 2.1148 7.77905 2.129 7.81679 2.16619C7.93893 2.28653 8 2.46705 8 2.64756C8 2.70774 8 2.82808 7.93893 2.88825C7.9084 2.91834 7.89313 2.94842 7.87786 2.97851C7.86259 3.0086 7.84733 3.03868 7.81679 3.06877C7.75572 3.12894 7.69466 3.18911 7.63359 3.18911C7.51145 3.30946 7.45038 3.30946 7.32824 3.30946C7.26717 3.30946 7.14504 3.30946 7.08397 3.24928C7.0229 3.24928 6.90076 3.18911 6.90076 3.12894C6.83969 3.06877 6.77862 3.0086 6.77862 2.94842C6.71756 2.88825 6.71756 2.76791 6.71756 2.70774C6.65649 2.46705 6.71756 2.28653 6.83969 2.16619ZM4.51908 2.31662C4.50382 2.3467 4.48855 2.37679 4.45802 2.40688C4.39695 2.46705 4.39695 2.58739 4.39695 2.64756C4.39695 2.70774 4.39695 2.82808 4.45802 2.88825C4.45802 3.0086 4.51908 3.06877 4.64122 3.12894C4.70229 3.18911 4.76336 3.24928 4.82443 3.24928C4.8855 3.30946 5.00763 3.30946 5.0687 3.30946C5.12977 3.30946 5.19084 3.30946 5.31298 3.18911C5.37405 3.18911 5.43511 3.12894 5.49618 3.06877C5.55725 3.0086 5.61832 2.94842 5.61832 2.88825C5.67939 2.82808 5.67939 2.70774 5.67939 2.64756C5.67939 2.46705 5.61832 2.28653 5.49618 2.16619C5.31298 1.98567 5.00763 1.9255 4.76336 2.04585C4.743 2.0659 4.72265 2.07927 4.70229 2.09265C4.66158 2.11939 4.62087 2.14613 4.58015 2.22636C4.54962 2.25645 4.53435 2.28653 4.51908 2.31662ZM2.25954 2.16619C2.29008 2.1361 2.33588 2.12106 2.38168 2.10602C2.42748 2.09097 2.47328 2.07593 2.50382 2.04585C2.68702 1.98567 2.87023 1.98567 2.99237 2.04585C3.0229 2.07593 3.0687 2.09097 3.1145 2.10602C3.16031 2.12106 3.20611 2.1361 3.23664 2.16619C3.29771 2.22636 3.35878 2.28653 3.35878 2.3467C3.41985 2.46705 3.41985 2.58739 3.41985 2.64756C3.41985 2.70774 3.41985 2.82808 3.35878 2.88825C3.35878 3.0086 3.29771 3.06877 3.23664 3.12894C3.1145 3.24928 2.9313 3.30946 2.74809 3.30946C2.68702 3.30946 2.56489 3.30946 2.50382 3.24928C2.44275 3.24928 2.38168 3.18911 2.32061 3.12894C2.19847 3.06877 2.1374 3.0086 2.1374 2.88825C2.07634 2.82808 2.07634 2.70774 2.07634 2.64756C2.07634 2.46705 2.1374 2.28653 2.25954 2.16619ZM20.5191 19.255C21.4351 19.255 22.1679 18.533 22.1679 17.6304V6.91977C22.1679 6.01719 21.4351 5.29513 20.5191 5.29513H3.41985C2.50382 5.29513 1.77099 6.01719 1.77099 6.91977V17.6304C1.77099 18.533 2.50382 19.255 3.41985 19.255H20.5191Z" fill="white"/>
</mask>
<g mask="url(#mask0_1225_3129)">
<rect x="-56.5713" y="-57.1631" width="137.143" height="135.129" rx="20" fill="#242424"/>
</g>
</svg>
