<svg width="24" height="21" viewBox="0 0 24 21" fill="none" xmlns="http://www.w3.org/2000/svg">
<path fill-rule="evenodd" clip-rule="evenodd" d="M2.56489 0.000671387H21.374C22.8397 0.000671387 24 1.14394 24 2.58806V18.4735C24 19.8574 22.8397 21.0007 21.4351 21.0007H2.56489C1.16031 21.0007 0 19.8574 0 18.4735V2.52789C0 1.14394 1.16031 0.000671387 2.56489 0.000671387ZM6.96159 2.1071C6.91579 2.12214 6.86999 2.13718 6.83945 2.16727C6.71732 2.28761 6.65625 2.46813 6.71732 2.70882C6.71732 2.76899 6.71732 2.88933 6.77839 2.94951C6.77839 3.00968 6.83945 3.06985 6.90052 3.13002C6.90052 3.19019 7.02266 3.25036 7.08373 3.25036C7.1448 3.31054 7.26694 3.31054 7.328 3.31054C7.45014 3.31054 7.51121 3.31054 7.63335 3.19019C7.69442 3.19019 7.75549 3.13002 7.81655 3.06985C7.84709 3.03976 7.86236 3.00968 7.87762 2.97959C7.89289 2.9495 7.90816 2.91942 7.93869 2.88933C7.99976 2.82916 7.99976 2.70882 7.99976 2.64865C7.99976 2.46813 7.93869 2.28761 7.81655 2.16727C7.77881 2.13008 7.74107 2.11588 7.68891 2.09625C7.65667 2.08411 7.61893 2.06991 7.57228 2.04693C7.45014 1.98675 7.26694 1.98675 7.08373 2.04693C7.05319 2.07701 7.00739 2.09206 6.96159 2.1071ZM4.45755 2.40765C4.48809 2.37757 4.50336 2.34748 4.51862 2.3174C4.53389 2.28731 4.54916 2.25722 4.57969 2.22714C4.6204 2.14691 4.66112 2.12017 4.70183 2.09342C4.72218 2.08005 4.74254 2.06668 4.7629 2.04662C5.00717 1.92628 5.31251 1.98645 5.49572 2.16697C5.61786 2.28731 5.67893 2.46783 5.67893 2.64834C5.67893 2.70851 5.67893 2.82886 5.61786 2.88903C5.61786 2.9492 5.55679 3.00937 5.49572 3.06954C5.43465 3.12972 5.37358 3.18989 5.31251 3.18989C5.19038 3.31023 5.12931 3.31023 5.06824 3.31023C5.00717 3.31023 4.88503 3.31023 4.82397 3.25006C4.7629 3.25006 4.70183 3.18989 4.64076 3.12972C4.51862 3.06954 4.45755 3.00937 4.45755 2.88903C4.39648 2.82886 4.39648 2.70851 4.39648 2.64834C4.39648 2.58817 4.39648 2.46783 4.45755 2.40765ZM2.38152 2.10662C2.33571 2.12166 2.28991 2.1367 2.25938 2.16679C2.13724 2.28713 2.07617 2.46765 2.07617 2.64816C2.07617 2.70834 2.07617 2.82868 2.13724 2.88885C2.13724 3.0092 2.19831 3.06937 2.32045 3.12954C2.38152 3.18971 2.44258 3.24988 2.50365 3.24988C2.56472 3.31006 2.68686 3.31006 2.74793 3.31006C2.93113 3.31006 3.11434 3.24988 3.23648 3.12954C3.29755 3.06937 3.35861 3.0092 3.35861 2.88885C3.41968 2.82868 3.41968 2.70834 3.41968 2.64816C3.41968 2.58799 3.41968 2.46765 3.35861 2.34731C3.35861 2.28713 3.29755 2.22696 3.23648 2.16679C3.20594 2.1367 3.16014 2.12166 3.11434 2.10662C3.06854 2.09157 3.02274 2.07653 2.9922 2.04645C2.87007 1.98627 2.68686 1.98627 2.50365 2.04645C2.47312 2.07653 2.42732 2.09157 2.38152 2.10662ZM22.1675 17.6312C22.1675 18.5338 21.4346 19.2559 20.5186 19.2559H3.41936C2.50333 19.2559 1.77051 18.5338 1.77051 17.6312V6.92063C1.77051 6.01805 2.50333 5.29599 3.41936 5.29599H20.5186C21.4346 5.29599 22.1675 6.01805 22.1675 6.92063V17.6312ZM7.99219 11.8755C7.99219 9.53135 9.92522 7.67554 12.2548 7.67554C14.5843 7.67554 16.5174 9.53135 16.5174 11.8755C16.5174 14.2197 14.5843 16.0755 12.2548 16.0755C9.87566 16.0755 7.99219 14.2197 7.99219 11.8755ZM13.8904 13.4383C14.0887 13.243 14.0887 12.95 13.8904 12.7546L12.9487 11.8755L13.8904 10.9476C14.0887 10.7523 14.0887 10.4593 13.8904 10.2639C13.6922 10.0686 13.3948 10.0686 13.1965 10.2639L12.2548 11.1918L11.313 10.2639C11.1148 10.0686 10.8174 10.0686 10.6191 10.2639C10.4209 10.4593 10.4209 10.7523 10.6191 10.9476L11.5609 11.8267L10.6191 12.7546C10.4209 12.95 10.4209 13.243 10.6191 13.4383C10.7183 13.536 10.8174 13.5848 10.9661 13.5848C11.1148 13.5848 11.2139 13.536 11.313 13.4383L12.2548 12.5104L13.1965 13.4383C13.2956 13.536 13.3948 13.5848 13.5435 13.5848C13.6922 13.5848 13.7913 13.536 13.8904 13.4383Z" fill="#242424"/>
<mask id="mask0_1225_3179" style="mask-type:alpha" maskUnits="userSpaceOnUse" x="0" y="0" width="24" height="22">
<path fill-rule="evenodd" clip-rule="evenodd" d="M2.56489 0.000671387H21.374C22.8397 0.000671387 24 1.14394 24 2.58806V18.4735C24 19.8574 22.8397 21.0007 21.4351 21.0007H2.56489C1.16031 21.0007 0 19.8574 0 18.4735V2.52789C0 1.14394 1.16031 0.000671387 2.56489 0.000671387ZM6.96159 2.1071C6.91579 2.12214 6.86999 2.13718 6.83945 2.16727C6.71732 2.28761 6.65625 2.46813 6.71732 2.70882C6.71732 2.76899 6.71732 2.88933 6.77839 2.94951C6.77839 3.00968 6.83945 3.06985 6.90052 3.13002C6.90052 3.19019 7.02266 3.25036 7.08373 3.25036C7.1448 3.31054 7.26694 3.31054 7.328 3.31054C7.45014 3.31054 7.51121 3.31054 7.63335 3.19019C7.69442 3.19019 7.75549 3.13002 7.81655 3.06985C7.84709 3.03976 7.86236 3.00968 7.87762 2.97959C7.89289 2.9495 7.90816 2.91942 7.93869 2.88933C7.99976 2.82916 7.99976 2.70882 7.99976 2.64865C7.99976 2.46813 7.93869 2.28761 7.81655 2.16727C7.77881 2.13008 7.74107 2.11588 7.68891 2.09625C7.65667 2.08411 7.61893 2.06991 7.57228 2.04693C7.45014 1.98675 7.26694 1.98675 7.08373 2.04693C7.05319 2.07701 7.00739 2.09206 6.96159 2.1071ZM4.45755 2.40765C4.48809 2.37757 4.50336 2.34748 4.51862 2.3174C4.53389 2.28731 4.54916 2.25722 4.57969 2.22714C4.6204 2.14691 4.66112 2.12017 4.70183 2.09342C4.72218 2.08005 4.74254 2.06668 4.7629 2.04662C5.00717 1.92628 5.31251 1.98645 5.49572 2.16697C5.61786 2.28731 5.67893 2.46783 5.67893 2.64834C5.67893 2.70851 5.67893 2.82886 5.61786 2.88903C5.61786 2.9492 5.55679 3.00937 5.49572 3.06954C5.43465 3.12972 5.37358 3.18989 5.31251 3.18989C5.19038 3.31023 5.12931 3.31023 5.06824 3.31023C5.00717 3.31023 4.88503 3.31023 4.82397 3.25006C4.7629 3.25006 4.70183 3.18989 4.64076 3.12972C4.51862 3.06954 4.45755 3.00937 4.45755 2.88903C4.39648 2.82886 4.39648 2.70851 4.39648 2.64834C4.39648 2.58817 4.39648 2.46783 4.45755 2.40765ZM2.38152 2.10662C2.33571 2.12166 2.28991 2.1367 2.25938 2.16679C2.13724 2.28713 2.07617 2.46765 2.07617 2.64816C2.07617 2.70834 2.07617 2.82868 2.13724 2.88885C2.13724 3.0092 2.19831 3.06937 2.32045 3.12954C2.38152 3.18971 2.44258 3.24988 2.50365 3.24988C2.56472 3.31006 2.68686 3.31006 2.74793 3.31006C2.93113 3.31006 3.11434 3.24988 3.23648 3.12954C3.29755 3.06937 3.35861 3.0092 3.35861 2.88885C3.41968 2.82868 3.41968 2.70834 3.41968 2.64816C3.41968 2.58799 3.41968 2.46765 3.35861 2.34731C3.35861 2.28713 3.29755 2.22696 3.23648 2.16679C3.20594 2.1367 3.16014 2.12166 3.11434 2.10662C3.06854 2.09157 3.02274 2.07653 2.9922 2.04645C2.87007 1.98627 2.68686 1.98627 2.50365 2.04645C2.47312 2.07653 2.42732 2.09157 2.38152 2.10662ZM22.1675 17.6312C22.1675 18.5338 21.4346 19.2559 20.5186 19.2559H3.41936C2.50333 19.2559 1.77051 18.5338 1.77051 17.6312V6.92063C1.77051 6.01805 2.50333 5.29599 3.41936 5.29599H20.5186C21.4346 5.29599 22.1675 6.01805 22.1675 6.92063V17.6312ZM7.99219 11.8755C7.99219 9.53135 9.92522 7.67554 12.2548 7.67554C14.5843 7.67554 16.5174 9.53135 16.5174 11.8755C16.5174 14.2197 14.5843 16.0755 12.2548 16.0755C9.87566 16.0755 7.99219 14.2197 7.99219 11.8755ZM13.8904 13.4383C14.0887 13.243 14.0887 12.95 13.8904 12.7546L12.9487 11.8755L13.8904 10.9476C14.0887 10.7523 14.0887 10.4593 13.8904 10.2639C13.6922 10.0686 13.3948 10.0686 13.1965 10.2639L12.2548 11.1918L11.313 10.2639C11.1148 10.0686 10.8174 10.0686 10.6191 10.2639C10.4209 10.4593 10.4209 10.7523 10.6191 10.9476L11.5609 11.8267L10.6191 12.7546C10.4209 12.95 10.4209 13.243 10.6191 13.4383C10.7183 13.536 10.8174 13.5848 10.9661 13.5848C11.1148 13.5848 11.2139 13.536 11.313 13.4383L12.2548 12.5104L13.1965 13.4383C13.2956 13.536 13.3948 13.5848 13.5435 13.5848C13.6922 13.5848 13.7913 13.536 13.8904 13.4383Z" fill="white"/>
</mask>
<g mask="url(#mask0_1225_3179)">
<rect x="-56.5723" y="-57.1624" width="137.143" height="135.129" rx="20" fill="#242424"/>
</g>
</svg>
