<svg width="24" height="18" viewBox="0 0 24 18" fill="none" xmlns="http://www.w3.org/2000/svg">
<mask id="mask0_1431_220" style="mask-type:alpha" maskUnits="userSpaceOnUse" x="0" y="0" width="24" height="18">
<path fill-rule="evenodd" clip-rule="evenodd" d="M20.6474 2.74565V7.22834H19.9376H1.71786V7.28892V12.1956C1.71786 12.5591 2.01364 12.9226 2.42772 12.9226H13.2531V13.4678C13.2531 13.8312 13.3122 14.1947 13.3714 14.5581L13.3714 14.5581H2.42772C1.12631 14.5581 0.0615234 13.4678 0.0615234 12.1351V2.74565C0.0615234 1.41296 1.12631 0.322571 2.42772 0.322571H18.2812C19.5826 0.322571 20.6474 1.41296 20.6474 2.74565ZM2.42772 1.95815C2.07279 1.95815 1.71786 2.26103 1.71786 2.68507V4.01776H18.9319V2.68507C18.9319 2.32161 18.6362 1.95815 18.2221 1.95815H2.42772ZM14.8503 13.4071C14.8503 10.8629 16.8615 8.86385 19.2869 8.86385C21.7714 8.86385 23.7235 10.8629 23.7235 13.4071C23.7235 15.9513 21.7122 17.9504 19.2869 17.9504C16.8024 17.9504 14.8503 15.9513 14.8503 13.4071ZM19.2869 10.56C18.9911 10.56 18.7545 10.8023 18.7545 11.1052V13.9523C18.7545 14.2552 18.9911 14.4975 19.2869 14.4975C19.5826 14.4975 19.8193 14.2552 19.8193 13.9523V11.1052C19.8193 10.8023 19.5826 10.56 19.2869 10.56ZM19.2869 16.3148C19.4643 16.3148 19.5826 16.2542 19.701 16.1331C19.8193 16.0119 19.8784 15.8908 19.8784 15.709C19.8784 15.5273 19.8193 15.4062 19.701 15.285C19.5826 15.1638 19.4643 15.1033 19.2869 15.1033C19.1094 15.1033 18.9911 15.1638 18.8728 15.285C18.7545 15.4062 18.6953 15.5273 18.6953 15.709C18.6953 15.8908 18.7545 16.0119 18.8728 16.1331C18.9911 16.2542 19.1094 16.3148 19.2869 16.3148Z" fill="#242424"/>
</mask>
<g mask="url(#mask0_1431_220)">
<rect x="-56.7891" y="-56.7692" width="135.211" height="138.462" rx="20" fill="#242424"/>
</g>
</svg>
