<svg width="26" height="26" viewBox="0 0 26 26" fill="none" xmlns="http://www.w3.org/2000/svg">
<path d="M13 25C19.6667 25 25 19.7156 25 13.1101C25 6.50458 19.6667 1 13 1C6.33333 1 1 6.2844 1 12.8899C1 19.4954 6.33333 25 13 25Z" fill="#242424" stroke="#242424" stroke-width="2"/>
<path d="M12.9998 24.0769C19.1536 24.0769 24.0767 19.199 24.0767 13.1016C24.0767 7.00425 19.1536 1.9231 12.9998 1.9231C6.84593 1.9231 1.92285 6.80101 1.92285 12.8984C1.92285 18.9958 6.84593 24.0769 12.9998 24.0769ZM11.5639 7.2075C11.5639 6.39451 12.1793 5.78478 12.9998 5.78478C13.8203 5.78478 14.4357 6.39451 14.4357 7.2075V14.1179C14.4357 14.9309 13.8203 15.5406 12.9998 15.5406C12.1793 15.5406 11.5639 14.9309 11.5639 14.1179V7.2075ZM11.9741 17.5731C12.1793 17.3698 12.5895 17.1666 12.9998 17.1666C13.41 17.1666 13.8203 17.3698 14.0254 17.5731C14.2305 17.7763 14.4357 18.1828 14.4357 18.5893C14.4357 18.9958 14.2305 19.4023 14.0254 19.6055C13.8203 19.8088 13.41 20.012 12.9998 20.012C12.5895 20.012 12.1793 19.8088 11.9741 19.6055C11.769 19.4023 11.5639 18.9958 11.5639 18.5893C11.5639 18.1828 11.6596 17.8848 11.9741 17.5731Z" fill="white"/>
</svg>
