<svg xmlns="http://www.w3.org/2000/svg" width="186" height="24" viewBox="0 0 186 24">
    <g fill="none" fill-rule="evenodd">
        <text fill="#9E9F9E" font-family="SourceSansPro-Regular, Source Sans Pro" font-size="14" transform="translate(-5 -2)">
            <tspan x="135" y="21">Messages</tspan>
        </text>
        <path fill="#F3B53B" d="M20.542 20.65c-1.283 1.28-2.987 1.983-4.8 1.983-1.81 0-3.514-.704-4.796-1.98-1.282-1.28-1.988-2.981-1.988-4.789 0-1.806.706-3.506 1.987-4.785 1.284-1.279 2.987-1.983 4.798-1.983 1.81 0 3.515.704 4.799 1.982 1.28 1.28 1.986 2.98 1.986 4.786 0 1.808-.706 3.508-1.986 4.786zm-4.8-14.686c-5.47 0-9.923 4.442-9.924 9.9 0 5.46 4.454 9.901 9.925 9.902 5.471 0 9.924-4.442 9.924-9.902 0-5.458-4.453-9.9-9.924-9.9z" transform="translate(-5 -2)"/>
        <path d="M0 0H32V32H0z" transform="translate(-5 -2)"/>
        <path fill="#F3B53B" d="M26.554 5.211L27.328 5.211 27.328 4.44 26.554 4.44zM26.554 3.674L27.328 3.674 27.328 2.901 26.554 2.901zM24.377 5.959L25.101 5.959 25.101 5.206 24.377 5.206z" transform="translate(-5 -2)"/>
        <path fill="#0A0B09" d="M22.944 7.407L23.673 7.407 23.673 6.686 22.944 6.686zM25.1 6.686L25.91 6.686 25.91 5.959 25.1 5.959zM22.22 6.686L22.945 6.686 22.945 5.995 22.22 5.995zM24.377 7.407L25.101 7.407 25.101 6.686 24.377 6.686zM25.789 4.439L26.554 4.439 26.554 3.674 25.789 3.674zM24.377 5.206L25.789 5.206 25.789 4.44 24.377 4.44zM23.673 6.686L24.376 6.686 24.376 5.206 23.673 5.206z" transform="translate(-5 -2)"/>
        <path fill="#0A0B09" d="M23.673 8.133h-.729v-.726h-1.209v.523h-.647v.646h.724v.72h-.724v-.72h-.77v1.129h-.728v.72h-.482v.723h-.53c-.597.885-2.09 3.64-2.543 4.764-1.627-2.26-2.89-3.156-3.886-3.48-.538-.161-1.185.422-.292 1.34 2.048 2.246 2.693 4.108 3.316 5.592.33.783 1.805.904 2.102.108.63-1.685 1.545-3.578 2.627-5.132v-.806h.578v-.726h.608v-.842h.726v-.81h-.735v-.738h.735v.737h.718l-.003-.73h.577v-.881h.647v-.607h.624v-1.53h-.704v.726M62.671 18.257c-.062.3-.168.574-.316.813-.152.243-.358.44-.613.584-.256.145-.574.218-.947.218-.372 0-.688-.073-.939-.219-.25-.144-.453-.34-.604-.583-.149-.239-.256-.512-.317-.813-.06-.295-.092-.602-.092-.913 0-.31.031-.62.092-.92.061-.306.168-.58.317-.814.151-.237.354-.433.603-.582.252-.15.568-.227.94-.227.373 0 .692.076.948.226.255.15.46.346.611.583.149.235.255.509.317.814.061.3.092.61.092.92 0 .31-.03.618-.092.913zm.986-3.803c-.34-.342-.756-.61-1.237-.798-.482-.189-1.029-.284-1.625-.284-.596 0-1.14.095-1.617.284-.476.187-.89.456-1.23.798-.339.342-.605.762-.79 1.249-.185.488-.278 1.04-.278 1.641s.093 1.15.279 1.634c.184.483.45.9.79 1.242.34.342.753.607 1.229.79.477.184 1.021.277 1.617.277.596 0 1.144-.093 1.626-.277.48-.183.896-.448 1.236-.79.34-.343.606-.76.79-1.242.186-.484.28-1.033.28-1.634 0-.6-.094-1.153-.28-1.641-.184-.487-.45-.907-.79-1.249zM72.171 14.209c-.2-.26-.478-.466-.828-.613-.352-.149-.813-.224-1.368-.224-.434 0-.866.1-1.282.296-.413.195-.85.512-1.111.941l-.023.04c-.013.019-.029.028-.047.028-.02 0-.028-.01-.028-.029V13.58h-1.86v7.513h1.965v-3.942c0-.795.136-1.378.404-1.732.276-.36.72-.544 1.324-.544.535 0 .916.17 1.13.505.207.323.312.814.312 1.46v4.253h1.964v-4.64c0-.466-.041-.898-.125-1.282-.082-.377-.226-.701-.427-.962M35.794 17.978L31.177 10.676 29.058 10.676 29.058 21.114 31.007 21.114 31.007 13.778 31.162 14.019 35.609 21.114 37.744 21.114 37.744 10.676 35.795 10.676 35.794 17.978M44.433 18.257c-.062.3-.168.574-.317.813-.151.243-.358.44-.613.584-.256.145-.574.218-.946.218-.373 0-.688-.073-.94-.219-.25-.144-.453-.34-.603-.583-.15-.24-.256-.512-.317-.813-.061-.295-.092-.602-.092-.913 0-.31.03-.62.092-.92.06-.305.167-.58.317-.814.15-.237.353-.433.603-.582.251-.15.567-.227.94-.227.372 0 .69.076.947.226.255.15.46.346.611.583.15.235.256.509.318.814.06.3.091.61.091.92 0 .31-.03.618-.091.913zm.986-3.803c-.34-.342-.757-.61-1.238-.798-.481-.189-1.028-.284-1.624-.284-.596 0-1.14.095-1.617.284-.476.187-.89.456-1.23.798-.34.342-.606.762-.79 1.249-.185.488-.28 1.04-.28 1.641s.095 1.15.28 1.634c.184.483.45.9.79 1.242.34.342.754.607 1.23.79.477.184 1.021.277 1.617.277.596 0 1.143-.093 1.625-.277.48-.183.896-.448 1.237-.79.339-.343.606-.76.79-1.242.185-.484.28-1.033.28-1.634 0-.6-.095-1.153-.28-1.641-.184-.487-.451-.907-.79-1.249zM54.892 11.323l-1.964-.018-.021 2.177h-.51s-.936-.036-1.747.263c-.499.183-.915.504-1.184.99-.052.095-.099.197-.14.306-.006.023-.02.034-.045.034-.024 0-.035-.011-.035-.034v-1.425h-1.86v7.514h1.965v-3.38c0-.35.035-.68.106-.982.045-.194.114-.372.199-.537.355-.568 1.124-1.135 2.782-1.152h.453l-.042 4.383c-.004.371.056.674.176.9.12.224.287.4.496.522.213.125.465.211.747.256.29.047.6.072.924.075.202.003.418-.001.64-.009.188-.006.364-.02.521-.043l.016-1.468c-.075.011-.15.02-.228.026-.112.009-.23.013-.351.012-.386-.004-.638-.072-.775-.21-.134-.136-.199-.388-.195-.77l.036-3.674h1.513v-1.597H54.87l.021-2.159M77.147 11.471L74.859 11.471 74.859 21.066 81.819 21.066 81.819 19.298 77.147 19.298 77.147 11.471M82.802 21.066L84.921 21.066 84.921 13.527 82.802 13.527zM82.802 12.482L84.921 12.482 84.921 10.676 82.802 10.676zM87.614 11.416c-.323.315-.448.809-.448 1.755v.356H86v1.645h1.165v5.894h2.16v-5.894h1.572V13.54h-1.586v-.302c0-.37.029-.521.098-.603.084-.069.169-.096.45-.096h1.038v-1.59H89.13c-.827 0-1.193.15-1.516.466M93.565 16.597c.013-1.055.084-1.288.182-1.384.098-.11.322-.137.687-.137H95.6c.435 0 .561.04.646.124.097.109.168.383.168 1.397h-2.848zm2.75-3.07h-2.61c-.786 0-1.207.123-1.53.452-.505.507-.702 1.097-.702 3.317 0 2.221.197 2.81.702 3.304.337.343.744.466 1.53.466h2.862c.828 0 1.137-.206 1.375-.44.379-.369.505-.803.52-1.927h-1.979c-.014.535-.042.599-.112.68-.085.097-.197.138-.631.138h-1.306c-.365 0-.59-.028-.687-.137-.085-.096-.169-.304-.182-1.497h4.588c.252 0 .309-.082.309-.3v-.356c0-2.165-.113-2.754-.618-3.248-.323-.329-.744-.452-1.529-.452zM100.81 11.471L99.701 11.471 99.701 21.066 105.805 21.066 105.805 20.134 100.81 20.134 100.81 11.471M111.397 19.956c-.154.15-.365.205-.898.205h-1.74c-.533 0-.744-.054-.912-.205-.224-.22-.337-.576-.337-2.563 0-1.974.113-2.331.337-2.55.168-.165.379-.206.912-.206h1.74c.533 0 .744.041.898.206.225.219.35.576.35 2.55 0 1.987-.125 2.343-.35 2.563zm-.786-6.224h-1.964c-.772 0-1.207.097-1.53.412-.476.466-.645 1.056-.645 3.249 0 2.206.169 2.796.645 3.262.323.315.758.411 1.53.411h1.964c.757 0 1.207-.096 1.516-.411.49-.466.66-1.056.66-3.262 0-2.193-.17-2.783-.66-3.249-.309-.315-.759-.412-1.516-.412zM118.59 19.97c-.17.15-.352.192-.815.192h-1.642c-.533 0-.743-.056-.912-.206-.224-.22-.336-.576-.336-2.563 0-1.974.112-2.33.336-2.55.169-.165.379-.206.912-.206h1.642c.463 0 .631.041.786.192.154.15.239.37.28 1.302h1.01c-.027-1.22-.168-1.686-.518-2.029-.28-.273-.604-.37-1.348-.37h-1.964c-.772 0-1.207.097-1.53.412-.476.466-.645 1.056-.645 3.249 0 2.206.169 2.796.646 3.262.322.315.757.411 1.53.411h1.977c.716 0 1.067-.11 1.334-.37.365-.357.505-.782.547-2.111h-1.01c-.029.932-.112 1.22-.28 1.384M126.861 13.733L125.612 13.733 122.848 16.94 122.076 16.94 122.076 11.197 121.038 11.197 121.038 21.066 122.076 21.066 122.076 17.79 122.82 17.79 125.668 21.066 126.974 21.066 123.662 17.31 126.861 13.733M129.384 13.406L129.14 14.314 128.884 13.406 128.484 13.406 128.484 14.649 128.737 14.649 128.737 13.698 129.008 14.649 129.247 14.649 129.522 13.698 129.522 14.649 129.784 14.649 129.784 13.406 129.384 13.406M127.296 13.61L127.631 13.61 127.631 14.649 127.897 14.649 127.897 13.61 128.228 13.61 128.228 13.406 127.296 13.406 127.296 13.61" transform="translate(-5 -2)"/>
    </g>
</svg>
