<svg xmlns="http://www.w3.org/2000/svg" width="38" height="38" viewBox="0 0 38 38">
    <g fill="none" fill-rule="evenodd">
        <circle cx="19" cy="19" r="19" fill="#FDC200"/>
        <path fill="#0A0B09" d="M17.494 22.621c-2.828 0-5.128-2.3-5.128-5.127s2.3-5.128 5.128-5.128c2.825 0 5.127 2.3 5.127 5.128 0 2.827-2.302 5.127-5.127 5.127m10.975 3.619l-4.529-4.531c-.052-.052-.11-.092-.166-.136.765-1.174 1.212-2.572 1.212-4.08 0-4.137-3.353-7.493-7.492-7.493C13.355 10 10 13.356 10 17.494c0 4.14 3.355 7.494 7.494 7.494 1.505 0 2.905-.449 4.08-1.213.044.055.084.113.135.165l4.528 4.53c.31.309.713.463 1.116.463.403 0 .807-.154 1.116-.462.616-.616.616-1.615 0-2.231"/>
    </g>
</svg>
