<svg xmlns="http://www.w3.org/2000/svg" xmlns:xlink="http://www.w3.org/1999/xlink" width="70" height="70" viewBox="0 0 70 70">
    <defs>
        <path id="a" d="M8.65 65.8c-7.706 0-10.859-5.723-7.006-12.717l26.35-47.836c3.854-6.996 10.158-6.996 14.011 0l26.35 47.836c3.854 6.995.701 12.717-7.005 12.717H8.65zm29.853-29.37V21.745c0-2.028-1.568-3.671-3.503-3.671s-3.503 1.643-3.503 3.671V36.43c0 2.028 1.568 3.671 3.503 3.671s3.503-1.643 3.503-3.67zm0 14.685c0-2.028-1.568-3.671-3.503-3.671s-3.503 1.643-3.503 3.671c0 2.028 1.568 3.671 3.503 3.671s3.503-1.643 3.503-3.67z"/>
    </defs>
    <g fill="none" fill-rule="nonzero">
        <path fill="#585858" d="M8.65 69.8c-7.706 0-10.859-5.723-7.006-12.717l26.35-47.836c3.854-6.996 10.158-6.996 14.011 0l26.35 47.836c3.854 6.995.701 12.717-7.005 12.717H8.65zm29.853-33.041V22.074c0-2.028-1.568-3.671-3.503-3.671s-3.503 1.643-3.503 3.67V36.76c0 2.028 1.568 3.671 3.503 3.671s3.503-1.643 3.503-3.671zm0 14.685c0-2.029-1.568-3.671-3.503-3.671s-3.503 1.642-3.503 3.67c0 2.03 1.568 3.672 3.503 3.672s3.503-1.643 3.503-3.671z" opacity=".2"/>
        <use fill="#F9622F" xlink:href="#a"/>
    </g>
</svg>
