<?xml version="1.0" encoding="UTF-8"?>
<svg width="50px" height="50px" viewBox="0 0 50 50" version="1.1" xmlns="http://www.w3.org/2000/svg" xmlns:xlink="http://www.w3.org/1999/xlink">
    <title>Homepage_4</title>
    <defs>
        <path d="M37.875,7.5625 C38.9795695,7.5625 39.875,8.4579305 39.875,9.5625 L39.875,34.4375 C39.875,35.5420695 38.9795695,36.4375 37.875,36.4375 L6.125,36.4375 C5.0204305,36.4375 4.125,35.5420695 4.125,34.4375 L4.125,9.5625 C4.125,8.4579305 5.0204305,7.5625 6.125,7.5625 L37.875,7.5625 Z M22.0000002,15.8125 C18.5625001,15.8125 16.0271759,16.2807394 16.0271759,16.2807394 C15.5289179,16.3588295 15.125,16.8371598 15.125,17.3391975 L15.125,22.4602735 C15.125,25.9564522 17.3353265,29.722288 20.7062853,32.2894917 C21.9555337,33.2408754 22.0503838,33.2420836 23.3306451,32.2613495 C26.6810253,29.6948171 28.875,25.9436987 28.875,22.4602735 L28.875,17.3391975 C28.875,16.8327173 28.478318,16.3568925 27.9728242,16.2807394 C27.9728242,16.2807394 25.4375002,15.8125 22.0000002,15.8125 Z M22,17.1875 L22,30.9375 C21.7299327,30.9375 21.4613778,30.7470957 20.9650282,30.3690933 C18.2682612,28.3153304 16.5,25.3026618 16.5,22.5057188 L16.5,18.408858 C16.5,18.0072279 16.8231343,17.6245636 17.2217407,17.5620916 C17.2217407,17.5620916 19.25,17.1875 22,17.1875 Z M36.78125,9.625 L11.34375,9.625 C10.7742064,9.625 10.3125,10.0867064 10.3125,10.65625 C10.3125,11.1878241 10.7146975,11.6254599 11.231384,11.6814488 L11.34375,11.6875 L36.78125,11.6875 C37.3507936,11.6875 37.8125,11.2257936 37.8125,10.65625 C37.8125,10.0867064 37.3507936,9.625 36.78125,9.625 Z M7.21875,9.625 C6.64920635,9.625 6.1875,10.0867064 6.1875,10.65625 C6.1875,11.2257936 6.64920635,11.6875 7.21875,11.6875 C7.78829365,11.6875 8.25,11.2257936 8.25,10.65625 C8.25,10.0867064 7.78829365,9.625 7.21875,9.625 Z" id="path-1"></path>
    </defs>
    <g id="Homepage_4" stroke="none" stroke-width="1" fill="none" fill-rule="evenodd">
        <g id="icon/home-page/base" transform="translate(3.000000, 3.000000)">
            <mask id="mask-2" fill="white">
                <use xlink:href="#path-1"></use>
            </mask>
            <use id="icon" fill="#242E39" fill-rule="evenodd" xlink:href="#path-1"></use>
        </g>
        <g id="icon/dwp/base" transform="translate(30.000000, 4.000000)">
            <circle id="Oval" fill="#0089C6" cx="8" cy="8" r="8"></circle>
            <path d="M9,5 L7,5 L7,3 L9,3 L9,5 Z M9,12.9 L7,12.9 L7,5.9 L9,5.9 L9,12.9 Z" id="Shape" fill="#FFFFFF" fill-rule="nonzero"></path>
        </g>
    </g>
</svg>