<svg xmlns="http://www.w3.org/2000/svg" width="50" height="50" viewBox="0 0 50 50">
    <g fill="none" fill-rule="evenodd">
        <path fill="#FFF" d="M46.488 25.047c0 11.859-9.623 21.472-21.495 21.472-11.87 0-21.494-9.613-21.494-21.472 0-11.858 9.623-21.471 21.494-21.471 11.872 0 21.495 9.613 21.495 21.471"/>
        <path fill="#FFC20E" d="M24.994 43.472c-10.217 0-18.499-8.274-18.499-18.48 0-10.205 8.282-18.478 18.499-18.478 10.217 0 18.499 8.273 18.499 18.479 0 10.205-8.282 18.479-18.499 18.479m0-43.418C11.19.054 0 11.232 0 25.021 0 38.81 11.19 49.988 24.994 49.988S49.988 38.81 49.988 25.021c0-13.789-11.19-24.967-24.994-24.967"/>
        <path fill="#000" d="M24.993 13.707c-6.245 0-11.326 5.075-11.326 11.314s5.081 11.315 11.326 11.315c6.246 0 11.328-5.076 11.328-11.315s-5.082-11.314-11.328-11.314m0 27.834c-4.417 0-8.57-1.718-11.694-4.838a16.404 16.404 0 0 1-4.843-11.682c0-4.413 1.72-8.56 4.843-11.681A16.438 16.438 0 0 1 24.993 8.5a16.44 16.44 0 0 1 11.695 4.839 16.402 16.402 0 0 1 4.844 11.68c0 4.414-1.72 8.563-4.844 11.683a16.44 16.44 0 0 1-11.695 4.838"/>
        <path fill="#FFF" d="M24.993 35.866a10.82 10.82 0 0 1-7.676-3.177 10.81 10.81 0 0 1-3.18-7.668 10.808 10.808 0 0 1 3.18-7.667 10.82 10.82 0 0 1 7.676-3.177 10.822 10.822 0 0 1 7.677 3.176 10.807 10.807 0 0 1 3.18 7.668 10.81 10.81 0 0 1-3.18 7.669 10.823 10.823 0 0 1-7.677 3.176m0-27.835c-2.295 0-4.523.45-6.62 1.336a16.95 16.95 0 0 0-5.406 3.64 16.93 16.93 0 0 0-4.982 12.014 16.93 16.93 0 0 0 4.981 12.015 16.95 16.95 0 0 0 5.407 3.64 16.92 16.92 0 0 0 6.62 1.335 16.951 16.951 0 0 0 12.027-4.976 16.93 16.93 0 0 0 4.983-12.014 16.932 16.932 0 0 0-4.982-12.013A16.953 16.953 0 0 0 24.993 8.03m0 28.775c6.516 0 11.798-5.277 11.798-11.785S31.51 13.237 24.993 13.237c-6.515 0-11.796 5.276-11.796 11.784 0 6.508 5.28 11.785 11.796 11.785m0-27.835c8.875 0 16.068 7.187 16.068 16.05 0 8.865-7.193 16.05-16.068 16.05-8.874 0-16.067-7.185-16.067-16.05 0-8.863 7.193-16.05 16.067-16.05"/>
        <path fill="#000" d="M33.44 19.498a2.082 2.082 0 0 0-1.52-.62c-.578 0-1.098.214-1.504.619l-7.781 7.773-3.046-3.057-.013-.012-.013-.012c-.44-.396-.943-.597-1.495-.597-.568 0-1.09.21-1.509.61l-.005.005-.006.005c-.415.415-.635.94-.635 1.517 0 .578.227 1.113.64 1.508l4.555 4.566c.392.409.914.625 1.51.625a2.08 2.08 0 0 0 1.52-.619l9.301-9.29c.416-.418.635-.937.635-1.503 0-.578-.22-1.103-.634-1.518"/>
        <g transform="translate(28 28)">
            <circle cx="11" cy="11" r="11" fill="#0089C6"/>
            <g fill="#FFF">
                <path d="M12.465 7H10V3.945h2.465zM12.465 19H10V9.834h2.465z"/>
            </g>
        </g>
    </g>
</svg>
