<?xml version="1.0" encoding="UTF-8"?>
<svg width="50px" height="50px" viewBox="0 0 50 50" version="1.1" xmlns="http://www.w3.org/2000/svg" xmlns:xlink="http://www.w3.org/1999/xlink">
    <title>Safesearch_4</title>
    <defs>
        <path d="M15.959596,0 C24.7738374,0 31.9191919,7.1453545 31.9191919,15.959596 C31.9191919,19.5097579 30.7600137,22.7891792 28.7994983,25.4400189 L39.303852,35.9425521 C40.2320493,36.8707495 40.2320493,38.3756547 39.303852,39.303852 C38.3756547,40.2320493 36.8707495,40.2320493 35.9425521,39.303852 L25.4390152,28.8002406 C22.7883514,30.7603063 19.5093098,31.9191919 15.959596,31.9191919 C7.1453545,31.9191919 0,24.7738374 0,15.959596 C0,7.1453545 7.1453545,0 15.959596,0 Z M15.959596,2.45310245 C8.50016557,2.45310245 2.45310245,8.50016557 2.45310245,15.959596 C2.45310245,23.4190263 8.50016557,29.4660895 15.959596,29.4660895 C23.4190263,29.4660895 29.4660895,23.4190263 29.4660895,15.959596 C29.4660895,8.50016557 23.4190263,2.45310245 15.959596,2.45310245 Z M15.9307361,8.13852814 C19.4805197,8.13852814 22.0986582,8.61970359 22.0986582,8.61970359 C22.5805094,8.6919408 22.9666167,9.11413498 23.0231666,9.58802631 L23.030303,9.70740356 L23.030303,14.9699591 C23.030303,18.5496206 20.7646637,22.4043709 17.3048456,25.0418087 C15.9827654,26.0496375 15.8848172,26.0483959 14.5947629,25.0707284 C11.2160785,22.5101927 8.96647183,18.7893007 8.83706476,15.2876488 L8.83116883,14.9699591 L8.83116883,9.70740356 C8.83116883,9.19149617 9.24828045,8.69995107 9.76281371,8.61970359 C9.76281371,8.61970359 12.3809525,8.13852814 15.9307361,8.13852814 Z M15.9307359,9.83042115 C13.3951762,9.83042115 11.5250772,10.1913027 11.5250772,10.1913027 C11.1909647,10.2460169 10.914362,10.5556677 10.8668319,10.9022223 L10.8596166,11.0070777 L10.8596166,14.9539944 C10.8596166,17.6485699 12.4899918,20.5509756 14.9764695,22.5295713 C15.3832651,22.8532758 15.6241098,23.0341797 15.8474949,23.0703842 L15.9307359,23.0771744 L15.9307359,9.83042115 Z" id="path-1"></path>
    </defs>
    <g id="Safesearch_4" stroke="none" stroke-width="1" fill="none" fill-rule="evenodd">
        <g id="Group" transform="translate(5.000000, 5.000000)">
            <mask id="mask-2" fill="white">
                <use xlink:href="#path-1"></use>
            </mask>
            <use id="icon" fill="#242E39" xlink:href="#path-1"></use>
            <g id="icon/dwp/base" transform="translate(24.000000, 0.000000)">
                <circle id="Oval" fill="#0089C6" cx="8" cy="8" r="8"></circle>
                <path d="M9,5 L7,5 L7,3 L9,3 L9,5 Z M9,12.9 L7,12.9 L7,5.9 L9,5.9 L9,12.9 Z" id="Shape" fill="#FFFFFF" fill-rule="nonzero"></path>
            </g>
        </g>
    </g>
</svg>