<?xml version="1.0" encoding="UTF-8" standalone="no"?>
<svg width="50px" height="50px" viewBox="0 0 50 50" version="1.1" xmlns="http://www.w3.org/2000/svg" xmlns:xlink="http://www.w3.org/1999/xlink">
    <!-- Generator: sketchtool 41 (35326) - http://www.bohemiancoding.com/sketch -->
    <title>53E212C2-579F-47F2-9CD5-F6C5818F819E</title>
    <desc>Created with sketchtool.</desc>
    <defs></defs>
    <g id="-Base-Elements" stroke="none" stroke-width="1" fill="none" fill-rule="evenodd">
        <g id="Extension-Icons" transform="translate(-328.000000, -517.000000)">
            <g id="ic_safe-web-blocked" transform="translate(328.000000, 517.000000)">
                <path d="M46.4881373,25.0473885 C46.4881373,36.9057127 36.8646078,46.5188248 24.9933115,46.5188248 C13.1220697,46.5188248 3.49854031,36.9057127 3.49854031,25.0473885 C3.49854031,13.1890642 13.1220697,3.57595212 24.9933115,3.57595212 C36.8646078,3.57595212 46.4881373,13.1890642 46.4881373,25.0473885" id="Fill-1" fill="#FFFFFF"></path>
                <path d="M24.9940033,43.4716812 C14.7772277,43.4716812 6.49498366,35.1984494 6.49498366,24.9928455 C6.49498366,14.7874592 14.7772277,6.51417301 24.9940033,6.51417301 C35.2106699,6.51417301 43.4930229,14.7874592 43.4930229,24.9928455 C43.4930229,35.1984494 35.2106699,43.4716812 24.9940033,43.4716812 M24.9940033,0.0543797606 C11.1902451,0.0543797606 -5.44662271e-06,11.2324538 -5.44662271e-06,25.0211915 C-5.44662271e-06,38.8096572 11.1902451,49.9880033 24.9940033,49.9880033 C38.7977614,49.9880033 49.9879575,38.8096572 49.9879575,25.0211915 C49.9879575,11.2324538 38.7977614,0.0543797606 24.9940033,0.0543797606" id="Fill-3" fill="#FFC20D"></path>
                <path d="M24.9933606,13.7073286 C18.7481536,13.7073286 13.6672712,18.7824646 13.6672712,25.0207127 C13.6672712,31.2599946 18.7481536,36.3360555 24.9933606,36.3360555 C31.2392211,36.3360555 36.3206481,31.2599946 36.3206481,25.0207127 C36.3206481,18.7824646 31.2392211,13.7073286 24.9933606,13.7073286 M24.9933606,41.5412242 C20.575768,41.5412242 16.4228268,39.8229434 13.2994608,36.7029761 C10.1760948,33.5828455 8.45594227,29.433988 8.45594227,25.0207127 C8.45594227,20.6084168 10.1760948,16.4601034 13.2994608,13.3399184 C16.4230447,10.2195702 20.5759858,8.50112622 24.9933606,8.50112622 C29.4110076,8.50112622 33.5642756,10.2195702 36.6880229,13.3399184 C39.8117157,16.4601034 41.5320316,20.6084168 41.5320316,25.0207127 C41.5320316,29.433988 39.8117157,33.5828455 36.6880229,36.7029761 C33.5644935,39.8229434 29.4112255,41.5412242 24.9933606,41.5412242" id="Fill-6" fill="#000000"></path>
                <path d="M24.9933551,35.8660174 C23.5273965,35.8660174 22.1057734,35.5794015 20.7680828,35.0141132 C19.4754902,34.4679217 18.314488,33.6857671 17.3172113,32.6894124 C16.3199891,31.6931121 15.537146,30.5331556 14.9904684,29.2418063 C14.4246732,27.9053536 14.1377996,26.4851687 14.1377996,25.0206964 C14.1377996,23.5563874 14.4246732,22.13642 14.9904684,20.800185 C15.537146,19.5091077 16.3199346,18.3493689 17.3171569,17.3532318 C18.3143791,16.3570947 19.4754357,15.5751578 20.7679739,15.0290751 C22.105719,14.4638955 23.527342,14.1773341 24.9933551,14.1773341 C26.4595316,14.1773341 27.8812636,14.4638955 29.2191721,15.0290751 C30.5119281,15.5751578 31.6730392,16.3571491 32.6704248,17.3532862 C33.667756,18.3494233 34.4506536,19.5091077 34.9973856,20.8002394 C35.5632353,22.1364744 35.8501634,23.5564418 35.8501634,25.0206964 C35.8501634,26.4851687 35.5632353,27.9053536 34.9973856,29.2418063 C34.4506536,30.5331012 33.6677015,31.6930577 32.6703704,32.6894124 C31.6729847,33.6857671 30.5118192,34.4678672 29.2191176,35.0141132 C27.8812092,35.5794015 26.4594771,35.8660174 24.9933551,35.8660174 M24.9933551,8.03114255 C22.697658,8.03114255 20.470098,8.48048966 18.372658,9.36677911 C16.3472222,10.2225462 14.5284314,11.447519 12.9667756,13.0075843 C11.4051198,14.5675952 10.178976,16.384407 9.32233115,18.4076387 C8.43518519,20.5027421 7.98540305,22.7277149 7.98540305,25.0206964 C7.98540305,27.3142764 8.43518519,29.53963 9.32227669,31.634951 C10.1789216,33.658346 11.4051198,35.4752666 12.9667756,37.0352775 C14.5284314,38.5952884 16.3472222,39.8201523 18.372658,40.6758651 C20.470098,41.5619369 22.6976035,42.0112296 24.9933551,42.0112296 C27.2892702,42.0112296 29.5168845,41.5619369 31.6144336,40.6758651 C33.6400327,39.8201523 35.4589869,38.5952884 37.0207516,37.0353319 C38.5825163,35.475321 39.8088235,33.6584004 40.6655229,31.6350054 C41.5527233,29.5396844 42.0025599,27.3142764 42.0025599,25.0206964 C42.0025599,22.7277149 41.5527233,20.5027421 40.6655229,18.4075843 C39.8087691,16.384407 38.5825163,14.5675408 37.0207516,13.0075299 C35.4589325,11.4474646 33.6400327,10.2225462 31.614488,9.3667247 C29.5168845,8.48048966 27.2892157,8.03114255 24.9933551,8.03114255 M24.9933551,36.8060065 C31.5093682,36.8060065 36.7911765,31.5292383 36.7911765,25.0206964 C36.7911765,18.5128074 31.5093682,13.2373449 24.9933551,13.2373449 C18.4778867,13.2373449 13.1967865,18.5128074 13.1967865,25.0206964 C13.1967865,31.5292383 18.4778867,36.8060065 24.9933551,36.8060065 M24.9933551,8.97113166 C33.8678105,8.97113166 41.0614924,16.1575299 41.0614924,25.0206964 C41.0614924,33.88642 33.8678105,41.0712405 24.9933551,41.0712405 C16.1194989,41.0712405 8.92641612,33.88642 8.92641612,25.0206964 C8.92641612,16.1575299 16.1194989,8.97113166 24.9933551,8.97113166" id="Fill-8" fill="#FFFFFF"></path>
                <path d="M33.4396078,19.4976333 C33.02561,19.0858814 32.5145534,18.8778836 31.919183,18.8778836 C31.3420044,18.8778836 30.8222876,19.0918662 30.4161329,19.496654 L22.6347059,27.2698313 L19.588573,24.2131937 L19.5761547,24.2007889 L19.5631373,24.1890914 C19.1228867,23.7926279 18.6196732,23.5916485 18.067549,23.5916485 C17.5001198,23.5916485 16.9786601,23.8023667 16.559488,24.2011153 L16.5537691,24.206556 L16.548159,24.21216 C16.1326362,24.6272307 15.9130283,25.1518226 15.9130283,25.7292982 C15.9130283,26.3072089 16.1403159,26.842247 16.5533333,27.2370239 L21.1083442,31.8029108 C21.499793,32.2119967 22.0215795,32.42821 22.6178214,32.42821 C23.2141176,32.42821 23.7253377,32.2199946 24.1373203,31.8093852 L33.4391176,22.5180903 C33.8550218,22.1007889 34.0743028,21.5815832 34.0743028,21.0155332 C34.0743028,20.4381121 33.8548039,19.9132481 33.4396078,19.4976333" id="Fill-10" fill="#000000"></path>
                <g id="Group" transform="translate(28.000000, 28.000000)">
                    <circle id="Oval-26" fill="#C81A00" cx="11" cy="11" r="11"></circle>
                    <polygon id="icon_error" fill="#FFFFFF" points="14.2375 6 11.000625 9.2375 7.7625 6 6 7.763125 9.238125 11 6 14.2375 7.7625 16 11.000625 12.7625 14.2375 16 16.000625 14.2375 12.7625 11 16.000625 7.763125"></polygon>
                </g>
            </g>
        </g>
    </g>
</svg>