<?xml version="1.0" encoding="UTF-8"?>
<svg width="156px" height="30px" viewBox="0 0 156 30" version="1.1" xmlns="http://www.w3.org/2000/svg" xmlns:xlink="http://www.w3.org/1999/xlink">
    <!-- Generator: Sketch 64 (93537) - https://sketch.com -->
    <title>icon-norton-lifelock-logo-black</title>
    <desc>Created with Sketch.</desc>
    <g id="icon-norton-lifelock-logo-black" stroke="none" stroke-width="1" fill="none" fill-rule="evenodd">
        <g id="logo/NLL/light/136x32">
            <g id="NortonLifeLock-Horizontal-Light-RGB-WEB">
                <path d="M18.6774026,22.812987 C17.0737662,24.4114286 14.9433766,25.2914286 12.6784416,25.2914286 C10.4150649,25.2914286 8.28519481,24.4114286 6.6825974,22.8155844 C5.08,21.2150649 4.19688312,19.0898701 4.19688312,16.8301299 C4.19688312,14.5719481 5.08,12.4472727 6.68155844,10.8483117 C8.28571429,9.25038961 10.4150649,8.37038961 12.6784416,8.37038961 C14.9412987,8.37038961 17.0727273,9.25038961 18.6774026,10.8472727 C20.2779221,12.4472727 21.16,14.5719481 21.16,16.8301299 C21.16,19.0898701 20.2779221,21.2150649 18.6774026,22.812987 Z M12.6784416,4.45454545 C5.83948052,4.45558442 0.273246753,10.0072727 0.272727273,16.8301299 C0.273246753,23.6545455 5.83948052,29.2067532 12.6784416,29.2077922 C19.5179221,29.2067532 25.0841558,23.6545455 25.0841558,16.8301299 C25.0841558,10.0072727 19.5179221,4.45558442 12.6784416,4.45454545 L12.6784416,4.45454545 Z" id="Fill-1" fill="#F3B53B"></path>
                <polygon id="Fill-3" fill="#F3B53B" points="26.1922078 3.51376623 27.1605195 3.51376623 27.1605195 2.55012987 26.1922078 2.55012987"></polygon>
                <polygon id="Fill-4" fill="#F3B53B" points="26.1922078 1.59272727 27.1605195 1.59272727 27.1605195 0.625974026 26.1922078 0.625974026"></polygon>
                <polygon id="Fill-5" fill="#F3B53B" points="23.4716883 4.44883117 24.3761039 4.44883117 24.3761039 3.50701299 23.4716883 3.50701299"></polygon>
                <polygon id="Fill-6" fill="#0A0B09" points="21.68 6.25818182 22.5911688 6.25818182 22.5911688 5.35792208 21.68 5.35792208"></polygon>
                <polygon id="Fill-7" fill="#0A0B09" points="24.3755844 5.3574026 25.3880519 5.3574026 25.3880519 4.44935065 24.3755844 4.44935065"></polygon>
                <polygon id="Fill-8" fill="#0A0B09" points="20.7750649 5.3574026 21.681039 5.3574026 21.681039 4.49402597 20.7750649 4.49402597"></polygon>
                <polygon id="Fill-9" fill="#0A0B09" points="23.4716883 6.25818182 24.3761039 6.25818182 24.3761039 5.35792208 23.4716883 5.35792208"></polygon>
                <polygon id="Fill-10" fill="#0A0B09" points="25.2363636 2.54909091 26.1927273 2.54909091 26.1927273 1.59272727 25.2363636 1.59272727"></polygon>
                <polygon id="Fill-11" fill="#0A0B09" points="23.4716883 3.50701299 25.2363636 3.50701299 25.2363636 2.54961039 23.4716883 2.54961039"></polygon>
                <polygon id="Fill-12" fill="#0A0B09" points="22.5916883 5.35792208 23.4701299 5.35792208 23.4701299 3.50701299 22.5916883 3.50701299"></polygon>
                <path d="M22.5916883,7.16675325 L21.68,7.16675325 L21.68,6.25818182 L20.1693506,6.25818182 L20.1693506,6.91272727 L19.3594805,6.91272727 L19.3594805,7.72051948 L20.2644156,7.72051948 L20.2644156,8.61922078 L19.3594805,8.61922078 L19.3594805,7.72051948 L18.3984416,7.72051948 L18.3984416,9.13090909 L17.4877922,9.13090909 L17.4877922,10.0311688 L16.8851948,10.0311688 L16.8851948,10.9350649 L16.2218182,10.9350649 C15.4763636,12.041039 13.6093506,15.4857143 13.0436364,16.8903896 C11.0098701,14.065974 9.43012987,12.9449351 8.18649351,12.5392208 C7.51376623,12.3381818 6.70545455,13.067013 7.82077922,14.2150649 C10.3807792,17.0228571 11.1875325,19.3496104 11.9657143,21.2051948 C12.3776623,22.1833766 14.2228571,22.3350649 14.5942857,21.3397403 C15.3818182,19.2332468 16.5246753,16.867013 17.8768831,14.9251948 L17.8768831,13.9168831 L18.5994805,13.9168831 L18.5994805,13.0103896 L19.3594805,13.0103896 L19.3594805,11.9579221 L20.2675325,11.9579221 L20.2675325,10.9438961 L19.3490909,10.9438961 L19.3490909,10.0223377 L20.2675325,10.0223377 L20.2675325,10.9438961 L21.1646753,10.9438961 L21.1615584,10.0311688 L21.8831169,10.0311688 L21.8831169,8.92987013 L22.6914286,8.92987013 L22.6914286,8.17142857 L23.4716883,8.17142857 L23.4716883,6.25818182 L22.5916883,6.25818182 L22.5916883,7.16675325" id="Fill-13" fill="#0A0B09"></path>
                <path d="M71.3392208,19.8218182 C71.2618182,20.1968831 71.1283117,20.5381818 70.9433766,20.8379221 C70.7537662,21.1412987 70.4966234,21.3864935 70.1771429,21.5677922 C69.8571429,21.7490909 69.4597403,21.84 68.9937662,21.84 C68.5293506,21.84 68.134026,21.7490909 67.8202597,21.5667532 C67.5075325,21.3864935 67.2535065,21.1407792 67.0649351,20.8379221 C66.878961,20.5392208 66.7454545,20.1974026 66.6685714,19.8218182 C66.5927273,19.4519481 66.5542857,19.0685714 66.5542857,18.6805195 C66.5542857,18.292987 66.5927273,17.9049351 66.6685714,17.5298701 C66.7454545,17.1480519 66.878961,16.8051948 67.0654545,16.5122078 C67.254026,16.2166234 67.5075325,15.9709091 67.8192208,15.7844156 C68.1335065,15.5963636 68.5288312,15.5007792 68.9937662,15.5007792 C69.4597403,15.5007792 69.8581818,15.5963636 70.1781818,15.7838961 C70.4971429,15.9709091 70.7537662,16.2161039 70.9428571,16.5122078 C71.1283117,16.8057143 71.2618182,17.1485714 71.3392208,17.5298701 C71.4150649,17.9049351 71.4535065,18.2919481 71.4535065,18.6805195 C71.4535065,19.0685714 71.4150649,19.4519481 71.3392208,19.8218182 Z M72.5714286,15.0675325 C72.145974,14.64 71.6264935,14.3038961 71.0249351,14.0696104 C70.4223377,13.8342857 69.7392208,13.7148052 68.9937662,13.7148052 C68.2493506,13.7148052 67.5698701,13.8337662 66.972987,14.0696104 C66.3776623,14.3038961 65.8602597,14.64 65.4358442,15.0675325 C65.0114286,15.4945455 64.678961,16.0197403 64.4483117,16.6285714 C64.2161039,17.238961 64.0997403,17.9288312 64.0997403,18.6805195 C64.0997403,19.4316883 64.2161039,20.1179221 64.4483117,20.7220779 C64.678961,21.3257143 65.0114286,21.8472727 65.4358442,22.2748052 C65.8602597,22.7023377 66.3776623,23.0342857 66.9724675,23.2628571 C67.5693506,23.4919481 68.2493506,23.6083117 68.9937662,23.6083117 C69.7392208,23.6083117 70.4233766,23.4919481 71.025974,23.2628571 C71.6264935,23.0342857 72.145974,22.7023377 72.5714286,22.2748052 C72.9958442,21.8467532 73.3283117,21.3257143 73.5594805,20.7220779 C73.7911688,20.1179221 73.9085714,19.4306494 73.9085714,18.6805195 C73.9085714,17.9298701 73.7911688,17.238961 73.5594805,16.6285714 C73.3283117,16.0202597 72.9958442,15.4950649 72.5714286,15.0675325 L72.5714286,15.0675325 Z" id="Fill-14" fill="#0A0B09"></path>
                <path d="M83.214026,14.761039 C82.9636364,14.4363636 82.6161039,14.1787013 82.1787013,13.9948052 C81.7381818,13.8093506 81.1625974,13.7148052 80.4685714,13.7148052 C79.9257143,13.7148052 79.385974,13.8394805 78.865974,14.0851948 C78.3496104,14.3293506 77.8025974,14.7246753 77.4774026,15.2618182 L77.4483117,15.3101299 C77.4327273,15.3345455 77.412987,15.3464935 77.3896104,15.3464935 C77.3657143,15.3464935 77.3553247,15.3345455 77.3553247,15.3101299 L77.3553247,13.9750649 L75.0296104,13.9750649 L75.0296104,23.3667532 L77.4867532,23.3667532 L77.4867532,18.438961 C77.4867532,17.4446753 77.6561039,16.7158442 77.9916883,16.2742857 C78.3361039,15.8228571 78.8919481,15.5937662 79.6457143,15.5937662 C80.3153247,15.5937662 80.7911688,15.8062338 81.0587013,16.2244156 C81.3174026,16.6285714 81.4488312,17.2420779 81.4488312,18.0493506 L81.4488312,23.3667532 L83.9038961,23.3667532 L83.9038961,17.5667532 C83.9038961,16.9838961 83.8519481,16.4441558 83.747013,15.9641558 C83.6446753,15.4924675 83.4654545,15.0872727 83.214026,14.761039" id="Fill-15" fill="#0A0B09"></path>
                <polyline id="Fill-16" fill="#0A0B09" points="37.7428571 19.4722078 31.9714286 10.3454545 29.3220779 10.3454545 29.3220779 23.3922078 31.7584416 23.3922078 31.7584416 14.2228571 31.9527273 14.5241558 37.5111688 23.3922078 40.1797403 23.3922078 40.1797403 10.3454545 37.7433766 10.3454545 37.7428571 19.4722078"></polyline>
                <path d="M48.5407792,19.8218182 C48.4638961,20.1968831 48.3309091,20.5381818 48.1444156,20.8379221 C47.9558442,21.1412987 47.6976623,21.3864935 47.3792208,21.5677922 C47.0587013,21.7490909 46.6607792,21.84 46.1963636,21.84 C45.7303896,21.84 45.3361039,21.7490909 45.0223377,21.5667532 C44.7090909,21.3864935 44.4550649,21.1407792 44.267013,20.8379221 C44.0805195,20.5381818 43.947013,20.1968831 43.8706494,19.8218182 C43.7948052,19.4519481 43.7558442,19.0685714 43.7558442,18.6805195 C43.7558442,18.292987 43.7948052,17.9049351 43.8706494,17.5298701 C43.947013,17.1485714 44.0805195,16.8057143 44.267013,16.5122078 C44.4555844,16.2166234 44.7090909,15.9709091 45.0212987,15.7844156 C45.3355844,15.5963636 45.7303896,15.5007792 46.1963636,15.5007792 C46.6612987,15.5007792 47.0597403,15.5963636 47.3802597,15.7838961 C47.6981818,15.9703896 47.9558442,16.2161039 48.1438961,16.5122078 C48.3309091,16.8057143 48.4638961,17.1485714 48.5407792,17.5298701 C48.6171429,17.9049351 48.6550649,18.2919481 48.6550649,18.6805195 C48.6550649,19.0685714 48.6171429,19.4519481 48.5407792,19.8218182 Z M49.7735065,15.0675325 C49.3480519,14.64 48.8275325,14.3038961 48.2264935,14.0696104 C47.6244156,13.8342857 46.9407792,13.7148052 46.1963636,13.7148052 C45.4514286,13.7148052 44.7714286,13.8337662 44.1750649,14.0696104 C43.5797403,14.3038961 43.0623377,14.64 42.6384416,15.0675325 C42.212987,15.4945455 41.8805195,16.0197403 41.6503896,16.6285714 C41.4181818,17.238961 41.3007792,17.9288312 41.3007792,18.6805195 C41.3007792,19.4316883 41.4181818,20.1179221 41.6498701,20.7220779 C41.8805195,21.3257143 42.212987,21.8472727 42.6384416,22.2748052 C43.0623377,22.7023377 43.5797403,23.0342857 44.174026,23.2628571 C44.7714286,23.4919481 45.4514286,23.6083117 46.1963636,23.6083117 C46.9407792,23.6083117 47.6244156,23.4919481 48.2275325,23.2628571 C48.8280519,23.0342857 49.3480519,22.7023377 49.7735065,22.2748052 C50.1974026,21.8467532 50.5314286,21.3251948 50.761039,20.7220779 C50.9927273,20.1179221 51.1106494,19.4311688 51.1106494,18.6805195 C51.1106494,17.9298701 50.9927273,17.238961 50.7605195,16.6285714 C50.5314286,16.0202597 50.1974026,15.4950649 49.7735065,15.0675325 L49.7735065,15.0675325 Z" id="Fill-17" fill="#0A0B09"></path>
                <path d="M61.6150649,11.1542857 L59.1594805,11.1314286 L59.1335065,13.8524675 L58.4950649,13.8524675 C58.4950649,13.8524675 57.3267532,13.8077922 56.3122078,14.1812987 C55.6893506,14.4098701 55.1683117,14.8109091 54.8327273,15.4176623 C54.7677922,15.5371429 54.7090909,15.6644156 54.6581818,15.801039 C54.6503896,15.8296104 54.6316883,15.8441558 54.6015584,15.8441558 C54.5714286,15.8441558 54.5568831,15.8296104 54.5568831,15.801039 L54.5568831,14.0197403 L52.2322078,14.0197403 L52.2322078,23.4119481 L54.6883117,23.4119481 L54.6883117,19.1885714 C54.6883117,18.7501299 54.7319481,18.3366234 54.8212987,17.9605195 C54.8779221,17.7174026 54.9636364,17.4950649 55.0696104,17.2893506 C55.5142857,16.5787013 56.4753247,15.8701299 58.5480519,15.8493506 L59.1137662,15.8493506 L59.0607792,21.3272727 C59.0566234,21.7916883 59.1309091,22.1698701 59.2815584,22.4514286 C59.4306494,22.7319481 59.6394805,22.9516883 59.9018182,23.1044156 C60.1672727,23.2607792 60.4825974,23.3693506 60.8353247,23.4254545 C61.1963636,23.4841558 61.5844156,23.5148052 61.9896104,23.518961 C62.2420779,23.5220779 62.5122078,23.5174026 62.7901299,23.5075325 C63.0249351,23.4997403 63.2446753,23.4815584 63.4415584,23.454026 L63.4607792,21.6187013 C63.3677922,21.6327273 63.2737662,21.6431169 63.1766234,21.6509091 C63.0363636,21.6623377 62.8883117,21.6675325 62.7371429,21.665974 C62.2555844,21.6607792 61.9397403,21.5761039 61.7693506,21.4046753 C61.601039,21.2337662 61.5205195,20.918961 61.5246753,20.441039 L61.5698701,15.8493506 L63.4607792,15.8493506 L63.4607792,13.8524675 L61.5890909,13.8524675 L61.6150649,11.1542857" id="Fill-18" fill="#0A0B09"></path>
                <polyline id="Fill-19" fill="#0A0B09" points="89.4332468 11.3381818 86.574026 11.3381818 86.574026 23.3324675 95.2737662 23.3324675 95.2737662 21.1220779 89.4332468 21.1220779 89.4332468 11.3381818"></polyline>
                <polygon id="Fill-20" fill="#0A0B09" points="96.5028571 23.3324675 99.1516883 23.3324675 99.1516883 13.9085714 96.5028571 13.9085714"></polygon>
                <polygon id="Fill-21" fill="#0A0B09" points="96.5028571 12.6031169 99.1516883 12.6031169 99.1516883 10.3454545 96.5028571 10.3454545"></polygon>
                <path d="M102.517922,11.2701299 C102.114286,11.6638961 101.956883,12.281039 101.956883,13.4633766 L101.956883,13.9085714 L100.500779,13.9085714 L100.500779,15.9646753 L101.956883,15.9646753 L101.956883,23.3324675 L104.657662,23.3324675 L104.657662,15.9646753 L106.622338,15.9646753 L106.622338,13.9262338 L104.640519,13.9262338 L104.640519,13.5490909 C104.640519,13.0862338 104.675844,12.8971429 104.763117,12.7948052 C104.868052,12.7090909 104.973506,12.6748052 105.324675,12.6748052 L106.622338,12.6748052 L106.622338,10.6877922 L104.412987,10.6877922 C103.378182,10.6877922 102.921558,10.8758442 102.517922,11.2701299" id="Fill-22" fill="#0A0B09"></path>
                <path d="M109.955844,17.7464935 C109.972468,16.4280519 110.060779,16.1361039 110.183377,16.0161039 C110.305974,15.878961 110.586494,15.8451948 111.042597,15.8451948 L112.498701,15.8451948 C113.042597,15.8451948 113.200519,15.8961039 113.305974,15.9994805 C113.428052,16.1361039 113.515844,16.4784416 113.515844,17.7464935 L109.955844,17.7464935 Z M113.393766,13.9085714 L110.130909,13.9085714 C109.148571,13.9085714 108.622338,14.0628571 108.219221,14.4742857 C107.587532,15.1075325 107.341818,15.8451948 107.341818,18.6202597 C107.341818,21.3963636 107.587532,22.1324675 108.219221,22.7501299 C108.64,23.1781818 109.148571,23.3324675 110.130909,23.3324675 L113.709091,23.3324675 C114.743377,23.3324675 115.12987,23.0753247 115.428052,22.7833766 C115.901299,22.3215584 116.059221,21.7787013 116.077403,20.3735065 L113.604156,20.3735065 C113.586494,21.0425974 113.551169,21.1220779 113.463377,21.2244156 C113.357922,21.3449351 113.217662,21.3963636 112.674805,21.3963636 L111.042597,21.3963636 C110.586494,21.3963636 110.305974,21.3615584 110.183377,21.2244156 C110.077922,21.1054545 109.972468,20.8451948 109.955844,19.3542857 L115.691429,19.3542857 C116.006753,19.3542857 116.077403,19.2514286 116.077403,18.9781818 L116.077403,18.534026 C116.077403,15.8280519 115.936104,15.0914286 115.305455,14.4742857 C114.901818,14.0628571 114.375584,13.9085714 113.393766,13.9085714 L113.393766,13.9085714 Z" id="Fill-23" fill="#0A0B09"></path>
                <polyline id="Fill-24" fill="#0A0B09" points="119.011948 11.3387013 117.626494 11.3387013 117.626494 23.3324675 125.256623 23.3324675 125.256623 22.1677922 119.011948 22.1677922 119.011948 11.3387013"></polyline>
                <path d="M132.246753,21.9449351 C132.053506,22.1335065 131.79013,22.2015584 131.124156,22.2015584 L128.948571,22.2015584 C128.282078,22.2015584 128.019221,22.1335065 127.808831,21.9449351 C127.528831,21.6701299 127.388052,21.2249351 127.388052,18.7407792 C127.388052,16.2737662 127.528831,15.8275325 127.808831,15.5537662 C128.019221,15.3480519 128.282078,15.2961039 128.948571,15.2961039 L131.124156,15.2961039 C131.79013,15.2961039 132.053506,15.3480519 132.246753,15.5537662 C132.527273,15.8275325 132.684675,16.2737662 132.684675,18.7407792 C132.684675,21.2249351 132.527273,21.6701299 132.246753,21.9449351 Z M131.263896,14.1651948 L128.808312,14.1651948 C127.844156,14.1651948 127.29974,14.2862338 126.896623,14.68 C126.300779,15.2628571 126.08987,15.9994805 126.08987,18.7407792 C126.08987,21.4992208 126.300779,22.2358442 126.896623,22.8181818 C127.29974,23.2124675 127.844156,23.3324675 128.808312,23.3324675 L131.263896,23.3324675 C132.21039,23.3324675 132.772468,23.2124675 133.158961,22.8181818 C133.771948,22.2358442 133.982857,21.4992208 133.982857,18.7407792 C133.982857,15.9994805 133.771948,15.2628571 133.158961,14.68 C132.772468,14.2862338 132.21039,14.1651948 131.263896,14.1651948 L131.263896,14.1651948 Z" id="Fill-25" fill="#0A0B09"></path>
                <path d="M141.236364,21.9615584 C141.025974,22.1501299 140.797403,22.2020779 140.218701,22.2020779 L138.166753,22.2020779 C137.49974,22.2020779 137.237403,22.1324675 137.026494,21.9444156 C136.745974,21.6711688 136.605714,21.2249351 136.605714,18.7407792 C136.605714,16.2732468 136.745974,15.8280519 137.026494,15.5532468 C137.237403,15.3480519 137.49974,15.2966234 138.166753,15.2966234 L140.218701,15.2966234 C140.797403,15.2966234 141.007792,15.3480519 141.201039,15.5361039 C141.393766,15.7246753 141.49974,15.9994805 141.551688,17.1636364 L142.814545,17.1636364 C142.77974,15.638961 142.603636,15.0566234 142.166234,14.6280519 C141.815065,14.2857143 141.410909,14.1657143 140.481558,14.1657143 L138.026494,14.1657143 C137.061299,14.1657143 136.517403,14.2857143 136.114805,14.68 C135.518442,15.2628571 135.307532,15.9994805 135.307532,18.7407792 C135.307532,21.4992208 135.518442,22.2363636 136.114805,22.8187013 C136.517403,23.2119481 137.061299,23.3324675 138.026494,23.3324675 L140.499221,23.3324675 C141.393766,23.3324675 141.832727,23.1948052 142.166234,22.8701299 C142.622338,22.4238961 142.796883,21.8924675 142.84987,20.2311688 L141.587013,20.2311688 C141.551688,21.3958442 141.447273,21.7563636 141.236364,21.9615584" id="Fill-26" fill="#0A0B09"></path>
                <polyline id="Fill-27" fill="#0A0B09" points="151.576104 14.1657143 150.015584 14.1657143 146.560519 18.1755844 145.595325 18.1755844 145.595325 10.9958442 144.297143 10.9958442 144.297143 23.3324675 145.595325 23.3324675 145.595325 19.2374026 146.524675 19.2374026 150.085195 23.3324675 151.716883 23.3324675 147.577662 18.6379221 151.576104 14.1657143"></polyline>
                <polyline id="Fill-28" fill="#0A0B09" points="154.73039 13.7574026 154.425455 14.8919481 154.104935 13.7574026 153.604675 13.7574026 153.604675 15.3116883 153.921039 15.3116883 153.921039 14.1231169 154.26026 15.3116883 154.558442 15.3116883 154.902857 14.1231169 154.902857 15.3116883 155.22961 15.3116883 155.22961 13.7574026 154.73039 13.7574026"></polyline>
                <polyline id="Fill-29" fill="#0A0B09" points="152.12 14.0124675 152.538701 14.0124675 152.538701 15.3116883 152.871688 15.3116883 152.871688 14.0124675 153.284675 14.0124675 153.284675 13.7574026 152.12 13.7574026 152.12 14.0124675"></polyline>
            </g>
        </g>
    </g>
</svg>