<svg width="294" height="150" viewBox="0 0 294 150" fill="none" xmlns="http://www.w3.org/2000/svg">
<g filter="url(#filter0_d_4_15)">
<g filter="url(#filter1_d_4_15)">
<path fill-rule="evenodd" clip-rule="evenodd" d="M284 28V29V129C284 129.552 283.552 130 283 130H11C10.4477 130 10 129.552 10 129V29C10 28.4477 10.4477 28 11 28H258C258.552 28 259 27.5523 259 27V9C259 8.44772 259.448 8 260 8H283C283.552 8 284 8.44772 284 9V28Z" fill="white"/>
</g>
<path fill-rule="evenodd" clip-rule="evenodd" d="M270.297 12.1172C273.092 12.1172 275.379 14.3723 275.379 17.1992C275.379 18.3426 274.998 19.359 274.394 20.2166L277.729 23.5516C278.015 23.8374 278.015 24.3139 277.729 24.6315C277.443 24.9491 276.967 24.9173 276.649 24.6315L273.283 21.2647C272.425 21.8999 271.409 22.2493 270.265 22.2493C267.47 22.2493 265.183 19.9942 265.183 17.1674C265.183 14.3406 267.47 12.1172 270.297 12.1172ZM270.297 12.9113C267.915 12.9113 266.009 14.817 266.009 17.1992C266.009 19.5813 267.915 21.487 270.297 21.487C272.679 21.487 274.585 19.5813 274.585 17.1992C274.585 14.817 272.647 12.9113 270.297 12.9113ZM270.265 14.69C271.377 14.69 272.235 14.8488 272.235 14.8488C272.393 14.8805 272.52 15.0076 272.52 15.1664V15.1981V16.8815C272.52 18.025 271.79 19.2319 270.71 20.0895C270.297 20.4071 270.265 20.4071 269.852 20.0895C268.772 19.2637 268.074 18.0885 268.01 16.9768V16.8815V15.1981C268.01 15.0393 268.137 14.8805 268.296 14.8488C268.328 14.8488 269.154 14.69 270.265 14.69ZM270.265 15.2299C269.471 15.2299 268.868 15.357 268.868 15.357C268.772 15.3887 268.677 15.484 268.645 15.5793V15.6111V16.8815C268.645 17.7391 269.154 18.6602 269.948 19.2955C270.075 19.3907 270.138 19.4543 270.233 19.4543H270.265V15.2299Z" fill="#242E39"/>
<rect x="109.343" y="93.4634" width="55.399" height="18.7301" rx="1" fill="white"/>
<rect x="109.618" y="93.7384" width="54.849" height="18.1801" rx="0.725" stroke="#9A9A9A" stroke-opacity="0.488582" stroke-width="0.55"/>
<rect x="26.6456" y="73.171" width="161.457" height="4.4114" rx="1" fill="#D8D8D8"/>
<rect x="26.6456" y="44.0558" width="202.042" height="10.9259" rx="2" fill="#B4B4B4"/>
<rect x="26.6456" y="62.9222" width="228.511" height="4.68253" rx="1" fill="#D8D8D8"/>
<rect x="185" y="94" width="66.171" height="18" rx="1" fill="#999999" fill-opacity="0.4"/>
<mask id="mask0_4_15" style="mask-type:alpha" maskUnits="userSpaceOnUse" x="195" y="65" width="76" height="76">
<circle cx="233" cy="103" r="38" fill="white"/>
</mask>
<g mask="url(#mask0_4_15)">
<path d="M8 34H282V136H8V34Z" fill="white"/>
<rect x="188" y="87" width="79" height="31" rx="1" fill="#9A9A9A" fill-opacity="0.3"/>
<rect x="41.6456" y="56.4077" width="228.511" height="15.881" rx="1" fill="#D8D8D8"/>
</g>
<circle cx="233" cy="103" r="39.5" stroke="#333333" stroke-width="3"/>
<path d="M243.213 125.571L245.266 130.352C245.409 130.683 245.246 131.055 244.919 131.196L243.11 131.949C242.773 132.089 242.395 131.929 242.252 131.607L240.301 127.067L237.114 130.201C236.689 130.619 236 130.297 236 129.749V114.643C236 114.067 236.733 113.786 237.114 114.191L247.574 124.476C247.996 124.869 247.684 125.571 247.114 125.571H243.213Z" fill="#333333"/>
</g>
<defs>
<filter id="filter0_d_4_15" x="6" y="6" width="282" height="144" filterUnits="userSpaceOnUse" color-interpolation-filters="sRGB">
<feFlood flood-opacity="0" result="BackgroundImageFix"/>
<feColorMatrix in="SourceAlpha" type="matrix" values="0 0 0 0 0 0 0 0 0 0 0 0 0 0 0 0 0 0 127 0" result="hardAlpha"/>
<feOffset dy="2"/>
<feGaussianBlur stdDeviation="2"/>
<feColorMatrix type="matrix" values="0 0 0 0 0 0 0 0 0 0 0 0 0 0 0 0 0 0 0.12 0"/>
<feBlend mode="normal" in2="BackgroundImageFix" result="effect1_dropShadow_4_15"/>
<feBlend mode="normal" in="SourceGraphic" in2="effect1_dropShadow_4_15" result="shape"/>
</filter>
<filter id="filter1_d_4_15" x="0" y="0" width="294" height="142" filterUnits="userSpaceOnUse" color-interpolation-filters="sRGB">
<feFlood flood-opacity="0" result="BackgroundImageFix"/>
<feColorMatrix in="SourceAlpha" type="matrix" values="0 0 0 0 0 0 0 0 0 0 0 0 0 0 0 0 0 0 127 0" result="hardAlpha"/>
<feOffset dy="2"/>
<feGaussianBlur stdDeviation="5"/>
<feComposite in2="hardAlpha" operator="out"/>
<feColorMatrix type="matrix" values="0 0 0 0 0 0 0 0 0 0 0 0 0 0 0 0 0 0 0.25 0"/>
<feBlend mode="normal" in2="BackgroundImageFix" result="effect1_dropShadow_4_15"/>
<feBlend mode="normal" in="SourceGraphic" in2="effect1_dropShadow_4_15" result="shape"/>
</filter>
</defs>
</svg>
