<svg width="80" height="18" viewBox="0 0 80 18" fill="none" xmlns="http://www.w3.org/2000/svg">
<path fill-rule="evenodd" clip-rule="evenodd" d="M51.4023 13.2721C51.7956 13.6648 52.3084 13.8609 52.9405 13.8609H55.6492V11.8529H53.7918C53.4305 11.8529 53.25 11.6599 53.25 11.2737V6.29229H55.8814V4.28426H53.25V1.31079H50.8122V4.28426H48.4131L48.3533 4.28426C47.9146 4.28426 47.5449 4.35905 47.216 4.5391C46.8871 4.71952 46.6376 4.97935 46.4959 5.36547H46.1476V4.28426H43.7485V13.8609H46.1863V8.41618C46.1863 7.73405 46.3861 7.22871 46.7861 6.90043C47.1857 6.57225 47.6097 6.30797 48.3146 6.29229H49.5141L50.8122 6.29229V11.6984C50.8122 12.355 51.0087 12.8795 51.4023 13.2721ZM39.3027 11.2448C38.8124 11.7274 38.1933 11.9688 37.4454 11.9688C36.6971 11.9688 36.078 11.7274 35.588 11.2448C35.0976 10.762 34.8528 10.0703 34.8528 9.16911V8.976C34.8528 8.07521 35.0976 7.3832 35.588 6.90043C36.078 6.41776 36.6971 6.17642 37.4454 6.17642C38.2063 6.17642 38.8287 6.41776 39.3125 6.90043C39.7961 7.3832 40.038 8.07521 40.038 8.976V9.16911C40.038 10.0703 39.7928 10.762 39.3027 11.2448ZM34.8721 13.5521C35.633 13.9382 36.4906 14.1312 37.4454 14.1312C38.3997 14.1312 39.2574 13.9382 40.0186 13.5521C40.7796 13.1659 41.3793 12.6059 41.8179 11.8722C42.2563 11.1385 42.4758 10.257 42.4758 9.22704V8.91816C42.4758 7.88845 42.2563 7.0066 41.8179 6.27298C41.3793 5.53926 40.7796 4.97935 40.0186 4.59323C39.2574 4.20702 38.3997 4.01391 37.4454 4.01391C36.4906 4.01391 35.633 4.20702 34.8721 4.59323C34.1109 4.97935 33.5111 5.53926 33.0728 6.27298C32.6341 7.0066 32.4149 7.88845 32.4149 8.91816V9.22704C32.4149 10.257 32.6341 11.1385 33.0728 11.8722C33.5111 12.6059 34.1109 13.1659 34.8721 13.5521ZM21.8553 13.8609V4.28426H24.2544V5.53926H24.6027C24.7574 5.20473 25.0477 4.88615 25.4733 4.58353C25.899 4.28127 26.5438 4.12977 27.4081 4.12977C28.1561 4.12977 28.8109 4.30058 29.372 4.64146C29.933 4.9827 30.3684 5.45241 30.6779 6.05095C30.9875 6.64949 31.1422 7.34784 31.1422 8.14583V13.8609H28.7044V8.33884C28.7044 7.61819 28.527 7.07758 28.1724 6.71703C27.8175 6.35684 27.3114 6.17642 26.6535 6.17642C25.9054 6.17642 25.3249 6.42438 24.9122 6.91974C24.4993 7.41547 24.2931 8.10721 24.2931 8.9954V13.8609H21.8553ZM77.848 5.3898V4.27958H78.2489L78.4594 5.19978H78.5094L78.7199 4.27958H79.1209V5.3898H78.9104V4.4696H78.8603L78.6498 5.3898H78.319L78.1085 4.4696H78.0585V5.3898H77.848ZM77.1163 5.3898V4.4696H76.7455V4.27958H77.6976V4.4696H77.3268V5.3898H77.1163ZM61.3333 11.9688C62.0812 11.9688 62.7003 11.7274 63.1906 11.2448C63.6807 10.762 63.9259 10.0703 63.9259 9.16911V8.976C63.9259 8.07521 63.684 7.3832 63.2004 6.90043C62.7166 6.41776 62.0942 6.17642 61.3333 6.17642C60.585 6.17642 59.9659 6.41776 59.4759 6.90043C58.9855 7.3832 58.7407 8.07521 58.7407 8.976V9.16911C58.7407 10.0703 58.9855 10.762 59.4759 11.2448C59.9659 11.7274 60.585 11.9688 61.3333 11.9688ZM61.3332 14.1312C60.3785 14.1312 59.5209 13.9382 58.76 13.5521C57.9988 13.1659 57.399 12.6059 56.9607 11.8722C56.522 11.1385 56.3028 10.257 56.3028 9.22704V8.91816C56.3028 7.88845 56.522 7.0066 56.9607 6.27298C57.399 5.53926 57.9988 4.97935 58.76 4.59323C59.5209 4.20702 60.3785 4.01391 61.3332 4.01391C62.2876 4.01391 63.1453 4.20702 63.9065 4.59323C64.6674 4.97935 65.2672 5.53926 65.7058 6.27298C66.1442 7.0066 66.3637 7.88845 66.3637 8.91816V9.22704C66.3637 10.257 66.1442 11.1385 65.7058 11.8722C65.2672 12.6059 64.6674 13.1659 63.9065 13.5521C63.1453 13.9382 62.2876 14.1312 61.3332 14.1312ZM67.6364 4.28426V13.8609H70.0742V8.9954C70.0742 8.10721 70.2804 7.41547 70.6933 6.91974C71.1059 6.42438 71.6864 6.17642 72.4346 6.17642C73.0924 6.17642 73.5985 6.35684 73.9534 6.71703C74.308 7.07758 74.4855 7.61819 74.4855 8.33884V13.8609H76.9233V8.14583C76.9233 7.34784 76.7686 6.64949 76.4589 6.05095C76.1494 5.45241 75.7141 4.9827 75.153 4.64146C74.5919 4.30058 73.9371 4.12977 73.1891 4.12977C72.3248 4.12977 71.6801 4.28127 71.2544 4.58353C70.8287 4.88615 70.5385 5.20473 70.3838 5.53926H70.0355V4.28426H67.6364Z" fill="white"/>
<path fill-rule="evenodd" clip-rule="evenodd" d="M18.0372 9.00027C18.0372 13.9628 13.9917 18 9.01889 18C4.04562 18 0 13.9628 0 9.00027C0 4.03727 4.04562 0 9.01889 0C10.3933 0 11.6968 0.308153 12.8637 0.859366L11.3658 2.78508C10.6354 2.50974 9.84478 2.35897 9.01889 2.35897C5.51217 2.35897 2.63067 5.07905 2.3813 8.51642C2.37639 8.58577 2.37257 8.65558 2.36967 8.72584C2.36585 8.81687 2.36385 8.90834 2.36385 9.00027C2.36385 12.662 5.3491 15.641 9.01889 15.641C12.6881 15.641 15.6734 12.662 15.6734 9.00027C15.6734 8.51071 15.6199 8.03311 15.519 7.57383L17.2571 5.33951C17.7584 6.45835 18.0372 7.69758 18.0372 9.00027Z" fill="#FFE01A"/>
<path fill-rule="evenodd" clip-rule="evenodd" d="M16.1987 3.56022L14.6796 5.5124L9.3469 12.3674L4.9964 8.48614L6.57151 6.72752L9.0333 8.92376L13.0702 3.73501L14.5189 1.87231C15.1504 2.35861 15.7158 2.92669 16.1987 3.56022Z" fill="white"/>
</svg>
