<svg width="80" height="19" viewBox="0 0 80 19" fill="none" xmlns="http://www.w3.org/2000/svg">
<path fill-rule="evenodd" clip-rule="evenodd" d="M51.4023 13.8634C51.7955 14.2562 52.3083 14.4523 52.9404 14.4523H55.6491V12.4442H53.7917C53.4304 12.4442 53.2499 12.2512 53.2499 11.865V6.88359H55.8813V4.87557H53.2499V1.9021H50.8121V4.87557H48.413L48.3532 4.87557C47.9145 4.87557 47.5448 4.95036 47.216 5.13041C46.887 5.31083 46.6375 5.57066 46.4958 5.95678H46.1475V4.87557H43.7484V14.4523H46.1862V9.00749C46.1862 8.32536 46.3861 7.82002 46.786 7.49174C47.1856 7.16355 47.6096 6.89928 48.3145 6.8836H49.514L50.8121 6.88359V12.2897C50.8121 12.9463 51.0086 13.4709 51.4023 13.8634ZM39.3027 11.8361C38.8124 12.3188 38.1932 12.5601 37.4453 12.5601C36.6971 12.5601 36.0779 12.3188 35.5879 11.8361C35.0975 11.3533 34.8527 10.6616 34.8527 9.76042V9.56731C34.8527 8.66651 35.0975 7.97451 35.5879 7.49174C36.0779 7.00907 36.6971 6.76773 37.4453 6.76773C38.2062 6.76773 38.8286 7.00907 39.3124 7.49174C39.7961 7.97451 40.0379 8.66651 40.0379 9.56731V9.76042C40.0379 10.6616 39.7927 11.3533 39.3027 11.8361ZM34.872 14.1434C35.633 14.5295 36.4906 14.7225 37.4453 14.7225C38.3996 14.7225 39.2573 14.5295 40.0185 14.1434C40.7795 13.7572 41.3792 13.1972 41.8179 12.4635C42.2562 11.7298 42.4757 10.8483 42.4757 9.81835V9.50947C42.4757 8.47975 42.2562 7.5979 41.8179 6.86428C41.3792 6.13057 40.7795 5.57066 40.0185 5.18454C39.2573 4.79832 38.3996 4.60522 37.4453 4.60522C36.4906 4.60522 35.633 4.79832 34.872 5.18454C34.1108 5.57066 33.511 6.13057 33.0727 6.86428C32.634 7.5979 32.4149 8.47975 32.4149 9.50947V9.81835C32.4149 10.8483 32.634 11.7298 33.0727 12.4635C33.511 13.1972 34.1108 13.7572 34.872 14.1434ZM21.8552 14.4523V4.87557H24.2543V6.13057H24.6026C24.7574 5.79604 25.0476 5.47746 25.4732 5.17483C25.8989 4.87257 26.5437 4.72108 27.408 4.72108C28.156 4.72108 28.8108 4.89189 29.3719 5.23277C29.9329 5.57401 30.3683 6.04372 30.6778 6.64226C30.9874 7.24079 31.1421 7.93915 31.1421 8.73714V14.4523H28.7043V8.93015C28.7043 8.2095 28.5269 7.66889 28.1723 7.30834C27.8174 6.94814 27.3114 6.76773 26.6534 6.76773C25.9053 6.76773 25.3248 7.01569 24.9122 7.51105C24.4993 8.00678 24.293 8.69852 24.293 9.58671V14.4523H21.8552ZM77.8479 5.98111V4.87089H78.2488L78.4593 5.79109H78.5094L78.7199 4.87089H79.1208V5.98111H78.9103V5.06091H78.8602L78.6497 5.98111H78.319L78.1085 5.06091H78.0584V5.98111H77.8479ZM77.1162 5.98111V5.06091H76.7454V4.87089H77.6975V5.06091H77.3267V5.98111H77.1162ZM61.3332 12.5601C62.0811 12.5601 62.7003 12.3188 63.1906 11.8361C63.6806 11.3533 63.9258 10.6616 63.9258 9.76042V9.56731C63.9258 8.66651 63.684 7.97451 63.2003 7.49174C62.7165 7.00907 62.0941 6.76773 61.3332 6.76773C60.585 6.76773 59.9658 7.00907 59.4758 7.49174C58.9854 7.97451 58.7406 8.66651 58.7406 9.56731V9.76042C58.7406 10.6616 58.9854 11.3533 59.4758 11.8361C59.9658 12.3188 60.585 12.5601 61.3332 12.5601ZM61.3332 14.7225C60.3784 14.7225 59.5208 14.5295 58.7599 14.1434C57.9987 13.7572 57.3989 13.1972 56.9606 12.4635C56.5219 11.7298 56.3028 10.8483 56.3028 9.81835V9.50947C56.3028 8.47975 56.5219 7.5979 56.9606 6.86428C57.3989 6.13057 57.9987 5.57066 58.7599 5.18454C59.5208 4.79832 60.3784 4.60522 61.3332 4.60522C62.2875 4.60522 63.1452 4.79832 63.9064 5.18454C64.6674 5.57066 65.2671 6.13057 65.7057 6.86428C66.1441 7.5979 66.3636 8.47975 66.3636 9.50947V9.81835C66.3636 10.8483 66.1441 11.7298 65.7057 12.4635C65.2671 13.1972 64.6674 13.7572 63.9064 14.1434C63.1452 14.5295 62.2875 14.7225 61.3332 14.7225ZM67.6363 4.87557V14.4523H70.0741V9.58671C70.0741 8.69852 70.2803 8.00678 70.6932 7.51105C71.1059 7.01569 71.6864 6.76773 72.4345 6.76773C73.0923 6.76773 73.5984 6.94814 73.9533 7.30834C74.308 7.66889 74.4854 8.2095 74.4854 8.93015V14.4523H76.9232V8.73714C76.9232 7.93915 76.7685 7.24079 76.4589 6.64226C76.1494 6.04372 75.714 5.57401 75.1529 5.23277C74.5919 4.89189 73.937 4.72108 73.1891 4.72108C72.3248 4.72108 71.68 4.87257 71.2543 5.17483C70.8287 5.47746 70.5384 5.79604 70.3837 6.13057H70.0354V4.87557H67.6363Z" fill="white"/>
<path fill-rule="evenodd" clip-rule="evenodd" d="M18.0372 9.59158C18.0372 14.5541 13.9917 18.5913 9.01889 18.5913C4.04562 18.5913 0 14.5541 0 9.59158C0 4.62858 4.04562 0.591309 9.01889 0.591309C10.3933 0.591309 11.6968 0.899462 12.8637 1.45067L11.3658 3.37638C10.6354 3.10105 9.84479 2.95028 9.01889 2.95028C5.51218 2.95028 2.63067 5.67035 2.3813 9.10773C2.37639 9.17708 2.37257 9.24689 2.36967 9.31715C2.36585 9.40818 2.36385 9.49965 2.36385 9.59158C2.36385 13.2533 5.3491 16.2323 9.01889 16.2323C12.6881 16.2323 15.6734 13.2533 15.6734 9.59158C15.6734 9.10202 15.6199 8.62442 15.519 8.16514L17.2571 5.93082C17.7584 7.04966 18.0372 8.28889 18.0372 9.59158Z" fill="white"/>
<path fill-rule="evenodd" clip-rule="evenodd" d="M16.1987 4.15153L14.6795 6.10371L9.34685 12.9587L4.99634 9.07745L6.57145 7.31883L9.03324 9.51507L13.0701 4.32632L14.5189 2.46362C15.1504 2.94992 15.7157 3.518 16.1987 4.15153Z" fill="white"/>
</svg>
