<svg width="115" height="42" viewBox="0 0 115 26" fill="none" xmlns="http://www.w3.org/2000/svg">
<path fill-rule="evenodd" clip-rule="evenodd" d="M74.2479 19.1708C74.816 19.7381 75.5566 20.0213 76.4696 20.0213H80.3822V17.1208H77.6993C77.1775 17.1208 76.9167 16.842 76.9167 16.2842V9.0888H80.7176V6.18832H76.9167V1.89331H73.3955V6.18832L71.5205 6.18832L69.9301 6.18832L69.8437 6.18832C69.21 6.18832 68.676 6.29635 68.201 6.55643C67.7259 6.81703 67.3655 7.19234 67.1608 7.75007H66.6577V6.18832H63.1923V20.0213H66.7136V12.1566C66.7136 11.1714 67.0023 10.4414 67.5799 9.96724C68.1572 9.49319 68.7696 9.11146 69.7878 9.0888L69.9301 9.0888L71.5205 9.0888L73.3955 9.0888V16.8977C73.3955 17.846 73.6793 18.6037 74.2479 19.1708ZM56.7707 16.2424C56.0625 16.9396 55.1682 17.2882 54.0878 17.2882C53.0071 17.2882 52.1128 16.9396 51.4049 16.2424C50.6966 15.5451 50.3429 14.5459 50.3429 13.2442V12.9653C50.3429 11.6641 50.6966 10.6646 51.4049 9.96724C52.1128 9.27004 53.0071 8.92144 54.0878 8.92144C55.187 8.92144 56.086 9.27004 56.7847 9.96724C57.4834 10.6646 57.8327 11.6641 57.8327 12.9653V13.2442C57.8327 14.5459 57.4785 15.5451 56.7707 16.2424ZM50.3709 19.5752C51.47 20.1329 52.7088 20.4117 54.0878 20.4117C55.4663 20.4117 56.7052 20.1329 57.8047 19.5752C58.9039 19.0173 59.7702 18.2085 60.4038 17.1487C61.0369 16.0889 61.354 14.8157 61.354 13.3279V12.8817C61.354 11.3944 61.0369 10.1206 60.4038 9.06091C59.7702 8.0011 58.9039 7.19234 57.8047 6.63461C56.7052 6.07675 55.4663 5.79782 54.0878 5.79782C52.7088 5.79782 51.47 6.07675 50.3709 6.63461C49.2714 7.19234 48.405 8.0011 47.7719 9.06091C47.1382 10.1206 46.8217 11.3944 46.8217 12.8817V13.3279C46.8217 14.8157 47.1382 16.0889 47.7719 17.1487C48.405 18.2085 49.2714 19.0173 50.3709 19.5752ZM31.5688 20.0213V6.18832H35.0342V8.0011H35.5373C35.7608 7.51789 36.1801 7.05772 36.7949 6.62059C37.4098 6.184 38.3411 5.96517 39.5895 5.96517C40.6699 5.96517 41.6158 6.21189 42.4262 6.70427C43.2367 7.19718 43.8655 7.87565 44.3126 8.74021C44.7598 9.60476 44.9833 10.6135 44.9833 11.7661V20.0213H41.462V12.0449C41.462 11.004 41.2057 10.2231 40.6935 9.70232C40.1808 9.18204 39.4499 8.92144 38.4996 8.92144C37.419 8.92144 36.5804 9.2796 35.9844 9.99513C35.388 10.7112 35.0901 11.7104 35.0901 12.9933V20.0213H31.5688ZM112.447 7.78522V6.18156H113.026L113.33 7.51074H113.403L113.707 6.18156H114.286V7.78522H113.982V6.45604H113.909L113.605 7.78522H113.128L112.824 6.45604H112.751V7.78522H112.447ZM111.39 7.78522V6.45604H110.855V6.18156H112.23V6.45604H111.694V7.78522H111.39ZM88.5926 17.2882C89.6729 17.2882 90.5672 16.9396 91.2754 16.2424C91.9833 15.5451 92.3374 14.5459 92.3374 13.2442V12.9653C92.3374 11.6641 91.9881 10.6646 91.2895 9.96724C90.5907 9.27004 89.6917 8.92144 88.5926 8.92144C87.5118 8.92144 86.6175 9.27004 85.9097 9.96724C85.2013 10.6646 84.8477 11.6641 84.8477 12.9653V13.2442C84.8477 14.5459 85.2013 15.5451 85.9097 16.2424C86.6175 16.9396 87.5118 17.2882 88.5926 17.2882ZM88.5926 20.4117C87.2135 20.4117 85.9748 20.1329 84.8756 19.5752C83.7761 19.0173 82.9098 18.2085 82.2766 17.1487C81.6429 16.0889 81.3264 14.8157 81.3264 13.3279V12.8817C81.3264 11.3944 81.6429 10.1206 82.2766 9.06091C82.9098 8.0011 83.7761 7.19234 84.8756 6.63461C85.9748 6.07675 87.2135 5.79782 88.5926 5.79782C89.9711 5.79782 91.21 6.07675 92.3095 6.63461C93.4086 7.19234 94.275 8.0011 94.9085 9.06091C95.5417 10.1206 95.8587 11.3944 95.8587 12.8817V13.3279C95.8587 14.8157 95.5417 16.0889 94.9085 17.1487C94.275 18.2085 93.4086 19.0173 92.3095 19.5752C91.21 20.1329 89.9711 20.4117 88.5926 20.4117ZM97.6971 6.18832V20.0213H101.218V12.9933C101.218 11.7104 101.516 10.7112 102.113 9.99513C102.709 9.2796 103.547 8.92144 104.628 8.92144C105.578 8.92144 106.309 9.18204 106.822 9.70232C107.334 10.2231 107.59 11.004 107.59 12.0449V20.0213H111.111V11.7661C111.111 10.6135 110.888 9.60476 110.441 8.74021C109.994 7.87565 109.365 7.19718 108.554 6.70427C107.744 6.21189 106.798 5.96517 105.718 5.96517C104.469 5.96517 103.538 6.184 102.923 6.62059C102.308 7.05772 101.889 7.51789 101.666 8.0011H101.162V6.18832H97.6971Z" fill="#242424"/>
<path fill-rule="evenodd" clip-rule="evenodd" d="M26.0538 13.0004C26.0538 20.1685 20.2102 26 13.0273 26C5.84368 26 0 20.1685 0 13.0004C0 5.83161 5.84368 0 13.0273 0C15.0126 0 16.8954 0.44511 18.581 1.24131L16.4173 4.02289C15.3623 3.62518 14.2202 3.40741 13.0273 3.40741C7.96203 3.40741 3.79986 7.3364 3.43965 12.3015C3.43256 12.4017 3.42705 12.5025 3.42285 12.604C3.41734 12.7355 3.41445 12.8676 3.41445 13.0004C3.41445 18.2896 7.72648 22.5926 13.0273 22.5926C18.3273 22.5926 22.6393 18.2896 22.6393 13.0004C22.6393 12.2932 22.562 11.6034 22.4164 10.94L24.927 7.71263C25.6511 9.32872 26.0538 11.1187 26.0538 13.0004Z" fill="#FFE01A"/>
<path fill-rule="evenodd" clip-rule="evenodd" d="M23.3984 5.1425L21.2041 7.96231L13.5014 17.864L7.21729 12.2577L9.49245 9.71748L13.0484 12.8898L18.8794 5.39497L20.9721 2.70441C21.8842 3.40684 22.7008 4.22739 23.3984 5.1425Z" fill="#242424"/>
</svg>
