<svg width="14" height="14" viewBox="0 0 14 14" fill="none" xmlns="http://www.w3.org/2000/svg">
<path fill-rule="evenodd" clip-rule="evenodd" d="M14 7.00018C14 10.8599 10.8599 14 7.00018 14C3.14008 14 0 10.8599 0 7.00018C0 3.14004 3.14008 0 7.00018 0C8.06696 0 9.0787 0.239614 9.9845 0.668363L8.82183 2.16614C8.25495 1.95195 7.64124 1.83476 7.00018 1.83476C4.27836 1.83476 2.04182 3.95035 1.84825 6.62387C1.84452 6.67779 1.84153 6.73208 1.83927 6.78673C1.83628 6.8575 1.83476 6.92868 1.83476 7.00018C1.83476 9.84817 4.15183 12.1652 7.00018 12.1652C9.84817 12.1652 12.1652 9.84817 12.1652 7.00018C12.1652 6.61937 12.1237 6.24793 12.0454 5.89069L13.3945 4.15293C13.7836 5.02311 14 5.98696 14 7.00018Z" fill="#FFE01A"/>
<path fill-rule="evenodd" clip-rule="evenodd" d="M12.573 2.769L11.3939 4.28736L7.25481 9.61904L3.87811 6.60028L5.10065 5.23244L7.01143 6.94063L10.1447 2.90492L11.2692 1.45622C11.7593 1.83438 12.1982 2.27625 12.573 2.769Z" fill="#242424"/>
</svg>
