<svg width="55" height="57" viewBox="0 0 55 57" fill="none" xmlns="http://www.w3.org/2000/svg">
    <path fill-rule="evenodd" clip-rule="evenodd" d="M21.536 45.283c4.782 0 9.2-1.639 12.774-4.411l14.07 14.962a3.23 3.23 0 0 0 4.707 0l.05-.053a3.23 3.23 0 0 0 0-4.426l-14.31-15.216c2.667-3.769 4.244-8.44 4.244-13.497C43.071 10.137 33.43 0 21.536 0 9.642 0 0 10.137 0 22.642c0 12.504 9.642 22.641 21.536 22.641zm0-3.48c10.065 0 18.225-8.579 18.225-19.161 0-10.583-8.16-19.162-18.225-19.162C11.47 3.48 3.31 12.06 3.31 22.642c0 10.582 8.16 19.161 18.226 19.161zm-8.501-29.316s3.551-.674 8.367-.674c4.815 0 8.367.674 8.367.674.708.11 1.264.795 1.264 1.525v7.374c0 5.017-3.074 10.419-7.767 14.115-1.794 1.412-1.926 1.41-3.677.04-4.722-3.697-7.818-9.12-7.818-14.155v-7.374c0-.723.566-1.412 1.264-1.525zm7.072 19.493c.621.51.957.767 1.295.767V14.184c-3.44 0-5.977.506-5.977.506-.498.084-.902.6-.902 1.143v5.53c0 3.777 2.211 7.844 5.584 10.617z" fill="#fff"/>
</svg>
