<svg xmlns="http://www.w3.org/2000/svg" width="94" height="101" viewBox="0 0 94 101">
    <defs>
        <filter id="wrtimclk8a" width="105.4%" height="109.4%" x="-2.7%" y="-4.7%" filterUnits="objectBoundingBox">
            <feOffset in="SourceAlpha" result="shadowOffsetOuter1"/>
            <feGaussianBlur in="shadowOffsetOuter1" result="shadowBlurOuter1" stdDeviation="10"/>
            <feColorMatrix in="shadowBlurOuter1" result="shadowMatrixOuter1" values="0 0 0 0 0 0 0 0 0 0 0 0 0 0 0 0 0 0 0.25 0"/>
            <feMerge>
                <feMergeNode in="shadowMatrixOuter1"/>
                <feMergeNode in="SourceGraphic"/>
            </feMerge>
        </filter>
    </defs>
    <g fill="none" fill-rule="evenodd">
        <g fill="#FFF">
            <g filter="url(#wrtimclk8a)" transform="translate(-673 -238) translate(0 74)">
                <g>
                    <path d="M290.957 0c13.188.04 22.862 1.69 22.862 1.69 1.974.274 3.524 1.99 3.524 3.817V23.98c0 12.566-8.57 26.097-21.656 35.355-5 3.538-5.371 3.534-10.25.102-13.167-9.26-21.8-22.845-21.8-35.457V5.507c0-1.81 1.577-3.536 3.523-3.818 0 0 9.903-1.689 23.33-1.689zm-.467 6.643c-10.962 0-19.848 8.426-19.848 18.821 0 10.395 8.886 18.822 19.848 18.822 10.961 0 19.848-8.427 19.848-18.822S301.45 6.643 290.49 6.643zM305 34.767c-2.917 4.083-7.7 6.87-13.187 7.258 2.592-1.327 4.825-3.181 6.528-5.406 2.348-.247 4.57-.877 6.59-1.82l.068-.032zm-28.136-19.736c-.252 1.16-.385 2.36-.385 3.59 0 2.99.785 5.81 2.174 8.296-.048.516-.072 1.039-.072 1.567 0 4.772 1.998 9.114 5.263 12.35-6.377-2.482-10.867-8.428-10.867-15.37 0-3.9 1.418-7.487 3.792-10.321l.095-.112zm5.282 16.327c3.114 2.909 7.287 4.849 11.942 5.285-1.678 1.61-3.739 2.875-6.048 3.672-2.971-2.18-5.103-5.293-5.874-8.86l-.02-.097zm10.326-17.02c3.772 2.766 6.19 7.037 6.19 11.83 0 2.749-.795 5.325-2.183 7.545l-.056.002-.33.003c-5.99 0-11.227-2.977-14.073-7.416.853-5.447 4.855-9.952 10.245-11.891l.207-.073zm5.723-.952c1.78 0 3.495.263 5.099.75 2.921 2.966 4.709 6.95 4.709 11.328 0 1.369-.175 2.698-.504 3.97-1.954 1.76-4.384 3.07-7.094 3.753.983-2.159 1.526-4.53 1.526-7.018 0-4.94-2.14-9.417-5.61-12.685.615-.064 1.24-.098 1.874-.098zm-15.878-2.315c2.42 0 4.717.486 6.783 1.358-4.057 1.964-7.278 5.202-9.04 9.14-.205-.954-.312-1.94-.312-2.949 0-2.748.795-5.324 2.184-7.544l.055-.002.33-.003zm8.173-2.214c2.61 0 5.088.542 7.314 1.513-1.646.03-3.24.247-4.762.629-1.404-.85-2.934-1.537-4.559-2.034.659-.071 1.328-.108 2.007-.108z" transform="translate(430 184)"/>
                </g>
            </g>
        </g>
    </g>
</svg>
