<svg xmlns="http://www.w3.org/2000/svg" width="50" height="50" viewBox="0 0 50 50">
    <g fill="none" fill-rule="evenodd">
        <g fill="#EB170C">
            <g>
                <path d="M250 0c13.81 0 25 11.19 25 25s-11.19 25-25 25-25-11.19-25-25 11.19-25 25-25zm9.4 12.918c-.558-.557-1.46-.557-2.018 0L250 20.3l-7.382-7.382c-.558-.557-1.46-.557-2.017 0l-2.683 2.683c-.557.557-.557 1.46 0 2.017L245.3 25l-7.382 7.382c-.557.558-.557 1.46 0 2.017l2.683 2.683c.557.557 1.46.557 2.017 0L250 29.7l7.382 7.382c.558.557 1.46.557 2.017 0l2.683-2.683c.557-.557.557-1.46 0-2.017L254.7 25l7.382-7.382c.557-.558.557-1.46 0-2.017z" transform="translate(-695 -278) translate(470 278)"/>
            </g>
        </g>
    </g>
</svg>
