<svg width="54" height="47" viewBox="0 0 54 47" fill="none" xmlns="http://www.w3.org/2000/svg">
    <rect width="54" height="46.021" rx="1" fill="#fff"/>
    <rect x="9.346" y="3.287" width="41.538" height="3.287" rx="1.5" fill="#242E39"/>
    <rect x="3.115" y="3.287" width="3.115" height="3.287" rx="1.5" fill="#242E39"/>
    <path d="M27 13.149c-5.192 0-9.022.746-9.022.746-.753.125-1.363.887-1.363 1.687v8.162c0 5.572 3.339 11.575 8.43 15.666 1.888 1.516 2.031 1.518 3.965-.045 5.06-4.09 8.375-10.069 8.375-15.62v-8.163c0-.807-.6-1.565-1.363-1.687 0 0-3.83-.746-9.022-.746z" fill="#242E39"/>
    <path d="M27 37.255c-.408 0-.814-.303-1.564-.906-4.073-3.273-6.744-8.074-6.744-12.532v-6.53c0-.64.488-1.25 1.09-1.35 0 0 3.064-.596 7.218-.596v21.914z" fill="#fff"/>
    <mask id="a" style="mask-type:alpha" maskUnits="userSpaceOnUse" x="18" y="15" width="9" height="23">
        <path d="M27 37.255c-.408 0-.814-.303-1.564-.906-4.073-3.273-6.744-8.074-6.744-12.532v-6.53c0-.64.488-1.25 1.09-1.35 0 0 3.064-.596 7.218-.596v21.914z" fill="#fff"/>
    </mask>
</svg>
