<?xml version="1.0" encoding="UTF-8" standalone="no"?>
<svg width="16px" height="16px" viewBox="0 0 16 16" version="1.1" xmlns="http://www.w3.org/2000/svg" xmlns:xlink="http://www.w3.org/1999/xlink">
    <!-- Generator: sketchtool 40.3 (33839) - http://www.bohemiancoding.com/sketch -->
    <title>82E037E0-D167-46BA-863E-FFD5C4BD4A1B</title>
    <desc>Created with sketchtool.</desc>
    <defs></defs>
    <g id="-Base-Elements" stroke="none" stroke-width="1" fill="none" fill-rule="evenodd">
        <g id="Assets" transform="translate(-29.000000, -161.000000)" fill="#339933">
            <path d="M39.23284,169.134148 L38.0933886,170.2736 L36.0003536,172.366635 L35.9922723,172.358149 L35.9837871,172.366635 L34.8443356,171.227183 L32.7513006,169.134148 L33.8907521,167.994697 L35.9837871,170.087732 L35.9922723,170.095813 L36.9539371,169.134148 L38.0933886,167.994697 L40.1864236,165.901662 L41.325875,167.041113 L39.23284,169.134148 Z M37,161 C32.581595,161 29,164.581595 29,169 C29,173.418405 32.581595,177 37,177 C41.418405,177 45,173.418405 45,169 C45,164.581595 41.418405,161 37,161 L37,161 Z" id="ic_serp_safe"></path>
        </g>
    </g>
</svg>