<?xml version="1.0" encoding="UTF-8" standalone="no"?>
<svg width="16px" height="16px" viewBox="0 0 16 16" version="1.1" xmlns="http://www.w3.org/2000/svg" xmlns:xlink="http://www.w3.org/1999/xlink">
    <!-- Generator: sketchtool 40.3 (33839) - http://www.bohemiancoding.com/sketch -->
    <title>35310C0F-B3CD-412D-A2A0-557324FC5CC5</title>
    <desc>Created with sketchtool.</desc>
    <defs></defs>
    <g id="-Base-Elements" stroke="none" stroke-width="1" fill="none" fill-rule="evenodd">
        <g id="Assets" transform="translate(-29.000000, -200.000000)" fill="#808080">
            <g id="Serp" transform="translate(15.000000, 77.000000)">
                <path d="M22.6695288,132.965352 L21.3304712,132.965352 C21.3304712,130.789888 23.3390575,130.95717 23.3390575,129.618112 C23.3390575,128.881913 22.7366029,128.279459 22,128.279459 C21.2638012,128.279459 20.6613465,128.881913 20.6613465,129.618112 L19.322289,129.618112 C19.322289,128.138845 20.5207334,126.940401 22,126.940401 C23.4796707,126.940401 24.677711,128.138845 24.677711,129.618112 C24.677711,131.291732 22.6695288,131.459013 22.6695288,132.965352 L22.6695288,132.965352 Z M21.3304712,134.973534 L22.6695288,134.973534 L22.6695288,133.634881 L21.3304712,133.634881 L21.3304712,134.973534 Z M22,123 C17.581595,123 14,126.581999 14,131 C14,135.418405 17.581595,139 22,139 C26.4180009,139 30,135.418405 30,131 C30,126.581999 26.4180009,123 22,123 L22,123 Z" id="ic_serp_untested"></path>
            </g>
        </g>
    </g>
</svg>